<?xml version='1.0' encoding='utf-8'?>
<svg xmlns:xlink="http://www.w3.org/1999/xlink" xmlns="http://www.w3.org/2000/svg" viewBox="0 0 800 600"><!--Generated with pygal 0.13.0 ©Kozea 2012 on 2013-03-31--><!--http://pygal.org--><!--http://github.com/Kozea/pygal--><defs><style type="text/css">.title{font-family:monospace;font-size:16px}.legends .legend text{font-family:monospace;font-size:14px}.axis text{font-family:monospace;font-size:15px}.series text{font-family:monospace;font-size:0px}#tooltip text{font-family:monospace;font-size:20px}text.no_data{font-size:64px}</style><style type="text/css">svg{background-color:black}svg path,svg line,svg rect,svg circle{-webkit-transition:1s ease-out;-moz-transition:1s ease-out;transition:1s ease-out}.graph &gt; .background{fill:black}.plot &gt; .background{fill:#111}.graph{fill:#999}text.no_data{fill:#eee}.title{fill:#eee}.legends .legend text{fill:#999}.legends .legend:hover text{fill:#eee}.axis .line{stroke:#eee}.axis .guide.line{stroke:#555}.axis .major.line{stroke:#999}.axis text.major{stroke:#eee;fill:#eee}.axis.y .guides:hover .guide.line,.line-graph .axis.x .guides:hover .guide.line,.stackedline-graph .axis.x .guides:hover .guide.line,.xy-graph .axis.x .guides:hover .guide.line{stroke:#eee}.axis .guides:hover text{fill:#eee}.reactive{fill-opacity:.1}.reactive.active,.active .reactive{fill-opacity:.75}.series text{fill:#eee}#tooltip rect{fill:#111;stroke:#eee}#tooltip text{fill:#eee}.color-0{stroke:#ff5995;fill:#ff5995}.color-1{stroke:#b6e354;fill:#b6e354}.color-2{stroke:#feed6c;fill:#feed6c}.color-3{stroke:#8cedff;fill:#8cedff}.color-4{stroke:#9e6ffe;fill:#9e6ffe}.color-5{stroke:#899ca1;fill:#899ca1}.color-6{stroke:#f8f8f2;fill:#f8f8f2}.color-7{stroke:#bf4646;fill:#bf4646}.color-8{stroke:#516083;fill:#516083}.color-9{stroke:#f92672;fill:#f92672}.color-10{stroke:#82b414;fill:#82b414}.color-11{stroke:#fd971f;fill:#fd971f}.color-12{stroke:#56c2d6;fill:#56c2d6}.color-13{stroke:#808384;fill:#808384}.color-14{stroke:#8c54fe;fill:#8c54fe}.color-15{stroke:#465457;fill:#465457}</style><style type="text/css">text.no_data{text-anchor:middle}.guide.line{fill-opacity:0}.centered{text-anchor:middle}.title{text-anchor:middle}.legends .legend text{fill-opacity:1}.axis.x text{text-anchor:middle}.axis.x:not(.web) text[transform]{text-anchor:start}.axis.y text{text-anchor:end}.axis.y .logarithmic text:not(.major){font-size:50%}.axis .guide.line{stroke-dasharray:4,4}.axis .major.guide.line{stroke-dasharray:6,6}.axis text.major{stroke-width:0.5px}.horizontal .axis.y .guide.line,.vertical .axis.x .guide.line{opacity:0}.axis.y .guides:hover .guide.line,.line-graph .axis.x .guides:hover .guide.line,.gauge-graph .axis.x .guides:hover .guide.line,.stackedline-graph .axis.x .guides:hover .guide.line,.xy-graph .axis.x .guides:hover .guide.line{opacity:1}.axis .guides:hover text{opacity:1}.nofill{fill:none}.dot{stroke-width:1px;fill-opacity:1}.dot.active{stroke-width:5px}.series text{stroke:none}.series text.active{opacity:1}#tooltip rect{fill-opacity:0.8}#tooltip text{fill-opacity:1}#tooltip text tspan.label{fill-opacity:.8}a:visited{fill:none}</style><script type="text/javascript">window.config = {"truncate_legend": null, "print_values": true, "tooltip_font_size": 20, "height": 600, "legend_at_bottom": false, "show_legend": true, "show_dots": true, "explicit_size": false, "legend_font_size": 14, "fill": true, "style": {"opacity": ".1", "foreground": "#999", "plot_background": "#111", "_colors": ["#ff5995", "#b6e354", "#feed6c", "#8cedff", "#9e6ffe", "#899ca1", "#f8f8f2", "#bf4646", "#516083", "#f92672", "#82b414", "#fd971f", "#56c2d6", "#808384", "#8c54fe", "#465457"], "foreground_light": "#eee", "transition": "1s ease-out", "foreground_dark": "#555", "colors": ".color-0 {\n  stroke: #ff5995;\n  fill: #ff5995;\n}\n\n.color-1 {\n  stroke: #b6e354;\n  fill: #b6e354;\n}\n\n.color-2 {\n  stroke: #feed6c;\n  fill: #feed6c;\n}\n\n.color-3 {\n  stroke: #8cedff;\n  fill: #8cedff;\n}\n\n.color-4 {\n  stroke: #9e6ffe;\n  fill: #9e6ffe;\n}\n\n.color-5 {\n  stroke: #899ca1;\n  fill: #899ca1;\n}\n\n.color-6 {\n  stroke: #f8f8f2;\n  fill: #f8f8f2;\n}\n\n.color-7 {\n  stroke: #bf4646;\n  fill: #bf4646;\n}\n\n.color-8 {\n  stroke: #516083;\n  fill: #516083;\n}\n\n.color-9 {\n  stroke: #f92672;\n  fill: #f92672;\n}\n\n.color-10 {\n  stroke: #82b414;\n  fill: #82b414;\n}\n\n.color-11 {\n  stroke: #fd971f;\n  fill: #fd971f;\n}\n\n.color-12 {\n  stroke: #56c2d6;\n  fill: #56c2d6;\n}\n\n.color-13 {\n  stroke: #808384;\n  fill: #808384;\n}\n\n.color-14 {\n  stroke: #8c54fe;\n  fill: #8c54fe;\n}\n\n.color-15 {\n  stroke: #465457;\n  fill: #465457;\n}\n", "background": "black", "opacity_hover": ".75"}, "zero": 0, "title": "Evolution", "rounded_bars": null, "label_font_size": 15, "strict": false, "x_label_rotation": 0, "x_labels": ["0", "1", "2", "3", "4", "5", "6", "7", "8", "9", "10", "11", "12", "13", "14", "15"], "value_font_size": 0, "disable_xml_declaration": false, "css": ["style.css", "graph.css"], "human_readable": true, "y_label_rotation": 0, "pretty_print": false, "interpolate": "cubic", "js": ["https://raw.github.com/Kozea/pygal.js/master/svg.jquery.js", "https://raw.github.com/Kozea/pygal.js/master/pygal-tooltips.js"], "y_labels": null, "interpolation_precision": 250, "no_data_font_size": 64, "logarithmic": false, "print_zeroes": false, "no_data_text": "No data", "legend_box_size": 12, "stroke": true, "include_x_axis": false, "range": null, "truncate_label": null, "order_min": null, "title_font_size": 16, "width": 800}</script><script type="text/javascript" xlink:href="https://raw.github.com/Kozea/pygal.js/master/svg.jquery.js"/><script type="text/javascript" xlink:href="https://raw.github.com/Kozea/pygal.js/master/pygal-tooltips.js"/></defs><g class="graph line-graph vertical"><rect class="background" height="600" width="800" x="0" y="0"/><g class="plot" transform="translate(48, 46)"><rect class="background" height="509" width="676.4" x="0" y="0"/><g class="axis x"><g class="guides"><path class="major line" d="M13.007692 0.000000 v509.000000"/><text class="major" x="13.0076923077" y="526.5">0</text></g><g class="guides"><path class="guide line" d="M56.366667 0.000000 v509.000000"/><text class="" x="56.3666666667" y="526.5">1</text></g><g class="guides"><path class="guide line" d="M99.725641 0.000000 v509.000000"/><text class="" x="99.7256410256" y="526.5">2</text></g><g class="guides"><path class="guide line" d="M143.084615 0.000000 v509.000000"/><text class="" x="143.084615385" y="526.5">3</text></g><g class="guides"><path class="guide line" d="M186.443590 0.000000 v509.000000"/><text class="" x="186.443589744" y="526.5">4</text></g><g class="guides"><path class="guide line" d="M229.802564 0.000000 v509.000000"/><text class="" x="229.802564103" y="526.5">5</text></g><g class="guides"><path class="guide line" d="M273.161538 0.000000 v509.000000"/><text class="" x="273.161538462" y="526.5">6</text></g><g class="guides"><path class="guide line" d="M316.520513 0.000000 v509.000000"/><text class="" x="316.520512821" y="526.5">7</text></g><g class="guides"><path class="guide line" d="M359.879487 0.000000 v509.000000"/><text class="" x="359.879487179" y="526.5">8</text></g><g class="guides"><path class="guide line" d="M403.238462 0.000000 v509.000000"/><text class="" x="403.238461538" y="526.5">9</text></g><g class="guides"><path class="guide line" d="M446.597436 0.000000 v509.000000"/><text class="" x="446.597435897" y="526.5">10</text></g><g class="guides"><path class="guide line" d="M489.956410 0.000000 v509.000000"/><text class="" x="489.956410256" y="526.5">11</text></g><g class="guides"><path class="guide line" d="M533.315385 0.000000 v509.000000"/><text class="" x="533.315384615" y="526.5">12</text></g><g class="guides"><path class="guide line" d="M576.674359 0.000000 v509.000000"/><text class="" x="576.674358974" y="526.5">13</text></g><g class="guides"><path class="guide line" d="M620.033333 0.000000 v509.000000"/><text class="" x="620.033333333" y="526.5">14</text></g><g class="guides"><path class="major guide line" d="M663.392308 0.000000 v509.000000"/><text class="major" x="663.392307692" y="526.5">15</text></g></g><g class="axis y"><path class="line" d="M0.000000 509.000000 h676.400000"/><g class="guides"><path class="guide line" d="M0.000000 486.895469 h676.400000"/><text class="" x="-5" y="492.145469273">2</text></g><g class="guides"><path class="guide line" d="M0.000000 461.400928 h676.400000"/><text class="" x="-5" y="466.650927778">4</text></g><g class="guides"><path class="guide line" d="M0.000000 435.906386 h676.400000"/><text class="" x="-5" y="441.156386282">6</text></g><g class="guides"><path class="guide line" d="M0.000000 410.411845 h676.400000"/><text class="" x="-5" y="415.661844787">8</text></g><g class="guides"><path class="major guide line" d="M0.000000 384.917303 h676.400000"/><text class="major" x="-5" y="390.167303291">10</text></g><g class="guides"><path class="guide line" d="M0.000000 359.422762 h676.400000"/><text class="" x="-5" y="364.672761796">12</text></g><g class="guides"><path class="guide line" d="M0.000000 333.928220 h676.400000"/><text class="" x="-5" y="339.1782203">14</text></g><g class="guides"><path class="guide line" d="M0.000000 308.433679 h676.400000"/><text class="" x="-5" y="313.683678805">16</text></g><g class="guides"><path class="guide line" d="M0.000000 282.939137 h676.400000"/><text class="" x="-5" y="288.189137309">18</text></g><g class="guides"><path class="guide line" d="M0.000000 257.444596 h676.400000"/><text class="" x="-5" y="262.694595813">20</text></g><g class="guides"><path class="guide line" d="M0.000000 231.950054 h676.400000"/><text class="" x="-5" y="237.200054318">22</text></g><g class="guides"><path class="guide line" d="M0.000000 206.455513 h676.400000"/><text class="" x="-5" y="211.705512822">24</text></g><g class="guides"><path class="guide line" d="M0.000000 180.960971 h676.400000"/><text class="" x="-5" y="186.210971327">26</text></g><g class="guides"><path class="guide line" d="M0.000000 155.466430 h676.400000"/><text class="" x="-5" y="160.716429831">28</text></g><g class="guides"><path class="guide line" d="M0.000000 129.971888 h676.400000"/><text class="" x="-5" y="135.221888336">30</text></g><g class="guides"><path class="guide line" d="M0.000000 104.477347 h676.400000"/><text class="" x="-5" y="109.72734684">32</text></g><g class="guides"><path class="guide line" d="M0.000000 78.982805 h676.400000"/><text class="" x="-5" y="84.2328053447">34</text></g><g class="guides"><path class="guide line" d="M0.000000 53.488264 h676.400000"/><text class="" x="-5" y="58.7382638491">36</text></g><g class="guides"><path class="guide line" d="M0.000000 27.993722 h676.400000"/><text class="" x="-5" y="33.2437223536">38</text></g></g><g class="series serie-0 color-0"><path class="line reactive" d="M13.007692 509.000000 L13.007692 337.720242 15.609231 329.149818 18.210769 321.163771 20.812308 313.743713 23.413846 306.871259 26.015385 300.528020 28.616923 294.695609 31.218462 289.355639 33.820000 284.489723 36.421538 280.079474 39.023077 276.106503 41.624615 272.552425 44.226154 269.398852 46.827692 266.627396 49.429231 264.219671 52.030769 262.157289 54.632308 260.421863 57.233846 258.994980 59.835385 257.856687 62.436923 256.984648 65.038462 256.356318 67.640000 255.949154 70.241538 255.740612 72.843077 255.708150 75.444615 255.829224 78.046154 256.081291 80.647692 256.441807 83.249231 256.888229 85.850769 257.398014 88.452308 257.948618 91.053846 258.517497 93.655385 259.082110 96.256923 259.619912 98.858462 260.108359 101.460000 260.525422 104.061538 260.855029 106.663077 261.084953 109.264615 261.203033 111.866154 261.197107 114.467692 261.055012 117.069231 260.764586 119.670769 260.313667 122.272308 259.690093 124.873846 258.881701 127.475385 257.876330 130.076923 256.661817 132.678462 255.226000 135.280000 253.556717 137.881538 251.641805 140.483077 249.469103 143.084615 247.026449 145.686154 244.313800 148.287692 241.379599 150.889231 238.284408 153.490769 235.088789 156.092308 231.853305 158.693846 228.638518 161.295385 225.504990 163.896923 222.513283 166.498462 219.723960 169.100000 217.197584 171.701538 214.994716 174.303077 213.175920 176.904615 211.801756 179.506154 210.932789 182.107692 210.629579 184.709231 210.952690 187.310769 211.961950 189.912308 213.673213 192.513846 216.034167 195.115385 218.986638 197.716923 222.472451 200.318462 226.433432 202.920000 230.811405 205.521538 235.548196 208.123077 240.585631 210.724615 245.865535 213.326154 251.329733 215.927692 256.920050 218.529231 262.578313 221.130769 268.246345 223.732308 273.865973 226.333846 279.379022 228.935385 284.727318 231.536923 289.852239 234.138462 294.689982 236.740000 299.173401 239.341538 303.235293 241.943077 306.808454 244.544615 309.825682 247.146154 312.219775 249.747692 313.923529 252.349231 314.869741 254.950769 314.991209 257.552308 314.220730 260.153846 312.491102 262.755385 309.735121 265.356923 305.885584 267.958462 300.875289 270.560000 294.637033 273.161538 287.103613 275.763077 278.250841 278.364615 268.226581 280.966154 257.221714 283.567692 245.427119 286.169231 233.033676 288.770769 220.232265 291.372308 207.213765 293.973846 194.169056 296.575385 181.289018 299.176923 168.764530 301.778462 156.786471 304.380000 145.545723 306.981538 135.233163 309.583077 126.039672 312.184615 118.156129 314.786154 111.773415 317.387692 107.080194 319.989231 104.132293 322.590769 102.779635 325.192308 102.854433 327.793846 104.188899 330.395385 106.615244 332.996923 109.965681 335.598462 114.072421 338.200000 118.767678 340.801538 123.883662 343.403077 129.252585 346.004615 134.706661 348.606154 140.078100 351.207692 145.199115 353.809231 149.901918 356.410769 154.018721 359.012308 157.381736 361.613846 159.835725 364.215385 161.371351 366.816923 162.073404 369.418462 162.028244 372.020000 161.322231 374.621538 160.041723 377.223077 158.273081 379.824615 156.102663 382.426154 153.616831 385.027692 150.901943 387.629231 148.044358 390.230769 145.130437 392.832308 142.246539 395.433846 139.479023 398.035385 136.914250 400.636923 134.638578 403.238462 132.738367 405.840000 131.272243 408.441538 130.187891 411.043077 129.405266 413.644615 128.844317 416.246154 128.424999 418.847692 128.067263 421.449231 127.691062 424.050769 127.216348 426.652308 126.563073 429.253846 125.651190 431.855385 124.400650 434.456923 122.731407 437.058462 120.563412 439.660000 117.816618 442.261538 114.410977 444.863077 110.266442 447.464615 105.304396 450.066154 99.532134 452.667692 93.090109 455.269231 86.130231 457.870769 78.804407 460.472308 71.264546 463.073846 63.662558 465.675385 56.150350 468.276923 48.879832 470.878462 42.002911 473.480000 35.671497 476.081538 30.037498 478.683077 25.252823 481.284615 21.469380 483.886154 18.839079 486.487692 17.513827 489.089231 17.645533 491.690769 19.368822 494.292308 22.617381 496.893846 27.195264 499.495385 32.904362 502.096923 39.546567 504.698462 46.923772 507.300000 54.837869 509.901538 63.090750 512.503077 71.484306 515.104615 79.820431 517.706154 87.901015 520.307692 95.527952 522.909231 102.503132 525.510769 108.628449 528.112308 113.705795 530.713846 117.537060 533.315385 119.924139 535.916923 120.726205 538.518462 120.031564 541.120000 117.985805 543.721538 114.734517 546.323077 110.423289 548.924615 105.197710 551.526154 99.203367 554.127692 92.585851 556.729231 85.490749 559.330769 78.063651 561.932308 70.450145 564.533846 62.795820 567.135385 55.246264 569.736923 47.947067 572.338462 41.043818 574.940000 34.682104 577.541538 29.006490 580.143077 24.099984 582.744615 19.950188 585.346154 16.536498 587.947692 13.838309 590.549231 11.835016 593.150769 10.506014 595.752308 9.830697 598.353846 9.788462 600.955385 10.358702 603.556923 11.520813 606.158462 13.254190 608.760000 15.538228 611.361538 18.352322 613.963077 21.675868 616.564615 25.488259 619.166154 29.768892 621.767692 34.493333 624.369231 39.592659 626.970769 44.969238 629.572308 50.524964 632.173846 56.161728 634.775385 61.781422 637.376923 67.285937 639.978462 72.577166 642.580000 77.557001 645.181538 82.127332 647.783077 86.190053 650.384615 89.647055 652.986154 92.400230 655.587692 94.351469 658.189231 95.402665 660.790769 95.455709 663.392308 94.412494 663.392308 509.000000"/></g><g class="series serie-1 color-1"><path class="line reactive" d="M13.007692 509.000000 L13.007692 378.873175 15.609231 350.570359 18.210769 325.947750 20.812308 304.808832 23.413846 286.957087 26.015385 272.195998 28.616923 260.329047 31.218462 251.159717 33.820000 244.491491 36.421538 240.127851 39.023077 237.872279 41.624615 237.528259 44.226154 238.899272 46.827692 241.788802 49.429231 246.000332 52.030769 251.337342 54.632308 257.603317 57.233846 264.602232 59.835385 272.167613 62.436923 280.178792 65.038462 288.519043 67.640000 297.071639 70.241538 305.719852 72.843077 314.346955 75.444615 322.836220 78.046154 331.070921 80.647692 338.934330 83.249231 346.309720 85.850769 353.080363 88.452308 359.129533 91.053846 364.340502 93.655385 368.596543 96.256923 371.780928 98.858462 373.776931 101.460000 374.479716 104.061538 373.922683 106.663077 372.228419 109.264615 369.520997 111.866154 365.924489 114.467692 361.562969 117.069231 356.560509 119.670769 351.041182 122.272308 345.129060 124.873846 338.948217 127.475385 332.622725 130.076923 326.276657 132.678462 320.034085 135.280000 314.019083 137.881538 308.355724 140.483077 303.168079 143.084615 298.580222 145.686154 294.686288 148.287692 291.460663 150.889231 288.847795 153.490769 286.792131 156.092308 285.238120 158.693846 284.130210 161.295385 283.412849 163.896923 283.030486 166.498462 282.927567 169.100000 283.048542 171.701538 283.337858 174.303077 283.739963 176.904615 284.199306 179.506154 284.660335 182.107692 285.067497 184.709231 285.365241 187.310769 285.498576 189.912308 285.446211 192.513846 285.239086 195.115385 284.912635 197.716923 284.502293 200.318462 284.043492 202.920000 283.571666 205.521538 283.122251 208.123077 282.730678 210.724615 282.432382 213.326154 282.262798 215.927692 282.257358 218.529231 282.451497 221.130769 282.880648 223.732308 283.580245 226.333846 284.585722 228.935385 285.932514 231.536923 287.651542 234.138462 289.721287 236.740000 292.086399 239.341538 294.690961 241.943077 297.479058 244.544615 300.394773 247.146154 303.382191 249.747692 306.385396 252.349231 309.348472 254.950769 312.215504 257.552308 314.930576 260.153846 317.437771 262.755385 319.681175 265.356923 321.604871 267.958462 323.152943 270.560000 324.269476 273.161538 324.898555 275.763077 325.000283 278.364615 324.598854 280.966154 323.734479 283.567692 322.447372 286.169231 320.777744 288.770769 318.765809 291.372308 316.451779 293.973846 313.875866 296.575385 311.078285 299.176923 308.099246 301.778462 304.978964 304.380000 301.757650 306.981538 298.475517 309.583077 295.172778 312.184615 291.889646 314.786154 288.666333 317.387692 285.542769 319.989231 282.541921 322.590769 279.660462 325.192308 276.892806 327.793846 274.233364 330.395385 271.676549 332.996923 269.216771 335.598462 266.848445 338.200000 264.565981 340.801538 262.363793 343.403077 260.236291 346.004615 258.177889 348.606154 256.182998 351.207692 254.246030 353.809231 252.361399 356.410769 250.523515 359.012308 248.726792 361.613846 246.965819 364.215385 245.237261 366.816923 243.539123 369.418462 241.869429 372.020000 240.226205 374.621538 238.607476 377.223077 237.011269 379.824615 235.435608 382.426154 233.878519 385.027692 232.338029 387.629231 230.812161 390.230769 229.298943 392.832308 227.796399 395.433846 226.302555 398.035385 224.815437 400.636923 223.333070 403.238462 221.853480 405.840000 220.374825 408.441538 218.895799 411.043077 217.415226 413.644615 215.931932 416.246154 214.444743 418.847692 212.952486 421.449231 211.453984 424.050769 209.948064 426.652308 208.433553 429.253846 206.909274 431.855385 205.374055 434.456923 203.826720 437.058462 202.266096 439.660000 200.691008 442.261538 199.100282 444.863077 197.492743 447.464615 195.867258 450.066154 194.225116 452.667692 192.571363 455.269231 190.911371 457.870769 189.250507 460.472308 187.594142 463.073846 185.947645 465.675385 184.316387 468.276923 182.705736 470.878462 181.121063 473.480000 179.567737 476.081538 178.051127 478.683077 176.576604 481.284615 175.149537 483.886154 173.775296 486.487692 172.459250 489.089231 171.206769 491.690769 170.021969 494.292308 168.894384 496.893846 167.804144 499.495385 166.731221 502.096923 165.655588 504.698462 164.557215 507.300000 163.416075 509.901538 162.212141 512.503077 160.925385 515.104615 159.535778 517.706154 158.023293 520.307692 156.367902 522.909231 154.549576 525.510769 152.548289 528.112308 150.344012 530.713846 147.916718 533.315385 145.246378 535.916923 142.334333 538.518462 139.267397 541.120000 136.153752 543.721538 133.101580 546.323077 130.219064 548.924615 127.614386 551.526154 125.395728 554.127692 123.671272 556.729231 122.549201 559.330769 122.137696 561.932308 122.544941 564.533846 123.879117 567.135385 126.248406 569.736923 129.760991 572.338462 134.525054 574.940000 140.648778 577.541538 148.238649 580.143077 157.299499 582.744615 167.678586 585.346154 179.209615 587.947692 191.726293 590.549231 205.062324 593.150769 219.051413 595.752308 233.527265 598.353846 248.323586 600.955385 263.274081 603.556923 278.212455 606.158462 292.972412 608.760000 307.387660 611.361538 321.291901 613.963077 334.518843 616.564615 346.902189 619.166154 358.275645 621.767692 368.468804 624.369231 377.263448 626.970769 384.410515 629.572308 389.660428 632.173846 392.763611 634.775385 393.470489 637.376923 391.531483 639.978462 386.697018 642.580000 378.717518 645.181538 367.343406 647.783077 352.325106 650.384615 333.413040 652.986154 310.357634 655.587692 282.909310 658.189231 250.818492 660.790769 213.835604 663.392308 171.711069 663.392308 509.000000"/></g><g class="series serie-2 color-2"><path class="line reactive" d="M13.007692 509.000000 L13.007692 470.397663 15.609231 479.088765 18.210769 486.102421 20.812308 491.530079 23.413846 495.463186 26.015385 497.993190 28.616923 499.211538 31.218462 499.209678 33.820000 498.079057 36.421538 495.911122 39.023077 492.797320 41.624615 488.829100 44.226154 484.097909 46.827692 478.695193 49.429231 472.712401 52.030769 466.240980 54.632308 459.372377 57.233846 452.197778 59.835385 444.792656 62.436923 437.208135 65.038462 429.493239 67.640000 421.696997 70.241538 413.868434 72.843077 406.056577 75.444615 398.310454 78.046154 390.679090 80.647692 383.211513 83.249231 375.956749 85.850769 368.963825 88.452308 362.281767 91.053846 355.959603 93.655385 350.046359 96.256923 344.591061 98.858462 339.642737 101.460000 335.245284 104.061538 331.382966 106.663077 328.001577 109.264615 325.046269 111.866154 322.462193 114.467692 320.194502 117.069231 318.188348 119.670769 316.388882 122.272308 314.741257 124.873846 313.190624 127.475385 311.682135 130.076923 310.160943 132.678462 308.572198 135.280000 306.861053 137.881538 304.972661 140.483077 302.852172 143.084615 300.444739 145.686154 297.718085 148.287692 294.730216 150.889231 291.561710 153.490769 288.293145 156.092308 285.005100 158.693846 281.778151 161.295385 278.692877 163.896923 275.829855 166.498462 273.269663 169.100000 271.092879 171.701538 269.380081 174.303077 268.211846 176.904615 267.668753 179.506154 267.831379 182.107692 268.780302 184.709231 270.596100 187.310769 273.358063 189.912308 277.068206 192.513846 281.608772 195.115385 286.851697 197.716923 292.668921 200.318462 298.932381 202.920000 305.514015 205.521538 312.285762 208.123077 319.119559 210.724615 325.887345 213.326154 332.461058 215.927692 338.712636 218.529231 344.514017 221.130769 349.737139 223.732308 354.253940 226.333846 357.936358 228.935385 360.656332 231.536923 362.295499 234.138462 362.848252 236.740000 362.381731 239.341538 360.964287 241.943077 358.664273 244.544615 355.550039 247.146154 351.689939 249.747692 347.152322 252.349231 342.005542 254.950769 336.317950 257.552308 330.157898 260.153846 323.593737 262.755385 316.693819 265.356923 309.526496 267.958462 302.160119 270.560000 294.663041 273.161538 287.103613 275.763077 279.551610 278.364615 272.082502 280.966154 264.773180 283.567692 257.700538 286.169231 250.941468 288.770769 244.572861 291.372308 238.671612 293.973846 233.314611 296.575385 228.578753 299.176923 224.540928 301.778462 221.278030 304.380000 218.866951 306.981538 217.384584 309.583077 216.907821 312.184615 217.513555 314.786154 219.278677 317.387692 222.278463 319.989231 226.491082 322.590769 231.744191 325.192308 237.852501 327.793846 244.630724 330.395385 251.893568 332.996923 259.455745 335.598462 267.131966 338.200000 274.736940 340.801538 282.085379 343.403077 288.991993 346.004615 295.271492 348.606154 300.738588 351.207692 305.207990 353.809231 308.494410 356.410769 310.412557 359.012308 310.777143 361.613846 309.422739 364.215385 306.414817 366.816923 301.967810 369.418462 296.298637 372.020000 289.624217 374.621538 282.161466 377.223077 274.127305 379.824615 265.738650 382.426154 257.212421 385.027692 248.765534 387.629231 240.614908 390.230769 232.977462 392.832308 226.070113 395.433846 220.109780 398.035385 215.313381 400.636923 211.897834 403.238462 210.080057 405.840000 210.008980 408.441538 211.561583 411.043077 214.546857 413.644615 218.773794 416.246154 224.051385 418.847692 230.188621 421.449231 236.994494 424.050769 244.277996 426.652308 251.848118 429.253846 259.513851 431.855385 267.084186 434.456923 274.368116 437.058462 281.174632 439.660000 287.312725 442.261538 292.591386 444.863077 296.819608 447.464615 299.808198 450.066154 301.476963 452.667692 301.914662 455.269231 301.224583 457.870769 299.510019 460.472308 296.874258 463.073846 293.420592 465.675385 289.252311 468.276923 284.472704 470.878462 279.185064 473.480000 273.492678 476.081538 267.498839 478.683077 261.306837 481.284615 255.019961 483.886154 248.741503 486.487692 242.574752 489.089231 236.622999 491.690769 230.984119 494.292308 225.693034 496.893846 220.744052 499.495385 216.130802 502.096923 211.846916 504.698462 207.886024 507.300000 204.241755 509.901538 200.907742 512.503077 197.877613 515.104615 195.145000 517.706154 192.703533 520.307692 190.546842 522.909231 188.668558 525.510769 187.062311 528.112308 185.721732 530.713846 184.640451 533.315385 183.812099 535.916923 183.229213 538.518462 182.879961 541.120000 182.751420 543.721538 182.830663 546.323077 183.104767 548.924615 183.560807 551.526154 184.185859 554.127692 184.966997 556.729231 185.891298 559.330769 186.945837 561.932308 188.117688 564.533846 189.393928 567.135385 190.761633 569.736923 192.207876 572.338462 193.719735 574.940000 195.284283 577.541538 196.888633 580.143077 198.522041 582.744615 200.177085 585.346154 201.846633 587.947692 203.523550 590.549231 205.200702 593.150769 206.870955 595.752308 208.527175 598.353846 210.162229 600.955385 211.768982 603.556923 213.340299 606.158462 214.869048 608.760000 216.348094 611.361538 217.770304 613.963077 219.128542 616.564615 220.415675 619.166154 221.624570 621.767692 222.747975 624.369231 223.777299 626.970769 224.703080 629.572308 225.515843 632.173846 226.206112 634.775385 226.764414 637.376923 227.181272 639.978462 227.447212 642.580000 227.552759 645.181538 227.488436 647.783077 227.244770 650.384615 226.812286 652.986154 226.181507 655.587692 225.342959 658.189231 224.287167 660.790769 223.004655 663.392308 221.485950 663.392308 509.000000"/></g></g><g class="plot overlay" transform="translate(48, 46)"><g class="series serie-0 color-0"><g class="dots"><circle class="dot reactive tooltip-trigger" cx="13.0076923077" cy="337.720241938" r="2.5"/><desc class="value">13.703</desc><desc class="x top">13.0076923077</desc><desc class="y top">337.720241938</desc></g><g class="dots"><circle class="dot reactive tooltip-trigger" cx="56.3666666667" cy="259.437473947" r="2.5"/><desc class="value">19.844</desc><desc class="x top">56.3666666667</desc><desc class="y top">259.437473947</desc></g><g class="dots"><circle class="dot reactive tooltip-trigger" cx="99.7256410256" cy="260.256310935" r="2.5"/><desc class="value">19.779</desc><desc class="x top">99.7256410256</desc><desc class="y top">260.256310935</desc></g><g class="dots"><circle class="dot reactive tooltip-trigger" cx="143.084615385" cy="247.026448873" r="2.5"/><desc class="value">20.817</desc><desc class="x ">143.084615385</desc><desc class="y ">247.026448873</desc></g><g class="dots"><circle class="dot reactive tooltip-trigger" cx="186.443589744" cy="211.545959705" r="2.5"/><desc class="value">23.601</desc><desc class="x ">186.443589744</desc><desc class="y ">211.545959705</desc></g><g class="dots"><circle class="dot reactive tooltip-trigger" cx="229.802564103" cy="286.463415958" r="2.5"/><desc class="value">17.724</desc><desc class="x top">229.802564103</desc><desc class="y top">286.463415958</desc></g><g class="dots"><circle class="dot reactive tooltip-trigger" cx="273.161538462" cy="287.103613206" r="2.5"/><desc class="value">17.673</desc><desc class="x top">273.161538462</desc><desc class="y top">287.103613206</desc></g><g class="dots"><circle class="dot reactive tooltip-trigger" cx="316.520512821" cy="108.446326919" r="2.5"/><desc class="value">31.689</desc><desc class="x ">316.520512821</desc><desc class="y ">108.446326919</desc></g><g class="dots"><circle class="dot reactive tooltip-trigger" cx="359.879487179" cy="158.30623223" r="2.5"/><desc class="value">27.777</desc><desc class="x left">359.879487179</desc><desc class="y left">158.30623223</desc></g><g class="dots"><circle class="dot reactive tooltip-trigger" cx="403.238461538" cy="132.738367285" r="2.5"/><desc class="value">29.783</desc><desc class="x left">403.238461538</desc><desc class="y left">132.738367285</desc></g><g class="dots"><circle class="dot reactive tooltip-trigger" cx="446.597435897" cy="107.053391858" r="2.5"/><desc class="value">31.798</desc><desc class="x left">446.597435897</desc><desc class="y left">107.053391858</desc></g><g class="dots"><circle class="dot reactive tooltip-trigger" cx="489.956410256" cy="18.0394595984" r="2.5"/><desc class="value">38.781</desc><desc class="x left">489.956410256</desc><desc class="y left">18.0394595984</desc></g><g class="dots"><circle class="dot reactive tooltip-trigger" cx="533.315384615" cy="119.924138864" r="2.5"/><desc class="value">30.788</desc><desc class="x left">533.315384615</desc><desc class="y left">119.924138864</desc></g><g class="dots"><circle class="dot reactive tooltip-trigger" cx="576.674358974" cy="30.8137109359" r="2.5"/><desc class="value">37.779</desc><desc class="x left">576.674358974</desc><desc class="y left">30.8137109359</desc></g><g class="dots"><circle class="dot reactive tooltip-trigger" cx="620.033333333" cy="31.2962614599" r="2.5"/><desc class="value">37.741</desc><desc class="x left">620.033333333</desc><desc class="y left">31.2962614599</desc></g><g class="dots"><circle class="dot reactive tooltip-trigger" cx="663.392307692" cy="94.4124936775" r="2.5"/><desc class="value">32.79</desc><desc class="x left">663.392307692</desc><desc class="y left">94.4124936775</desc></g></g><g class="series serie-1 color-1"><g class="dots"><circle class="dot reactive tooltip-trigger" cx="13.0076923077" cy="378.873175199" r="2.5"/><desc class="value">10.474</desc><desc class="x top">13.0076923077</desc><desc class="y top">378.873175199</desc></g><g class="dots"><circle class="dot reactive tooltip-trigger" cx="56.3666666667" cy="262.19967964" r="2.5"/><desc class="value">19.627</desc><desc class="x top">56.3666666667</desc><desc class="y top">262.19967964</desc></g><g class="dots"><circle class="dot reactive tooltip-trigger" cx="99.7256410256" cy="374.158005532" r="2.5"/><desc class="value">10.844</desc><desc class="x top">99.7256410256</desc><desc class="y top">374.158005532</desc></g><g class="dots"><circle class="dot reactive tooltip-trigger" cx="143.084615385" cy="298.580222083" r="2.5"/><desc class="value">16.773</desc><desc class="x top">143.084615385</desc><desc class="y top">298.580222083</desc></g><g class="dots"><circle class="dot reactive tooltip-trigger" cx="186.443589744" cy="285.475515651" r="2.5"/><desc class="value">17.801</desc><desc class="x top">186.443589744</desc><desc class="y top">285.475515651</desc></g><g class="dots"><circle class="dot reactive tooltip-trigger" cx="229.802564103" cy="286.463415958" r="2.5"/><desc class="value">17.724</desc><desc class="x top">229.802564103</desc><desc class="y top">286.463415958</desc></g><g class="dots"><circle class="dot reactive tooltip-trigger" cx="273.161538462" cy="324.898554589" r="2.5"/><desc class="value">14.708</desc><desc class="x top">273.161538462</desc><desc class="y top">324.898554589</desc></g><g class="dots"><circle class="dot reactive tooltip-trigger" cx="316.520512821" cy="286.570548129" r="2.5"/><desc class="value">17.715</desc><desc class="x top">316.520512821</desc><desc class="y top">286.570548129</desc></g><g class="dots"><circle class="dot reactive tooltip-trigger" cx="359.879487179" cy="248.136064581" r="2.5"/><desc class="value">20.73</desc><desc class="x left">359.879487179</desc><desc class="y left">248.136064581</desc></g><g class="dots"><circle class="dot reactive tooltip-trigger" cx="403.238461538" cy="221.853479863" r="2.5"/><desc class="value">22.792</desc><desc class="x left">403.238461538</desc><desc class="y left">221.853479863</desc></g><g class="dots"><circle class="dot reactive tooltip-trigger" cx="446.597435897" cy="196.411130234" r="2.5"/><desc class="value">24.788</desc><desc class="x left">446.597435897</desc><desc class="y left">196.411130234</desc></g><g class="dots"><circle class="dot reactive tooltip-trigger" cx="489.956410256" cy="170.804329035" r="2.5"/><desc class="value">26.797</desc><desc class="x left">489.956410256</desc><desc class="y left">170.804329035</desc></g><g class="dots"><circle class="dot reactive tooltip-trigger" cx="533.315384615" cy="145.2463781" r="2.5"/><desc class="value">28.802</desc><desc class="x left">533.315384615</desc><desc class="y left">145.2463781</desc></g><g class="dots"><circle class="dot reactive tooltip-trigger" cx="576.674358974" cy="145.540050022" r="2.5"/><desc class="value">28.779</desc><desc class="x left">576.674358974</desc><desc class="y left">145.540050022</desc></g><g class="dots"><circle class="dot reactive tooltip-trigger" cx="620.033333333" cy="361.813634789" r="2.5"/><desc class="value">11.812</desc><desc class="x left top">620.033333333</desc><desc class="y left top">361.813634789</desc></g><g class="dots"><circle class="dot reactive tooltip-trigger" cx="663.392307692" cy="171.711069237" r="2.5"/><desc class="value">26.726</desc><desc class="x left">663.392307692</desc><desc class="y left">171.711069237</desc></g></g><g class="series serie-2 color-2"><g class="dots"><circle class="dot reactive tooltip-trigger" cx="13.0076923077" cy="470.397663098" r="2.5"/><desc class="value">3.294</desc><desc class="x top">13.0076923077</desc><desc class="y top">470.397663098</desc></g><g class="dots"><circle class="dot reactive tooltip-trigger" cx="56.3666666667" cy="454.61781091" r="2.5"/><desc class="value">4.532</desc><desc class="x top">56.3666666667</desc><desc class="y top">454.61781091</desc></g><g class="dots"><circle class="dot reactive tooltip-trigger" cx="99.7256410256" cy="338.114430467" r="2.5"/><desc class="value">13.672</desc><desc class="x top">99.7256410256</desc><desc class="y top">338.114430467</desc></g><g class="dots"><circle class="dot reactive tooltip-trigger" cx="143.084615385" cy="300.444738937" r="2.5"/><desc class="value">16.627</desc><desc class="x top">143.084615385</desc><desc class="y top">300.444738937</desc></g><g class="dots"><circle class="dot reactive tooltip-trigger" cx="186.443589744" cy="272.328020853" r="2.5"/><desc class="value">18.832</desc><desc class="x top">186.443589744</desc><desc class="y top">272.328020853</desc></g><g class="dots"><circle class="dot reactive tooltip-trigger" cx="229.802564103" cy="361.326979055" r="2.5"/><desc class="value">11.851</desc><desc class="x top">229.802564103</desc><desc class="y top">361.326979055</desc></g><g class="dots"><circle class="dot reactive tooltip-trigger" cx="273.161538462" cy="287.103613206" r="2.5"/><desc class="value">17.673</desc><desc class="x top">273.161538462</desc><desc class="y top">287.103613206</desc></g><g class="dots"><circle class="dot reactive tooltip-trigger" cx="316.520512821" cy="221.137502529" r="2.5"/><desc class="value">22.848</desc><desc class="x ">316.520512821</desc><desc class="y ">221.137502529</desc></g><g class="dots"><circle class="dot reactive tooltip-trigger" cx="359.879487179" cy="310.521410017" r="2.5"/><desc class="value">15.836</desc><desc class="x left top">359.879487179</desc><desc class="y left top">310.521410017</desc></g><g class="dots"><circle class="dot reactive tooltip-trigger" cx="403.238461538" cy="210.080056515" r="2.5"/><desc class="value">23.716</desc><desc class="x left">403.238461538</desc><desc class="y left">210.080056515</desc></g><g class="dots"><circle class="dot reactive tooltip-trigger" cx="446.597435897" cy="298.96051929" r="2.5"/><desc class="value">16.743</desc><desc class="x left top">446.597435897</desc><desc class="y left top">298.96051929</desc></g><g class="dots"><circle class="dot reactive tooltip-trigger" cx="489.956410256" cy="234.704711495" r="2.5"/><desc class="value">21.784</desc><desc class="x left">489.956410256</desc><desc class="y left">234.704711495</desc></g><g class="dots"><circle class="dot reactive tooltip-trigger" cx="533.315384615" cy="183.812098914" r="2.5"/><desc class="value">25.776</desc><desc class="x left">533.315384615</desc><desc class="y left">183.812098914</desc></g><g class="dots"><circle class="dot reactive tooltip-trigger" cx="576.674358974" cy="196.350205553" r="2.5"/><desc class="value">24.793</desc><desc class="x left">576.674358974</desc><desc class="y left">196.350205553</desc></g><g class="dots"><circle class="dot reactive tooltip-trigger" cx="620.033333333" cy="222.008914819" r="2.5"/><desc class="value">22.78</desc><desc class="x left">620.033333333</desc><desc class="y left">222.008914819</desc></g><g class="dots"><circle class="dot reactive tooltip-trigger" cx="663.392307692" cy="221.485949586" r="2.5"/><desc class="value">22.821</desc><desc class="x left">663.392307692</desc><desc class="y left">221.485949586</desc></g></g></g><g class="plot text-overlay" transform="translate(48, 46)"><g class="series serie-0 color-0"><text class="centered" x="13.0076923077" y="337.720241938">13.703</text><text class="centered" x="56.3666666667" y="259.437473947">19.844</text><text class="centered" x="99.7256410256" y="260.256310935">19.779</text><text class="centered" x="143.084615385" y="247.026448873">20.817</text><text class="centered" x="186.443589744" y="211.545959705">23.601</text><text class="centered" x="229.802564103" y="286.463415958">17.724</text><text class="centered" x="273.161538462" y="287.103613206">17.673</text><text class="centered" x="316.520512821" y="108.446326919">31.689</text><text class="centered" x="359.879487179" y="158.30623223">27.777</text><text class="centered" x="403.238461538" y="132.738367285">29.783</text><text class="centered" x="446.597435897" y="107.053391858">31.798</text><text class="centered" x="489.956410256" y="18.0394595984">38.781</text><text class="centered" x="533.315384615" y="119.924138864">30.788</text><text class="centered" x="576.674358974" y="30.8137109359">37.779</text><text class="centered" x="620.033333333" y="31.2962614599">37.741</text><text class="centered" x="663.392307692" y="94.4124936775">32.79</text></g><g class="series serie-1 color-1"><text class="centered" x="13.0076923077" y="378.873175199">10.474</text><text class="centered" x="56.3666666667" y="262.19967964">19.627</text><text class="centered" x="99.7256410256" y="374.158005532">10.844</text><text class="centered" x="143.084615385" y="298.580222083">16.773</text><text class="centered" x="186.443589744" y="285.475515651">17.801</text><text class="centered" x="229.802564103" y="286.463415958">17.724</text><text class="centered" x="273.161538462" y="324.898554589">14.708</text><text class="centered" x="316.520512821" y="286.570548129">17.715</text><text class="centered" x="359.879487179" y="248.136064581">20.73</text><text class="centered" x="403.238461538" y="221.853479863">22.792</text><text class="centered" x="446.597435897" y="196.411130234">24.788</text><text class="centered" x="489.956410256" y="170.804329035">26.797</text><text class="centered" x="533.315384615" y="145.2463781">28.802</text><text class="centered" x="576.674358974" y="145.540050022">28.779</text><text class="centered" x="620.033333333" y="361.813634789">11.812</text><text class="centered" x="663.392307692" y="171.711069237">26.726</text></g><g class="series serie-2 color-2"><text class="centered" x="13.0076923077" y="470.397663098">3.294</text><text class="centered" x="56.3666666667" y="454.61781091">4.532</text><text class="centered" x="99.7256410256" y="338.114430467">13.672</text><text class="centered" x="143.084615385" y="300.444738937">16.627</text><text class="centered" x="186.443589744" y="272.328020853">18.832</text><text class="centered" x="229.802564103" y="361.326979055">11.851</text><text class="centered" x="273.161538462" y="287.103613206">17.673</text><text class="centered" x="316.520512821" y="221.137502529">22.848</text><text class="centered" x="359.879487179" y="310.521410017">15.836</text><text class="centered" x="403.238461538" y="210.080056515">23.716</text><text class="centered" x="446.597435897" y="298.96051929">16.743</text><text class="centered" x="489.956410256" y="234.704711495">21.784</text><text class="centered" x="533.315384615" y="183.812098914">25.776</text><text class="centered" x="576.674358974" y="196.350205553">24.793</text><text class="centered" x="620.033333333" y="222.008914819">22.78</text><text class="centered" x="663.392307692" y="221.485949586">22.821</text></g></g><g class="plot tooltip-overlay" transform="translate(48, 46)"><g id="tooltip" style="opacity: 0" transform="translate(0 0)"><a><rect height="0" id="tooltip-box" rx="5" ry="5" width="0"/><text class="text"><tspan class="label"/><tspan class="value"/></text></a></g></g><g class="legends" transform="translate(734, 56)"><g class="legend reactive activate-serie" id="activate-serie-0"><rect class="color-0 reactive" height="12" width="12" x="0.0" y="1.0"/><text x="17.0" y="11.2">Best</text></g><g class="legend reactive activate-serie" id="activate-serie-1"><rect class="color-1 reactive" height="12" width="12" x="0.0" y="22.0"/><text x="17.0" y="32.2">#1</text></g><g class="legend reactive activate-serie" id="activate-serie-2"><rect class="color-2 reactive" height="12" width="12" x="0.0" y="43.0"/><text x="17.0" y="53.2">#2</text></g></g><text class="title" x="386.2" y="26">Evolution</text></g></svg>