<?xml version='1.0' encoding='utf-8'?>
<svg xmlns:xlink="http://www.w3.org/1999/xlink" xmlns="http://www.w3.org/2000/svg" viewBox="0 0 800 600"><!--Generated with pygal 0.13.0 ©Kozea 2012 on 2013-03-13--><!--http://pygal.org--><!--http://github.com/Kozea/pygal--><defs><style type="text/css">.title{font-family:monospace;font-size:16px}.legends .legend text{font-family:monospace;font-size:14px}.axis text{font-family:monospace;font-size:15px}.series text{font-family:monospace;font-size:0px}#tooltip text{font-family:monospace;font-size:20px}text.no_data{font-size:64px}</style><style type="text/css">svg{background-color:black}svg path,svg line,svg rect,svg circle{-webkit-transition:1s ease-out;-moz-transition:1s ease-out;transition:1s ease-out}.graph &gt; .background{fill:black}.plot &gt; .background{fill:#111}.graph{fill:#999}text.no_data{fill:#eee}.title{fill:#eee}.legends .legend text{fill:#999}.legends .legend:hover text{fill:#eee}.axis .line{stroke:#eee}.axis .guide.line{stroke:#555}.axis .major.line{stroke:#999}.axis text.major{stroke:#eee;fill:#eee}.axis.y .guides:hover .guide.line,.line-graph .axis.x .guides:hover .guide.line,.stackedline-graph .axis.x .guides:hover .guide.line,.xy-graph .axis.x .guides:hover .guide.line{stroke:#eee}.axis .guides:hover text{fill:#eee}.reactive{fill-opacity:.1}.reactive.active,.active .reactive{fill-opacity:.75}.series text{fill:#eee}#tooltip rect{fill:#111;stroke:#eee}#tooltip text{fill:#eee}.color-0{stroke:#ff5995;fill:#ff5995}.color-1{stroke:#b6e354;fill:#b6e354}.color-2{stroke:#feed6c;fill:#feed6c}.color-3{stroke:#8cedff;fill:#8cedff}.color-4{stroke:#9e6ffe;fill:#9e6ffe}.color-5{stroke:#899ca1;fill:#899ca1}.color-6{stroke:#f8f8f2;fill:#f8f8f2}.color-7{stroke:#bf4646;fill:#bf4646}.color-8{stroke:#516083;fill:#516083}.color-9{stroke:#f92672;fill:#f92672}.color-10{stroke:#82b414;fill:#82b414}.color-11{stroke:#fd971f;fill:#fd971f}.color-12{stroke:#56c2d6;fill:#56c2d6}.color-13{stroke:#808384;fill:#808384}.color-14{stroke:#8c54fe;fill:#8c54fe}.color-15{stroke:#465457;fill:#465457}</style><style type="text/css">text.no_data{text-anchor:middle}.guide.line{fill-opacity:0}.centered{text-anchor:middle}.title{text-anchor:middle}.legends .legend text{fill-opacity:1}.axis.x text{text-anchor:middle}.axis.x:not(.web) text[transform]{text-anchor:start}.axis.y text{text-anchor:end}.axis.y .logarithmic text:not(.major){font-size:50%}.axis .guide.line{stroke-dasharray:4,4}.axis .major.guide.line{stroke-dasharray:6,6}.axis text.major{stroke-width:0.5px}.horizontal .axis.y .guide.line,.vertical .axis.x .guide.line{opacity:0}.axis.y .guides:hover .guide.line,.line-graph .axis.x .guides:hover .guide.line,.gauge-graph .axis.x .guides:hover .guide.line,.stackedline-graph .axis.x .guides:hover .guide.line,.xy-graph .axis.x .guides:hover .guide.line{opacity:1}.axis .guides:hover text{opacity:1}.nofill{fill:none}.dot{stroke-width:1px;fill-opacity:1}.dot.active{stroke-width:5px}.series text{stroke:none}.series text.active{opacity:1}#tooltip rect{fill-opacity:0.8}#tooltip text{fill-opacity:1}#tooltip text tspan.label{fill-opacity:.8}a:visited{fill:none}</style><script type="text/javascript">window.config = {"truncate_legend": null, "print_values": true, "tooltip_font_size": 20, "height": 600, "legend_at_bottom": false, "show_legend": true, "show_dots": true, "explicit_size": false, "legend_font_size": 14, "fill": true, "style": {"opacity": ".1", "foreground": "#999", "plot_background": "#111", "_colors": ["#ff5995", "#b6e354", "#feed6c", "#8cedff", "#9e6ffe", "#899ca1", "#f8f8f2", "#bf4646", "#516083", "#f92672", "#82b414", "#fd971f", "#56c2d6", "#808384", "#8c54fe", "#465457"], "foreground_light": "#eee", "transition": "1s ease-out", "foreground_dark": "#555", "colors": ".color-0 {\n  stroke: #ff5995;\n  fill: #ff5995;\n}\n\n.color-1 {\n  stroke: #b6e354;\n  fill: #b6e354;\n}\n\n.color-2 {\n  stroke: #feed6c;\n  fill: #feed6c;\n}\n\n.color-3 {\n  stroke: #8cedff;\n  fill: #8cedff;\n}\n\n.color-4 {\n  stroke: #9e6ffe;\n  fill: #9e6ffe;\n}\n\n.color-5 {\n  stroke: #899ca1;\n  fill: #899ca1;\n}\n\n.color-6 {\n  stroke: #f8f8f2;\n  fill: #f8f8f2;\n}\n\n.color-7 {\n  stroke: #bf4646;\n  fill: #bf4646;\n}\n\n.color-8 {\n  stroke: #516083;\n  fill: #516083;\n}\n\n.color-9 {\n  stroke: #f92672;\n  fill: #f92672;\n}\n\n.color-10 {\n  stroke: #82b414;\n  fill: #82b414;\n}\n\n.color-11 {\n  stroke: #fd971f;\n  fill: #fd971f;\n}\n\n.color-12 {\n  stroke: #56c2d6;\n  fill: #56c2d6;\n}\n\n.color-13 {\n  stroke: #808384;\n  fill: #808384;\n}\n\n.color-14 {\n  stroke: #8c54fe;\n  fill: #8c54fe;\n}\n\n.color-15 {\n  stroke: #465457;\n  fill: #465457;\n}\n", "background": "black", "opacity_hover": ".75"}, "zero": 0, "title": "Evolution", "rounded_bars": null, "label_font_size": 15, "strict": false, "x_label_rotation": 0, "x_labels": ["0", "3", "6", "9", "12", "15", "18", "21", "24", "27", "30", "33", "36", "39", "42", "45", "48", "51", "54", "57", "60"], "value_font_size": 0, "disable_xml_declaration": false, "css": ["style.css", "graph.css"], "human_readable": true, "y_label_rotation": 0, "pretty_print": false, "interpolate": "cubic", "js": ["https://raw.github.com/Kozea/pygal.js/master/svg.jquery.js", "https://raw.github.com/Kozea/pygal.js/master/pygal-tooltips.js"], "y_labels": null, "interpolation_precision": 250, "no_data_font_size": 64, "logarithmic": false, "print_zeroes": false, "no_data_text": "No data", "legend_box_size": 12, "stroke": true, "include_x_axis": false, "range": null, "truncate_label": null, "order_min": null, "title_font_size": 16, "width": 800}</script><script type="text/javascript" xlink:href="https://raw.github.com/Kozea/pygal.js/master/svg.jquery.js"/><script type="text/javascript" xlink:href="https://raw.github.com/Kozea/pygal.js/master/pygal-tooltips.js"/></defs><g class="graph line-graph vertical"><rect class="background" height="600" width="800" x="0" y="0"/><g class="plot" transform="translate(48, 46)"><rect class="background" height="509" width="634.4" x="0" y="0"/><g class="axis x"><g class="guides"><path class="major line" d="M12.200000 0.000000 v509.000000"/><text class="major" x="12.2" y="526.5">0</text></g><g class="guides"><path class="guide line" d="M42.700000 0.000000 v509.000000"/><text class="" x="42.7" y="526.5">3</text></g><g class="guides"><path class="major guide line" d="M73.200000 0.000000 v509.000000"/><text class="major" x="73.2" y="526.5">6</text></g><g class="guides"><path class="guide line" d="M103.700000 0.000000 v509.000000"/><text class="" x="103.7" y="526.5">9</text></g><g class="guides"><path class="guide line" d="M134.200000 0.000000 v509.000000"/><text class="" x="134.2" y="526.5">12</text></g><g class="guides"><path class="guide line" d="M164.700000 0.000000 v509.000000"/><text class="" x="164.7" y="526.5">15</text></g><g class="guides"><path class="guide line" d="M195.200000 0.000000 v509.000000"/><text class="" x="195.2" y="526.5">18</text></g><g class="guides"><path class="guide line" d="M225.700000 0.000000 v509.000000"/><text class="" x="225.7" y="526.5">21</text></g><g class="guides"><path class="guide line" d="M256.200000 0.000000 v509.000000"/><text class="" x="256.2" y="526.5">24</text></g><g class="guides"><path class="guide line" d="M286.700000 0.000000 v509.000000"/><text class="" x="286.7" y="526.5">27</text></g><g class="guides"><path class="guide line" d="M317.200000 0.000000 v509.000000"/><text class="" x="317.2" y="526.5">30</text></g><g class="guides"><path class="guide line" d="M347.700000 0.000000 v509.000000"/><text class="" x="347.7" y="526.5">33</text></g><g class="guides"><path class="guide line" d="M378.200000 0.000000 v509.000000"/><text class="" x="378.2" y="526.5">36</text></g><g class="guides"><path class="guide line" d="M408.700000 0.000000 v509.000000"/><text class="" x="408.7" y="526.5">39</text></g><g class="guides"><path class="guide line" d="M439.200000 0.000000 v509.000000"/><text class="" x="439.2" y="526.5">42</text></g><g class="guides"><path class="guide line" d="M469.700000 0.000000 v509.000000"/><text class="" x="469.7" y="526.5">45</text></g><g class="guides"><path class="guide line" d="M500.200000 0.000000 v509.000000"/><text class="" x="500.2" y="526.5">48</text></g><g class="guides"><path class="guide line" d="M530.700000 0.000000 v509.000000"/><text class="" x="530.7" y="526.5">51</text></g><g class="guides"><path class="guide line" d="M561.200000 0.000000 v509.000000"/><text class="" x="561.2" y="526.5">54</text></g><g class="guides"><path class="guide line" d="M591.700000 0.000000 v509.000000"/><text class="" x="591.7" y="526.5">57</text></g><g class="guides"><path class="major guide line" d="M622.200000 0.000000 v509.000000"/><text class="major" x="622.2" y="526.5">60</text></g></g><g class="axis y"><g class="guides"><path class="major line" d="M0.000000 483.572788 h634.400000"/><text class="major" x="-5" y="488.822788386">0</text></g><g class="guides"><path class="major guide line" d="M0.000000 399.227899 h634.400000"/><text class="major" x="-5" y="404.477899155">10</text></g><g class="guides"><path class="guide line" d="M0.000000 314.883010 h634.400000"/><text class="" x="-5" y="320.133009923">20</text></g><g class="guides"><path class="guide line" d="M0.000000 230.538121 h634.400000"/><text class="" x="-5" y="235.788120692">30</text></g><g class="guides"><path class="guide line" d="M0.000000 146.193231 h634.400000"/><text class="" x="-5" y="151.44323146">40</text></g><g class="guides"><path class="guide line" d="M0.000000 61.848342 h634.400000"/><text class="" x="-5" y="67.0983422289">50</text></g></g><g class="series serie-0 color-0"><path class="line reactive" d="M12.200000 483.572788 L12.200000 382.358921 14.640000 382.536764 17.080000 381.785127 19.520000 380.226624 21.960000 377.983872 24.400000 375.179485 26.840000 371.936079 29.280000 368.376270 31.720000 364.622671 34.160000 360.797900 36.600000 357.024570 39.040000 353.425297 41.480000 350.122696 43.920000 347.236737 46.360000 344.826512 48.800000 342.890242 51.240000 341.423498 53.680000 340.421853 56.120000 339.880880 58.560000 339.796151 61.000000 340.163238 63.440000 340.977715 65.880000 342.235154 68.320000 343.931127 70.760000 346.061207 73.200000 348.620966 75.640000 351.563319 78.080000 354.670555 80.520000 357.682303 82.960000 360.338193 85.400000 362.377856 87.840000 363.540921 90.280000 363.567019 92.720000 362.195779 95.160000 359.166833 97.600000 354.219810 100.040000 347.094340 102.480000 337.530053 104.920000 325.280838 107.360000 310.428536 109.800000 293.382935 112.240000 274.568085 114.680000 254.408035 117.120000 233.326834 119.560000 211.748530 122.000000 190.097173 124.440000 168.796812 126.880000 148.271494 129.320000 128.945270 131.760000 111.242189 134.200000 95.586298 136.640000 82.307591 139.080000 71.359836 141.520000 62.602744 143.960000 55.896028 146.400000 51.099398 148.840000 48.072567 151.280000 46.675246 153.720000 46.767147 156.160000 48.207981 158.600000 50.857461 161.040000 54.575298 163.480000 59.221204 165.920000 64.653111 168.360000 70.688054 170.800000 77.102164 173.240000 83.669794 175.680000 90.165299 178.120000 96.363032 180.560000 102.037347 183.000000 106.962599 185.440000 110.913139 187.880000 113.663324 190.320000 114.987506 192.760000 114.660038 195.200000 112.455276 197.640000 108.246712 200.080000 102.304400 202.520000 94.997535 204.960000 86.695309 207.400000 77.766916 209.840000 68.581550 212.280000 59.508404 214.720000 50.916673 217.160000 43.175549 219.600000 36.654227 222.040000 31.721900 224.480000 28.747762 226.920000 28.087222 229.360000 29.778662 231.800000 33.543436 234.240000 39.089112 236.680000 46.123260 239.120000 54.353450 241.560000 63.487250 244.000000 73.232230 246.440000 83.295961 248.880000 93.386010 251.320000 103.209947 253.760000 112.475342 256.200000 120.889765 258.640000 128.217708 261.080000 134.451365 263.520000 139.639853 265.960000 143.832288 268.400000 147.077788 270.840000 149.425470 273.280000 150.924451 275.720000 151.623848 278.160000 151.572778 280.600000 150.820357 283.040000 149.415704 285.480000 147.407935 287.920000 144.848223 290.360000 141.835018 292.800000 138.514049 295.240000 135.033099 297.680000 131.539952 300.120000 128.182393 302.560000 125.108205 305.000000 122.465171 307.440000 120.401077 309.880000 119.063705 312.320000 118.600840 314.760000 119.160265 317.200000 120.889765 319.640000 123.861923 322.080000 127.848527 324.520000 132.546163 326.960000 137.651420 329.400000 142.860883 331.840000 147.871140 334.280000 152.378779 336.720000 156.080386 339.160000 158.672548 341.600000 159.851854 344.040000 159.314889 346.480000 156.758242 348.920000 151.894070 351.360000 144.792672 353.800000 135.882486 356.240000 125.607522 358.680000 114.411789 361.120000 102.739295 363.560000 91.034052 366.000000 79.740068 368.440000 69.301352 370.880000 60.161915 373.320000 52.765765 375.760000 47.556911 378.200000 44.979364 380.640000 45.330432 383.080000 48.320621 385.520000 53.513736 387.960000 60.473582 390.400000 68.763964 392.840000 77.948688 395.280000 87.591558 397.720000 97.256379 400.160000 106.506958 402.600000 114.907098 405.040000 122.020606 407.480000 127.411285 409.920000 130.656997 412.360000 131.658858 414.800000 130.641242 417.240000 127.842580 419.680000 123.501300 422.120000 117.855832 424.560000 111.144605 427.000000 103.606048 429.440000 95.478590 431.880000 87.000662 434.320000 78.410691 436.760000 69.947108 439.200000 61.848342 441.640000 54.313199 444.080000 47.381995 446.520000 41.055422 448.960000 35.334174 451.400000 30.218942 453.840000 25.710420 456.280000 21.809299 458.720000 18.516274 461.160000 15.832037 463.600000 13.757280 466.040000 12.292695 468.480000 11.438977 470.920000 11.196636 473.360000 11.562016 475.800000 12.527297 478.240000 14.084474 480.680000 16.225544 483.120000 18.942503 485.560000 22.227349 488.000000 26.072079 490.440000 30.468687 492.880000 35.409173 495.320000 40.885531 497.760000 46.889759 500.200000 53.413853 502.640000 60.421817 505.080000 67.765678 507.520000 75.269472 509.960000 82.757233 512.400000 90.052995 514.840000 96.980794 517.280000 103.364664 519.720000 109.028639 522.160000 113.796755 524.600000 117.493045 527.040000 119.941546 529.480000 120.966290 531.920000 120.400093 534.360000 118.277709 536.800000 114.835827 539.240000 110.319919 541.680000 104.975457 544.120000 99.047912 546.560000 92.782754 549.000000 86.425456 551.440000 80.221488 553.880000 74.416321 556.320000 69.255427 558.760000 64.984277 561.200000 61.848342 563.640000 60.034460 566.080000 59.494935 568.520000 60.123438 570.960000 61.813639 573.400000 64.459210 575.840000 67.953821 578.280000 72.191143 580.720000 77.064847 583.160000 82.468603 585.600000 88.296083 588.040000 94.440957 590.480000 100.796896 592.920000 107.254896 595.360000 113.644428 597.800000 119.733442 600.240000 125.287212 602.680000 130.071010 605.120000 133.850111 607.560000 136.389788 610.000000 137.455315 612.440000 136.811966 614.880000 134.225013 617.320000 129.459732 619.760000 122.281395 622.200000 112.455276 622.200000 483.572788"/></g><g class="series serie-1 color-1"><path class="line reactive" d="M12.200000 483.572788 L12.200000 483.572788 14.640000 482.665243 17.080000 479.318119 19.520000 473.837666 21.960000 466.530133 24.400000 457.701766 26.840000 447.658816 29.280000 436.707530 31.720000 425.154157 34.160000 413.304944 36.600000 401.466142 39.040000 389.943997 41.480000 379.044759 43.920000 369.069251 46.360000 360.193528 48.800000 352.468877 51.240000 345.941160 53.680000 340.656239 56.120000 336.659976 58.560000 333.998233 61.000000 332.716872 63.440000 332.861755 65.880000 334.478744 68.320000 337.613701 70.760000 342.312487 73.200000 348.620966 75.640000 356.491420 78.080000 365.501821 80.520000 375.136561 82.960000 384.880034 85.400000 394.216632 87.840000 402.630749 90.280000 409.606777 92.720000 414.629109 95.160000 417.182138 97.600000 416.750256 100.040000 412.817858 102.480000 404.869335 104.920000 392.414303 107.360000 375.542520 109.800000 354.923878 112.240000 331.253497 114.680000 305.226495 117.120000 277.537990 119.560000 248.883100 122.000000 219.956943 124.440000 191.454638 126.880000 164.071303 129.320000 138.502055 131.760000 115.442014 134.200000 95.586298 136.640000 79.456259 139.080000 66.878193 141.520000 57.504629 143.960000 50.988097 146.400000 46.981127 148.840000 45.136248 151.280000 45.105990 153.720000 46.542882 156.160000 49.099455 158.600000 52.428238 161.040000 56.181762 163.480000 60.012554 165.920000 63.582984 168.360000 66.781678 170.800000 69.723526 173.240000 72.533254 175.680000 75.335589 178.120000 78.255257 180.560000 81.416984 183.000000 84.945498 185.440000 88.965523 187.880000 93.601787 190.320000 98.979016 192.760000 105.221937 195.200000 112.455276 197.640000 120.749095 200.080000 129.954801 202.520000 139.869139 204.960000 150.288849 207.400000 161.010677 209.840000 171.831365 212.280000 182.547656 214.720000 192.956293 217.160000 202.854020 219.600000 212.037579 222.040000 220.303714 224.480000 227.449167 226.920000 233.276301 229.360000 237.716709 231.800000 240.831216 234.240000 242.686263 236.680000 243.348294 239.120000 242.883753 241.560000 241.359082 244.000000 238.840725 246.440000 235.395123 248.880000 231.088721 251.320000 225.987962 253.760000 220.159288 256.200000 213.669143 258.640000 206.605661 261.080000 199.143742 263.520000 191.479980 265.960000 183.810966 268.400000 176.333292 270.840000 169.243550 273.280000 162.738333 275.720000 157.014233 278.160000 152.267842 280.600000 148.695752 283.040000 146.494556 285.480000 145.860845 287.920000 146.981225 290.360000 149.812604 292.800000 154.082194 295.240000 159.507219 297.680000 165.804906 300.120000 172.692477 302.560000 179.887158 305.000000 187.106174 307.440000 194.066750 309.880000 200.486110 312.320000 206.081479 314.760000 210.570082 317.200000 213.669143 319.640000 215.169214 322.080000 215.154156 324.520000 213.781153 326.960000 211.207392 329.400000 207.590060 331.840000 203.086342 334.280000 197.853425 336.720000 192.048495 339.160000 185.828739 341.600000 179.351342 344.040000 172.773492 346.480000 166.252373 348.920000 159.942788 351.360000 153.944675 353.800000 148.303110 356.240000 143.060786 358.680000 138.260393 361.120000 133.944623 363.560000 130.156168 366.000000 126.937719 368.440000 124.331968 370.880000 122.381605 373.320000 121.129323 375.760000 120.617812 378.200000 120.889765 380.640000 121.973601 383.080000 123.840659 385.520000 126.448003 387.960000 129.752701 390.400000 133.711818 392.840000 138.282421 395.280000 143.421576 397.720000 149.086349 400.160000 155.233806 402.600000 161.821013 405.040000 168.805037 407.480000 176.142944 409.920000 183.786746 412.360000 191.572212 414.800000 199.218868 417.240000 206.441185 419.680000 212.953636 422.120000 218.470692 424.560000 222.706824 427.000000 225.376506 429.440000 226.194207 431.880000 224.874401 434.320000 221.131559 436.760000 214.680153 439.200000 205.234654 441.640000 192.659624 444.080000 177.419984 446.520000 160.130743 448.960000 141.406912 451.400000 121.863502 453.840000 102.115522 456.280000 82.777982 458.720000 64.465893 461.160000 47.794266 463.600000 33.378109 466.040000 21.832434 468.480000 13.772250 470.920000 9.788462 473.360000 9.917505 475.800000 13.641352 478.240000 20.417868 480.680000 29.704916 483.120000 40.960363 485.560000 53.642072 488.000000 67.207908 490.440000 81.115735 492.880000 94.823419 495.320000 107.788823 497.760000 119.469813 500.200000 129.324254 502.640000 136.939045 505.080000 142.417234 507.520000 145.990904 509.960000 147.892137 512.400000 148.353018 514.840000 147.605629 517.280000 145.882053 519.720000 143.414372 522.160000 140.434672 524.600000 137.175033 527.040000 133.867540 529.480000 130.744275 531.920000 128.031458 534.360000 125.820452 536.800000 124.067763 539.240000 122.724035 541.680000 121.739910 544.120000 121.066030 546.560000 120.653040 549.000000 120.451581 551.440000 120.412297 553.880000 120.485830 556.320000 120.622824 558.760000 120.773921 561.200000 120.889765 563.640000 120.936403 566.080000 120.941508 568.520000 120.948157 570.960000 120.999428 573.400000 121.138399 575.840000 121.408147 578.280000 121.851750 580.720000 122.512285 583.160000 123.432831 585.600000 124.656464 588.040000 126.226263 590.480000 128.185305 592.920000 130.578067 595.360000 133.481209 597.800000 137.003575 600.240000 141.255410 602.680000 146.346956 605.120000 152.388456 607.560000 159.490154 610.000000 167.762292 612.440000 177.315116 614.880000 188.258867 617.320000 200.703789 619.760000 214.760126 622.200000 230.538121 622.200000 483.572788"/></g><g class="series serie-2 color-2"><path class="line reactive" d="M12.200000 483.572788 L12.200000 483.572788 14.640000 489.846962 17.080000 494.448982 19.520000 497.477791 21.960000 499.032330 24.400000 499.211538 26.840000 498.114358 29.280000 495.839730 31.720000 492.486594 34.160000 488.153893 36.600000 482.940565 39.040000 476.945554 41.480000 470.267798 43.920000 463.006185 46.360000 455.258341 48.800000 447.120635 51.240000 438.689378 53.680000 430.060884 56.120000 421.331466 58.560000 412.597436 61.000000 403.955108 63.440000 395.500795 65.880000 387.330809 68.320000 379.541463 70.760000 372.229070 73.200000 365.489943 75.640000 359.401377 78.080000 353.964591 80.520000 349.161786 82.960000 344.975163 85.400000 341.386922 87.840000 338.379266 90.280000 335.934395 92.720000 334.034509 95.160000 332.661810 97.600000 331.798499 100.040000 331.426777 102.480000 331.528845 104.920000 332.082972 107.360000 332.977014 109.800000 334.008408 112.240000 334.970664 114.680000 335.657289 117.120000 335.861790 119.560000 335.377677 122.000000 333.998456 124.440000 331.517636 126.880000 327.728724 129.320000 322.425229 131.760000 315.400659 134.200000 306.448521 136.640000 295.459634 139.080000 282.714062 141.520000 268.589177 143.960000 253.462355 146.400000 237.710968 148.840000 221.712390 151.280000 205.843995 153.720000 190.483158 156.160000 176.007251 158.600000 162.793649 161.040000 151.219726 163.480000 141.662854 165.920000 134.487533 168.360000 129.762118 170.800000 127.258823 173.240000 126.736984 175.680000 127.955940 178.120000 130.675028 180.560000 134.653585 183.000000 139.650950 185.440000 145.426460 187.880000 151.739452 190.320000 158.349264 192.760000 165.015234 195.200000 171.496698 197.640000 177.582691 200.080000 183.181023 202.520000 188.229202 204.960000 192.664735 207.400000 196.425130 209.840000 199.447893 212.280000 201.670531 214.720000 203.030552 217.160000 203.465462 219.600000 202.912770 222.040000 201.309981 224.480000 198.594604 226.920000 194.711889 229.360000 189.785221 231.800000 184.116112 234.240000 178.013822 236.680000 171.787608 239.120000 165.746731 241.560000 160.200448 244.000000 155.458018 246.440000 151.828701 248.880000 149.621753 251.320000 149.146435 253.760000 150.712004 256.200000 154.627720 258.640000 161.063503 261.080000 169.631918 263.520000 179.806191 265.960000 191.059551 268.400000 202.865224 270.840000 214.696436 273.280000 226.026416 275.720000 236.328389 278.160000 245.075582 280.600000 251.741224 283.040000 255.798540 285.480000 256.720757 287.920000 254.005241 290.360000 247.704530 292.800000 238.426335 295.240000 226.802507 297.680000 213.464895 300.120000 199.045349 302.560000 184.175719 305.000000 169.487855 307.440000 155.613607 309.880000 143.184823 312.320000 132.833356 314.760000 125.191053 317.200000 120.889765 319.640000 120.351474 322.080000 123.158691 324.520000 128.684060 326.960000 136.300224 329.400000 145.379827 331.840000 155.295512 334.280000 165.419923 336.720000 175.125704 339.160000 183.785497 341.600000 190.771946 344.040000 195.457696 346.480000 197.215389 348.920000 195.444484 351.360000 190.161188 353.800000 181.998457 356.240000 171.616062 358.680000 159.673773 361.120000 146.831363 363.560000 133.748600 366.000000 121.085257 368.440000 109.501104 370.880000 99.655911 373.320000 92.209451 375.760000 87.821493 378.200000 87.151809 380.640000 90.635161 383.080000 97.806278 385.520000 107.974883 387.960000 120.450696 390.400000 134.543438 392.840000 149.562831 395.280000 164.818597 397.720000 179.620456 400.160000 193.278130 402.600000 205.101340 405.040000 214.399807 407.480000 220.483254 409.920000 222.687170 412.360000 220.939768 414.800000 215.761974 417.240000 207.700488 419.680000 197.302010 422.120000 185.113237 424.560000 171.680869 427.000000 157.551604 429.440000 143.272142 431.880000 129.389182 434.320000 116.449421 436.760000 104.999561 439.200000 95.586298 441.640000 88.627401 444.080000 84.024911 446.520000 81.551937 448.960000 80.981590 451.400000 82.086980 453.840000 84.641215 456.280000 88.417406 458.720000 93.188663 461.160000 98.728096 463.600000 104.808814 466.040000 111.203927 468.480000 117.686545 470.920000 124.033925 473.360000 130.118723 475.800000 135.908991 478.240000 141.376931 480.680000 146.494743 483.120000 151.234627 485.560000 155.568784 488.000000 159.469415 490.440000 162.908720 492.880000 165.858901 495.320000 168.292157 497.760000 170.180689 500.200000 171.496698 502.640000 172.217226 505.080000 172.338680 507.520000 171.862307 509.960000 170.789355 512.400000 169.121073 514.840000 166.858707 517.280000 164.003506 519.720000 160.556719 522.160000 156.519592 524.600000 151.893374 527.040000 146.679312 529.480000 140.878655 531.920000 134.495798 534.360000 127.607546 536.800000 120.363113 539.240000 112.914861 541.680000 105.415150 544.120000 98.016342 546.560000 90.870798 549.000000 84.130881 551.440000 77.948952 553.880000 72.477372 556.320000 67.868502 558.760000 64.274705 561.200000 61.848342 563.640000 60.700968 566.080000 60.780910 568.520000 61.995689 570.960000 64.252826 573.400000 67.459843 575.840000 71.524261 578.280000 76.353599 580.720000 81.855380 583.160000 87.937125 585.600000 94.506353 588.040000 101.470587 590.480000 108.737348 592.920000 116.212518 595.360000 123.764304 597.800000 131.223237 600.240000 138.418212 602.680000 145.178121 605.120000 151.331857 607.560000 156.708314 610.000000 161.136385 612.440000 164.444963 614.880000 166.462941 617.320000 167.019213 619.760000 165.942671 622.200000 163.062209 622.200000 483.572788"/></g></g><g class="plot overlay" transform="translate(48, 46)"><g class="series serie-0 color-0"><g class="dots"><circle class="dot reactive tooltip-trigger" cx="12.2" cy="382.358921308" r="2.5"/><desc class="value">12</desc><desc class="x top">12.2</desc><desc class="y top">382.358921308</desc></g><g class="dots"><circle class="dot reactive tooltip-trigger" cx="42.7" cy="348.620965616" r="2.5"/><desc class="value">16</desc><desc class="x top">42.7</desc><desc class="y top">348.620965616</desc></g><g class="dots"><circle class="dot reactive tooltip-trigger" cx="73.2" cy="348.620965616" r="2.5"/><desc class="value">16</desc><desc class="x top">73.2</desc><desc class="y top">348.620965616</desc></g><g class="dots"><circle class="dot reactive tooltip-trigger" cx="103.7" cy="331.751987769" r="2.5"/><desc class="value">18</desc><desc class="x top">103.7</desc><desc class="y top">331.751987769</desc></g><g class="dots"><circle class="dot reactive tooltip-trigger" cx="134.2" cy="95.5862979215" r="2.5"/><desc class="value">46</desc><desc class="x ">134.2</desc><desc class="y ">95.5862979215</desc></g><g class="dots"><circle class="dot reactive tooltip-trigger" cx="164.7" cy="61.8483422289" r="2.5"/><desc class="value">50</desc><desc class="x ">164.7</desc><desc class="y ">61.8483422289</desc></g><g class="dots"><circle class="dot reactive tooltip-trigger" cx="195.2" cy="112.455275768" r="2.5"/><desc class="value">44</desc><desc class="x ">195.2</desc><desc class="y ">112.455275768</desc></g><g class="dots"><circle class="dot reactive tooltip-trigger" cx="225.7" cy="28.1103865363" r="2.5"/><desc class="value">54</desc><desc class="x ">225.7</desc><desc class="y ">28.1103865363</desc></g><g class="dots"><circle class="dot reactive tooltip-trigger" cx="256.2" cy="120.889764691" r="2.5"/><desc class="value">43</desc><desc class="x ">256.2</desc><desc class="y ">120.889764691</desc></g><g class="dots"><circle class="dot reactive tooltip-trigger" cx="286.7" cy="146.19323146" r="2.5"/><desc class="value">40</desc><desc class="x ">286.7</desc><desc class="y ">146.19323146</desc></g><g class="dots"><circle class="dot reactive tooltip-trigger" cx="317.2" cy="120.889764691" r="2.5"/><desc class="value">43</desc><desc class="x ">317.2</desc><desc class="y ">120.889764691</desc></g><g class="dots"><circle class="dot reactive tooltip-trigger" cx="347.7" cy="154.627720383" r="2.5"/><desc class="value">39</desc><desc class="x left">347.7</desc><desc class="y left">154.627720383</desc></g><g class="dots"><circle class="dot reactive tooltip-trigger" cx="378.2" cy="44.9793643826" r="2.5"/><desc class="value">52</desc><desc class="x left">378.2</desc><desc class="y left">44.9793643826</desc></g><g class="dots"><circle class="dot reactive tooltip-trigger" cx="408.7" cy="129.324253614" r="2.5"/><desc class="value">42</desc><desc class="x left">408.7</desc><desc class="y left">129.324253614</desc></g><g class="dots"><circle class="dot reactive tooltip-trigger" cx="439.2" cy="61.8483422289" r="2.5"/><desc class="value">50</desc><desc class="x left">439.2</desc><desc class="y left">61.8483422289</desc></g><g class="dots"><circle class="dot reactive tooltip-trigger" cx="469.7" cy="11.24140869" r="2.5"/><desc class="value">56</desc><desc class="x left">469.7</desc><desc class="y left">11.24140869</desc></g><g class="dots"><circle class="dot reactive tooltip-trigger" cx="500.2" cy="53.4138533058" r="2.5"/><desc class="value">51</desc><desc class="x left">500.2</desc><desc class="y left">53.4138533058</desc></g><g class="dots"><circle class="dot reactive tooltip-trigger" cx="530.7" cy="120.889764691" r="2.5"/><desc class="value">43</desc><desc class="x left">530.7</desc><desc class="y left">120.889764691</desc></g><g class="dots"><circle class="dot reactive tooltip-trigger" cx="561.2" cy="61.8483422289" r="2.5"/><desc class="value">50</desc><desc class="x left">561.2</desc><desc class="y left">61.8483422289</desc></g><g class="dots"><circle class="dot reactive tooltip-trigger" cx="591.7" cy="104.020786845" r="2.5"/><desc class="value">45</desc><desc class="x left">591.7</desc><desc class="y left">104.020786845</desc></g><g class="dots"><circle class="dot reactive tooltip-trigger" cx="622.2" cy="112.455275768" r="2.5"/><desc class="value">44</desc><desc class="x left">622.2</desc><desc class="y left">112.455275768</desc></g></g><g class="series serie-1 color-1"><g class="dots"><circle class="dot reactive tooltip-trigger" cx="12.2" cy="483.572788386" r="2.5"/><desc class="value">0</desc><desc class="x top">12.2</desc><desc class="y top">483.572788386</desc></g><g class="dots"><circle class="dot reactive tooltip-trigger" cx="42.7" cy="373.924432385" r="2.5"/><desc class="value">13</desc><desc class="x top">42.7</desc><desc class="y top">373.924432385</desc></g><g class="dots"><circle class="dot reactive tooltip-trigger" cx="73.2" cy="348.620965616" r="2.5"/><desc class="value">16</desc><desc class="x top">73.2</desc><desc class="y top">348.620965616</desc></g><g class="dots"><circle class="dot reactive tooltip-trigger" cx="103.7" cy="399.227899155" r="2.5"/><desc class="value">10</desc><desc class="x top">103.7</desc><desc class="y top">399.227899155</desc></g><g class="dots"><circle class="dot reactive tooltip-trigger" cx="134.2" cy="95.5862979215" r="2.5"/><desc class="value">46</desc><desc class="x ">134.2</desc><desc class="y ">95.5862979215</desc></g><g class="dots"><circle class="dot reactive tooltip-trigger" cx="164.7" cy="61.8483422289" r="2.5"/><desc class="value">50</desc><desc class="x ">164.7</desc><desc class="y ">61.8483422289</desc></g><g class="dots"><circle class="dot reactive tooltip-trigger" cx="195.2" cy="112.455275768" r="2.5"/><desc class="value">44</desc><desc class="x ">195.2</desc><desc class="y ">112.455275768</desc></g><g class="dots"><circle class="dot reactive tooltip-trigger" cx="225.7" cy="230.538120692" r="2.5"/><desc class="value">30</desc><desc class="x ">225.7</desc><desc class="y ">230.538120692</desc></g><g class="dots"><circle class="dot reactive tooltip-trigger" cx="256.2" cy="213.669142845" r="2.5"/><desc class="value">32</desc><desc class="x ">256.2</desc><desc class="y ">213.669142845</desc></g><g class="dots"><circle class="dot reactive tooltip-trigger" cx="286.7" cy="146.19323146" r="2.5"/><desc class="value">40</desc><desc class="x ">286.7</desc><desc class="y ">146.19323146</desc></g><g class="dots"><circle class="dot reactive tooltip-trigger" cx="317.2" cy="213.669142845" r="2.5"/><desc class="value">32</desc><desc class="x ">317.2</desc><desc class="y ">213.669142845</desc></g><g class="dots"><circle class="dot reactive tooltip-trigger" cx="347.7" cy="163.062209307" r="2.5"/><desc class="value">38</desc><desc class="x left">347.7</desc><desc class="y left">163.062209307</desc></g><g class="dots"><circle class="dot reactive tooltip-trigger" cx="378.2" cy="120.889764691" r="2.5"/><desc class="value">43</desc><desc class="x left">378.2</desc><desc class="y left">120.889764691</desc></g><g class="dots"><circle class="dot reactive tooltip-trigger" cx="408.7" cy="179.931187153" r="2.5"/><desc class="value">36</desc><desc class="x left">408.7</desc><desc class="y left">179.931187153</desc></g><g class="dots"><circle class="dot reactive tooltip-trigger" cx="439.2" cy="205.234653922" r="2.5"/><desc class="value">33</desc><desc class="x left">439.2</desc><desc class="y left">205.234653922</desc></g><g class="dots"><circle class="dot reactive tooltip-trigger" cx="469.7" cy="11.24140869" r="2.5"/><desc class="value">56</desc><desc class="x left">469.7</desc><desc class="y left">11.24140869</desc></g><g class="dots"><circle class="dot reactive tooltip-trigger" cx="500.2" cy="129.324253614" r="2.5"/><desc class="value">42</desc><desc class="x left">500.2</desc><desc class="y left">129.324253614</desc></g><g class="dots"><circle class="dot reactive tooltip-trigger" cx="530.7" cy="129.324253614" r="2.5"/><desc class="value">42</desc><desc class="x left">530.7</desc><desc class="y left">129.324253614</desc></g><g class="dots"><circle class="dot reactive tooltip-trigger" cx="561.2" cy="120.889764691" r="2.5"/><desc class="value">43</desc><desc class="x left">561.2</desc><desc class="y left">120.889764691</desc></g><g class="dots"><circle class="dot reactive tooltip-trigger" cx="591.7" cy="129.324253614" r="2.5"/><desc class="value">42</desc><desc class="x left">591.7</desc><desc class="y left">129.324253614</desc></g><g class="dots"><circle class="dot reactive tooltip-trigger" cx="622.2" cy="230.538120692" r="2.5"/><desc class="value">30</desc><desc class="x left">622.2</desc><desc class="y left">230.538120692</desc></g></g><g class="series serie-2 color-2"><g class="dots"><circle class="dot reactive tooltip-trigger" cx="12.2" cy="483.572788386" r="2.5"/><desc class="value">0</desc><desc class="x top">12.2</desc><desc class="y top">483.572788386</desc></g><g class="dots"><circle class="dot reactive tooltip-trigger" cx="42.7" cy="466.70381054" r="2.5"/><desc class="value">2</desc><desc class="x top">42.7</desc><desc class="y top">466.70381054</desc></g><g class="dots"><circle class="dot reactive tooltip-trigger" cx="73.2" cy="365.489943462" r="2.5"/><desc class="value">14</desc><desc class="x top">73.2</desc><desc class="y top">365.489943462</desc></g><g class="dots"><circle class="dot reactive tooltip-trigger" cx="103.7" cy="331.751987769" r="2.5"/><desc class="value">18</desc><desc class="x top">103.7</desc><desc class="y top">331.751987769</desc></g><g class="dots"><circle class="dot reactive tooltip-trigger" cx="134.2" cy="306.448521" r="2.5"/><desc class="value">21</desc><desc class="x top">134.2</desc><desc class="y top">306.448521</desc></g><g class="dots"><circle class="dot reactive tooltip-trigger" cx="164.7" cy="137.758742537" r="2.5"/><desc class="value">41</desc><desc class="x ">164.7</desc><desc class="y ">137.758742537</desc></g><g class="dots"><circle class="dot reactive tooltip-trigger" cx="195.2" cy="171.49669823" r="2.5"/><desc class="value">37</desc><desc class="x ">195.2</desc><desc class="y ">171.49669823</desc></g><g class="dots"><circle class="dot reactive tooltip-trigger" cx="225.7" cy="196.800164999" r="2.5"/><desc class="value">34</desc><desc class="x ">225.7</desc><desc class="y ">196.800164999</desc></g><g class="dots"><circle class="dot reactive tooltip-trigger" cx="256.2" cy="154.627720383" r="2.5"/><desc class="value">39</desc><desc class="x ">256.2</desc><desc class="y ">154.627720383</desc></g><g class="dots"><circle class="dot reactive tooltip-trigger" cx="286.7" cy="255.841587461" r="2.5"/><desc class="value">27</desc><desc class="x top">286.7</desc><desc class="y top">255.841587461</desc></g><g class="dots"><circle class="dot reactive tooltip-trigger" cx="317.2" cy="120.889764691" r="2.5"/><desc class="value">43</desc><desc class="x ">317.2</desc><desc class="y ">120.889764691</desc></g><g class="dots"><circle class="dot reactive tooltip-trigger" cx="347.7" cy="196.800164999" r="2.5"/><desc class="value">34</desc><desc class="x left">347.7</desc><desc class="y left">196.800164999</desc></g><g class="dots"><circle class="dot reactive tooltip-trigger" cx="378.2" cy="87.1518089983" r="2.5"/><desc class="value">47</desc><desc class="x left">378.2</desc><desc class="y left">87.1518089983</desc></g><g class="dots"><circle class="dot reactive tooltip-trigger" cx="408.7" cy="222.103631769" r="2.5"/><desc class="value">31</desc><desc class="x left">408.7</desc><desc class="y left">222.103631769</desc></g><g class="dots"><circle class="dot reactive tooltip-trigger" cx="439.2" cy="95.5862979215" r="2.5"/><desc class="value">46</desc><desc class="x left">439.2</desc><desc class="y left">95.5862979215</desc></g><g class="dots"><circle class="dot reactive tooltip-trigger" cx="469.7" cy="120.889764691" r="2.5"/><desc class="value">43</desc><desc class="x left">469.7</desc><desc class="y left">120.889764691</desc></g><g class="dots"><circle class="dot reactive tooltip-trigger" cx="500.2" cy="171.49669823" r="2.5"/><desc class="value">37</desc><desc class="x left">500.2</desc><desc class="y left">171.49669823</desc></g><g class="dots"><circle class="dot reactive tooltip-trigger" cx="530.7" cy="137.758742537" r="2.5"/><desc class="value">41</desc><desc class="x left">530.7</desc><desc class="y left">137.758742537</desc></g><g class="dots"><circle class="dot reactive tooltip-trigger" cx="561.2" cy="61.8483422289" r="2.5"/><desc class="value">50</desc><desc class="x left">561.2</desc><desc class="y left">61.8483422289</desc></g><g class="dots"><circle class="dot reactive tooltip-trigger" cx="591.7" cy="112.455275768" r="2.5"/><desc class="value">44</desc><desc class="x left">591.7</desc><desc class="y left">112.455275768</desc></g><g class="dots"><circle class="dot reactive tooltip-trigger" cx="622.2" cy="163.062209307" r="2.5"/><desc class="value">38</desc><desc class="x left">622.2</desc><desc class="y left">163.062209307</desc></g></g></g><g class="plot text-overlay" transform="translate(48, 46)"><g class="series serie-0 color-0"><text class="centered" x="12.2" y="382.358921308">12</text><text class="centered" x="42.7" y="348.620965616">16</text><text class="centered" x="73.2" y="348.620965616">16</text><text class="centered" x="103.7" y="331.751987769">18</text><text class="centered" x="134.2" y="95.5862979215">46</text><text class="centered" x="164.7" y="61.8483422289">50</text><text class="centered" x="195.2" y="112.455275768">44</text><text class="centered" x="225.7" y="28.1103865363">54</text><text class="centered" x="256.2" y="120.889764691">43</text><text class="centered" x="286.7" y="146.19323146">40</text><text class="centered" x="317.2" y="120.889764691">43</text><text class="centered" x="347.7" y="154.627720383">39</text><text class="centered" x="378.2" y="44.9793643826">52</text><text class="centered" x="408.7" y="129.324253614">42</text><text class="centered" x="439.2" y="61.8483422289">50</text><text class="centered" x="469.7" y="11.24140869">56</text><text class="centered" x="500.2" y="53.4138533058">51</text><text class="centered" x="530.7" y="120.889764691">43</text><text class="centered" x="561.2" y="61.8483422289">50</text><text class="centered" x="591.7" y="104.020786845">45</text><text class="centered" x="622.2" y="112.455275768">44</text></g><g class="series serie-1 color-1"><text class="centered" x="12.2" y="483.572788386"></text><text class="centered" x="42.7" y="373.924432385">13</text><text class="centered" x="73.2" y="348.620965616">16</text><text class="centered" x="103.7" y="399.227899155">10</text><text class="centered" x="134.2" y="95.5862979215">46</text><text class="centered" x="164.7" y="61.8483422289">50</text><text class="centered" x="195.2" y="112.455275768">44</text><text class="centered" x="225.7" y="230.538120692">30</text><text class="centered" x="256.2" y="213.669142845">32</text><text class="centered" x="286.7" y="146.19323146">40</text><text class="centered" x="317.2" y="213.669142845">32</text><text class="centered" x="347.7" y="163.062209307">38</text><text class="centered" x="378.2" y="120.889764691">43</text><text class="centered" x="408.7" y="179.931187153">36</text><text class="centered" x="439.2" y="205.234653922">33</text><text class="centered" x="469.7" y="11.24140869">56</text><text class="centered" x="500.2" y="129.324253614">42</text><text class="centered" x="530.7" y="129.324253614">42</text><text class="centered" x="561.2" y="120.889764691">43</text><text class="centered" x="591.7" y="129.324253614">42</text><text class="centered" x="622.2" y="230.538120692">30</text></g><g class="series serie-2 color-2"><text class="centered" x="12.2" y="483.572788386"></text><text class="centered" x="42.7" y="466.70381054">2</text><text class="centered" x="73.2" y="365.489943462">14</text><text class="centered" x="103.7" y="331.751987769">18</text><text class="centered" x="134.2" y="306.448521">21</text><text class="centered" x="164.7" y="137.758742537">41</text><text class="centered" x="195.2" y="171.49669823">37</text><text class="centered" x="225.7" y="196.800164999">34</text><text class="centered" x="256.2" y="154.627720383">39</text><text class="centered" x="286.7" y="255.841587461">27</text><text class="centered" x="317.2" y="120.889764691">43</text><text class="centered" x="347.7" y="196.800164999">34</text><text class="centered" x="378.2" y="87.1518089983">47</text><text class="centered" x="408.7" y="222.103631769">31</text><text class="centered" x="439.2" y="95.5862979215">46</text><text class="centered" x="469.7" y="120.889764691">43</text><text class="centered" x="500.2" y="171.49669823">37</text><text class="centered" x="530.7" y="137.758742537">41</text><text class="centered" x="561.2" y="61.8483422289">50</text><text class="centered" x="591.7" y="112.455275768">44</text><text class="centered" x="622.2" y="163.062209307">38</text></g></g><g class="plot tooltip-overlay" transform="translate(48, 46)"><g id="tooltip" style="opacity: 0" transform="translate(0 0)"><a><rect height="0" id="tooltip-box" rx="5" ry="5" width="0"/><text class="text"><tspan class="label"/><tspan class="value"/></text></a></g></g><g class="legends" transform="translate(692, 56)"><g class="legend reactive activate-serie" id="activate-serie-0"><rect class="color-0 reactive" height="12" width="12" x="0.0" y="1.0"/><text x="17.0" y="11.2">Evolution</text></g><g class="legend reactive activate-serie" id="activate-serie-1"><rect class="color-1 reactive" height="12" width="12" x="0.0" y="22.0"/><text x="17.0" y="32.2">#1</text></g><g class="legend reactive activate-serie" id="activate-serie-2"><rect class="color-2 reactive" height="12" width="12" x="0.0" y="43.0"/><text x="17.0" y="53.2">#1</text></g></g><text class="title" x="365.2" y="26">Evolution</text></g></svg>