<?xml version='1.0' encoding='utf-8'?>
<svg xmlns:xlink="http://www.w3.org/1999/xlink" xmlns="http://www.w3.org/2000/svg" viewBox="0 0 800 600"><!--Generated with pygal 0.13.0 ©Kozea 2012 on 2013-03-15--><!--http://pygal.org--><!--http://github.com/Kozea/pygal--><defs><style type="text/css">.title{font-family:monospace;font-size:16px}.legends .legend text{font-family:monospace;font-size:14px}.axis text{font-family:monospace;font-size:15px}.series text{font-family:monospace;font-size:0px}#tooltip text{font-family:monospace;font-size:20px}text.no_data{font-size:64px}</style><style type="text/css">svg{background-color:black}svg path,svg line,svg rect,svg circle{-webkit-transition:1s ease-out;-moz-transition:1s ease-out;transition:1s ease-out}.graph &gt; .background{fill:black}.plot &gt; .background{fill:#111}.graph{fill:#999}text.no_data{fill:#eee}.title{fill:#eee}.legends .legend text{fill:#999}.legends .legend:hover text{fill:#eee}.axis .line{stroke:#eee}.axis .guide.line{stroke:#555}.axis .major.line{stroke:#999}.axis text.major{stroke:#eee;fill:#eee}.axis.y .guides:hover .guide.line,.line-graph .axis.x .guides:hover .guide.line,.stackedline-graph .axis.x .guides:hover .guide.line,.xy-graph .axis.x .guides:hover .guide.line{stroke:#eee}.axis .guides:hover text{fill:#eee}.reactive{fill-opacity:.1}.reactive.active,.active .reactive{fill-opacity:.75}.series text{fill:#eee}#tooltip rect{fill:#111;stroke:#eee}#tooltip text{fill:#eee}.color-0{stroke:#ff5995;fill:#ff5995}.color-1{stroke:#b6e354;fill:#b6e354}.color-2{stroke:#feed6c;fill:#feed6c}.color-3{stroke:#8cedff;fill:#8cedff}.color-4{stroke:#9e6ffe;fill:#9e6ffe}.color-5{stroke:#899ca1;fill:#899ca1}.color-6{stroke:#f8f8f2;fill:#f8f8f2}.color-7{stroke:#bf4646;fill:#bf4646}.color-8{stroke:#516083;fill:#516083}.color-9{stroke:#f92672;fill:#f92672}.color-10{stroke:#82b414;fill:#82b414}.color-11{stroke:#fd971f;fill:#fd971f}.color-12{stroke:#56c2d6;fill:#56c2d6}.color-13{stroke:#808384;fill:#808384}.color-14{stroke:#8c54fe;fill:#8c54fe}.color-15{stroke:#465457;fill:#465457}</style><style type="text/css">text.no_data{text-anchor:middle}.guide.line{fill-opacity:0}.centered{text-anchor:middle}.title{text-anchor:middle}.legends .legend text{fill-opacity:1}.axis.x text{text-anchor:middle}.axis.x:not(.web) text[transform]{text-anchor:start}.axis.y text{text-anchor:end}.axis.y .logarithmic text:not(.major){font-size:50%}.axis .guide.line{stroke-dasharray:4,4}.axis .major.guide.line{stroke-dasharray:6,6}.axis text.major{stroke-width:0.5px}.horizontal .axis.y .guide.line,.vertical .axis.x .guide.line{opacity:0}.axis.y .guides:hover .guide.line,.line-graph .axis.x .guides:hover .guide.line,.gauge-graph .axis.x .guides:hover .guide.line,.stackedline-graph .axis.x .guides:hover .guide.line,.xy-graph .axis.x .guides:hover .guide.line{opacity:1}.axis .guides:hover text{opacity:1}.nofill{fill:none}.dot{stroke-width:1px;fill-opacity:1}.dot.active{stroke-width:5px}.series text{stroke:none}.series text.active{opacity:1}#tooltip rect{fill-opacity:0.8}#tooltip text{fill-opacity:1}#tooltip text tspan.label{fill-opacity:.8}a:visited{fill:none}</style><script type="text/javascript">window.config = {"truncate_legend": null, "print_values": true, "tooltip_font_size": 20, "height": 600, "legend_at_bottom": false, "show_legend": true, "show_dots": true, "explicit_size": false, "legend_font_size": 14, "fill": true, "style": {"opacity": ".1", "foreground": "#999", "plot_background": "#111", "_colors": ["#ff5995", "#b6e354", "#feed6c", "#8cedff", "#9e6ffe", "#899ca1", "#f8f8f2", "#bf4646", "#516083", "#f92672", "#82b414", "#fd971f", "#56c2d6", "#808384", "#8c54fe", "#465457"], "foreground_light": "#eee", "transition": "1s ease-out", "foreground_dark": "#555", "colors": ".color-0 {\n  stroke: #ff5995;\n  fill: #ff5995;\n}\n\n.color-1 {\n  stroke: #b6e354;\n  fill: #b6e354;\n}\n\n.color-2 {\n  stroke: #feed6c;\n  fill: #feed6c;\n}\n\n.color-3 {\n  stroke: #8cedff;\n  fill: #8cedff;\n}\n\n.color-4 {\n  stroke: #9e6ffe;\n  fill: #9e6ffe;\n}\n\n.color-5 {\n  stroke: #899ca1;\n  fill: #899ca1;\n}\n\n.color-6 {\n  stroke: #f8f8f2;\n  fill: #f8f8f2;\n}\n\n.color-7 {\n  stroke: #bf4646;\n  fill: #bf4646;\n}\n\n.color-8 {\n  stroke: #516083;\n  fill: #516083;\n}\n\n.color-9 {\n  stroke: #f92672;\n  fill: #f92672;\n}\n\n.color-10 {\n  stroke: #82b414;\n  fill: #82b414;\n}\n\n.color-11 {\n  stroke: #fd971f;\n  fill: #fd971f;\n}\n\n.color-12 {\n  stroke: #56c2d6;\n  fill: #56c2d6;\n}\n\n.color-13 {\n  stroke: #808384;\n  fill: #808384;\n}\n\n.color-14 {\n  stroke: #8c54fe;\n  fill: #8c54fe;\n}\n\n.color-15 {\n  stroke: #465457;\n  fill: #465457;\n}\n", "background": "black", "opacity_hover": ".75"}, "zero": 0, "title": "Evolution", "rounded_bars": null, "label_font_size": 15, "strict": false, "x_label_rotation": 0, "x_labels": ["0", "1", "2", "3", "4", "5", "6", "7", "8", "9"], "value_font_size": 0, "disable_xml_declaration": false, "css": ["style.css", "graph.css"], "human_readable": true, "y_label_rotation": 0, "pretty_print": false, "interpolate": "cubic", "js": ["https://raw.github.com/Kozea/pygal.js/master/svg.jquery.js", "https://raw.github.com/Kozea/pygal.js/master/pygal-tooltips.js"], "y_labels": null, "interpolation_precision": 250, "no_data_font_size": 64, "logarithmic": false, "print_zeroes": false, "no_data_text": "No data", "legend_box_size": 12, "stroke": true, "include_x_axis": false, "range": null, "truncate_label": null, "order_min": null, "title_font_size": 16, "width": 800}</script><script type="text/javascript" xlink:href="https://raw.github.com/Kozea/pygal.js/master/svg.jquery.js"/><script type="text/javascript" xlink:href="https://raw.github.com/Kozea/pygal.js/master/pygal-tooltips.js"/></defs><g class="graph line-graph vertical"><rect class="background" height="600" width="800" x="0" y="0"/><g class="plot" transform="translate(45, 46)"><rect class="background" height="509" width="679.4" x="0" y="0"/><g class="axis x"><g class="guides"><path class="major line" d="M13.065385 0.000000 v509.000000"/><text class="major" x="13.0653846154" y="526.5">0</text></g><g class="guides"><path class="guide line" d="M85.650855 0.000000 v509.000000"/><text class="" x="85.6508547009" y="526.5">1</text></g><g class="guides"><path class="guide line" d="M158.236325 0.000000 v509.000000"/><text class="" x="158.236324786" y="526.5">2</text></g><g class="guides"><path class="guide line" d="M230.821795 0.000000 v509.000000"/><text class="" x="230.821794872" y="526.5">3</text></g><g class="guides"><path class="guide line" d="M303.407265 0.000000 v509.000000"/><text class="" x="303.407264957" y="526.5">4</text></g><g class="guides"><path class="guide line" d="M375.992735 0.000000 v509.000000"/><text class="" x="375.992735043" y="526.5">5</text></g><g class="guides"><path class="guide line" d="M448.578205 0.000000 v509.000000"/><text class="" x="448.578205128" y="526.5">6</text></g><g class="guides"><path class="guide line" d="M521.163675 0.000000 v509.000000"/><text class="" x="521.163675214" y="526.5">7</text></g><g class="guides"><path class="guide line" d="M593.749145 0.000000 v509.000000"/><text class="" x="593.749145299" y="526.5">8</text></g><g class="guides"><path class="major guide line" d="M666.334615 0.000000 v509.000000"/><text class="major" x="666.334615385" y="526.5">9</text></g></g><g class="axis y"><g class="guides"><path class="major line" d="M0.000000 462.204869 h679.400000"/><text class="major" x="-5" y="467.454869496">0</text></g><g class="guides"><path class="major guide line" d="M0.000000 372.503819 h679.400000"/><text class="major" x="-5" y="377.753818768">1</text></g><g class="guides"><path class="guide line" d="M0.000000 282.802768 h679.400000"/><text class="" x="-5" y="288.052768039">2</text></g><g class="guides"><path class="guide line" d="M0.000000 193.101717 h679.400000"/><text class="" x="-5" y="198.351717311">3</text></g><g class="guides"><path class="guide line" d="M0.000000 103.400667 h679.400000"/><text class="" x="-5" y="108.650666583">4</text></g><g class="guides"><path class="guide line" d="M0.000000 13.699616 h679.400000"/><text class="" x="-5" y="18.9496158546">5</text></g></g><g class="series serie-0 color-0"><path class="line reactive" d="M13.065385 462.204869 L13.065385 289.642591 15.678462 307.599577 18.291538 323.170503 20.904615 336.449599 23.517692 347.531092 26.130769 356.509211 28.743846 363.478185 31.356923 368.532242 33.970000 371.765610 36.583077 373.272519 39.196154 373.147197 41.809231 371.483872 44.422308 368.376773 47.035385 363.920128 49.648462 358.208166 52.261538 351.335115 54.874615 343.395204 57.487692 334.482662 60.100769 324.691716 62.713846 314.116596 65.326923 302.851530 67.940000 290.990746 70.553077 278.628474 73.166154 265.858941 75.779231 252.776376 78.392308 239.475008 81.005385 226.049065 83.618462 212.592775 86.231538 199.200266 88.844615 185.949196 91.457692 172.882688 94.070769 160.039515 96.683846 147.458451 99.296923 135.178271 101.910000 123.237749 104.523077 111.675658 107.136154 100.530772 109.749231 89.841866 112.362308 79.647713 114.975385 69.987088 117.588462 60.898764 120.201538 52.421515 122.814615 44.594116 125.427692 37.455341 128.040769 31.043963 130.653846 25.398756 133.266923 20.558495 135.880000 16.561954 138.493077 13.447905 141.106154 11.255125 143.719231 10.022385 146.332308 9.788462 148.945385 10.592127 151.558462 12.472156 154.171538 15.467323 156.784615 19.616401 159.397692 24.956163 162.010769 31.462702 164.623846 39.041956 167.236923 47.595955 169.850000 57.026728 172.463077 67.236306 175.076154 78.126720 177.689231 89.599998 180.302308 101.558173 182.915385 113.903273 185.528462 126.537329 188.141538 139.362370 190.754615 152.280428 193.367692 165.193532 195.980769 178.003713 198.593846 190.613000 201.206923 202.923424 203.820000 214.837015 206.433077 226.255802 209.046154 237.081817 211.659231 247.217090 214.272308 256.563649 216.885385 265.023527 219.498462 272.498752 222.111538 278.891356 224.724615 284.103367 227.337692 288.036817 229.950769 290.593735 232.563846 291.686027 235.176923 291.340400 237.790000 289.657624 240.403077 286.739707 243.016154 282.688653 245.629231 277.606469 248.242308 271.595162 250.855385 264.756736 253.468462 257.193198 256.081538 249.006554 258.694615 240.298810 261.307692 231.171971 263.920769 221.728045 266.533846 212.069036 269.146923 202.296952 271.760000 192.513797 274.373077 182.821578 276.986154 173.322300 279.599231 164.117971 282.212308 155.310595 284.825385 147.002179 287.438462 139.294729 290.051538 132.290251 292.664615 126.090750 295.277692 120.798233 297.890769 116.514706 300.503846 113.342175 303.116923 111.382645 305.730000 110.716314 308.343077 111.301338 310.956154 113.053448 313.569231 115.888333 316.182308 119.721681 318.795385 124.469180 321.408462 130.046519 324.021538 136.369386 326.634615 143.353469 329.247692 150.914457 331.860769 158.968038 334.473846 167.429901 337.086923 176.215733 339.700000 185.241223 342.313077 194.422060 344.926154 203.673931 347.539231 212.912525 350.152308 222.053531 352.765385 231.012636 355.378462 239.705530 357.991538 248.047900 360.604615 255.955434 363.217692 263.343822 365.830769 270.128751 368.443846 276.225910 371.056923 281.550987 373.670000 286.019671 376.283077 289.547682 378.896154 292.083564 381.509231 293.670275 384.122308 294.367643 386.735385 294.235499 389.348462 293.333671 391.961538 291.721989 394.574615 289.460283 397.187692 286.608382 399.800769 283.226116 402.413846 279.373314 405.026923 275.109805 407.640000 270.495420 410.253077 265.589987 412.866154 260.453336 415.479231 255.145296 418.092308 249.725697 420.705385 244.254369 423.318462 238.791141 425.931538 233.395842 428.544615 228.128301 431.157692 223.048349 433.770769 218.215815 436.383846 213.690528 438.996923 209.532318 441.610000 205.801014 444.223077 202.556446 446.836154 199.858443 449.449231 197.766293 452.062308 196.306758 454.675385 195.456188 457.288462 195.186597 459.901538 195.469997 462.514615 196.278403 465.127692 197.583827 467.740769 199.358282 470.353846 201.573782 472.966923 204.202340 475.580000 207.215970 478.193077 210.586684 480.806154 214.286495 483.419231 218.287418 486.032308 222.561464 488.645385 227.080648 491.258462 231.816983 493.871538 236.742482 496.484615 241.829158 499.097692 247.049024 501.710769 252.374094 504.323846 257.776381 506.936923 263.227898 509.550000 268.700658 512.163077 274.166675 514.776154 279.597962 517.389231 284.966532 520.002308 290.244398 522.615385 295.404311 525.228462 300.432259 527.841538 305.325679 530.454615 310.082386 533.067692 314.700194 535.680769 319.176920 538.293846 323.510378 540.906923 327.698382 543.520000 331.738749 546.133077 335.629292 548.746154 339.367827 551.359231 342.952168 553.972308 346.380131 556.585385 349.649531 559.198462 352.758182 561.811538 355.703900 564.424615 358.484499 567.037692 361.097794 569.650769 363.541601 572.263846 365.813734 574.876923 367.912009 577.490000 369.834239 580.103077 371.578241 582.716154 373.141829 585.329231 374.522818 587.942308 375.719023 590.555385 376.728259 593.168462 377.548341 595.781538 378.178438 598.394615 378.628478 601.007692 378.913516 603.620769 379.048641 606.233846 379.048941 608.846923 378.929504 611.460000 378.705419 614.073077 378.391773 616.686154 378.003654 619.299231 377.556151 621.912308 377.064352 624.525385 376.543345 627.138462 376.008218 629.751538 375.474059 632.364615 374.955957 634.977692 374.468999 637.590769 374.028274 640.203846 373.648870 642.816923 373.345874 645.430000 373.134376 648.043077 373.029463 650.656154 373.046224 653.269231 373.199746 655.882308 373.505117 658.495385 373.977427 661.108462 374.631762 663.721538 375.483211 666.334615 376.546863 666.334615 462.204869"/></g><g class="series serie-1 color-1"><path class="line reactive" d="M13.065385 462.204869 L13.065385 472.219514 15.678462 471.150848 18.291538 469.023930 20.904615 465.886702 23.517692 461.787108 26.130769 456.773090 28.743846 450.892590 31.356923 444.193551 33.970000 436.723915 36.583077 428.531625 39.196154 419.664624 41.809231 410.170853 44.422308 400.098255 47.035385 389.494774 49.648462 378.408350 52.261538 366.886928 54.874615 354.978449 57.487692 342.730856 60.100769 330.192091 62.713846 317.410098 65.326923 304.432817 67.940000 291.308193 70.553077 278.084167 73.166154 264.808682 75.779231 251.529681 78.392308 238.295105 81.005385 225.152898 83.618462 212.151002 86.231538 199.337317 88.844615 186.752783 91.457692 174.423747 94.070769 162.374720 96.683846 150.630210 99.296923 139.214728 101.910000 128.152782 104.523077 117.468884 107.136154 107.187542 109.749231 97.333266 112.362308 87.930566 114.975385 79.003952 117.588462 70.577933 120.201538 62.677019 122.814615 55.325719 125.427692 48.548543 128.040769 42.370002 130.653846 36.814604 133.266923 31.906859 135.880000 27.671277 138.493077 24.132368 141.106154 21.314641 143.719231 19.242606 146.332308 17.940772 148.945385 17.433650 151.558462 17.745749 154.171538 18.901579 156.784615 20.925649 159.397692 23.841442 162.010769 27.641266 164.623846 32.281392 167.236923 37.716086 169.850000 43.899609 172.463077 50.786226 175.076154 58.330200 177.689231 66.485795 180.302308 75.207275 182.915385 84.448902 185.528462 94.164941 188.141538 104.309656 190.754615 114.837309 193.367692 125.702165 195.980769 136.858487 198.593846 148.260538 201.206923 159.862583 203.820000 171.618884 206.433077 183.483706 209.046154 195.411312 211.659231 207.355966 214.272308 219.271931 216.885385 231.113471 219.498462 242.834849 222.111538 254.390329 224.724615 265.734175 227.337692 276.820650 229.950769 287.604018 232.563846 298.041192 235.176923 308.119886 237.790000 317.847686 240.403077 327.232508 243.016154 336.282269 245.629231 345.004886 248.242308 353.408275 250.855385 361.500354 253.468462 369.289039 256.081538 376.782246 258.694615 383.987893 261.307692 390.913897 263.920769 397.568173 266.533846 403.958640 269.146923 410.093212 271.760000 415.979808 274.373077 421.626345 276.986154 427.040738 279.599231 432.230904 282.212308 437.204761 284.825385 441.970224 287.438462 446.535212 290.051538 450.907640 292.664615 455.095425 295.277692 459.106485 297.890769 462.948735 300.503846 466.630093 303.116923 470.158474 305.730000 473.539478 308.343077 476.765724 310.956154 479.825319 313.569231 482.706368 316.182308 485.396975 318.795385 487.885243 321.408462 490.159276 324.021538 492.207178 326.634615 494.017053 329.247692 495.577004 331.860769 496.875135 334.473846 497.899551 337.086923 498.638354 339.700000 499.079648 342.313077 499.211538 344.926154 499.022128 347.539231 498.499519 350.152308 497.631818 352.765385 496.407127 355.378462 494.813550 357.991538 492.839192 360.604615 490.472154 363.217692 487.700543 365.830769 484.512461 368.443846 480.896012 371.056923 476.839299 373.670000 472.330428 376.283077 467.357512 378.896154 461.920742 381.509231 456.055031 384.122308 449.801499 386.735385 443.201268 389.348462 436.295456 391.961538 429.125185 394.574615 421.731575 397.187692 414.155746 399.800769 406.438818 402.413846 398.621912 405.026923 390.746148 407.640000 382.852646 410.253077 374.982527 412.866154 367.176911 415.479231 359.476919 418.092308 351.923670 420.705385 344.558285 423.318462 337.421884 425.931538 330.555587 428.544615 324.000516 431.157692 317.797790 433.770769 311.988529 436.383846 306.613854 438.996923 301.714885 441.610000 297.332743 444.223077 293.508547 446.836154 290.283419 449.449231 287.698050 452.062308 285.767488 454.675385 284.467027 457.288462 283.768542 459.901538 283.643908 462.514615 284.065000 465.127692 285.003694 467.740769 286.431863 470.353846 288.321385 472.966923 290.644132 475.580000 293.371982 478.193077 296.476807 480.806154 299.930485 483.419231 303.704889 486.032308 307.771895 488.645385 312.103377 491.258462 316.671212 493.871538 321.447274 496.484615 326.403437 499.097692 331.511578 501.710769 336.743571 504.323846 342.071291 506.936923 347.466613 509.550000 352.901413 512.163077 358.347565 514.776154 363.776944 517.389231 369.161426 520.002308 374.472886 522.615385 379.683935 525.228462 384.780408 527.841538 389.759578 530.454615 394.619095 533.067692 399.356608 535.680769 403.969769 538.293846 408.456226 540.906923 412.813629 543.520000 417.039629 546.133077 421.131875 548.746154 425.088018 551.359231 428.905706 553.972308 432.582590 556.585385 436.116321 559.198462 439.504547 561.811538 442.744919 564.424615 445.835086 567.037692 448.772699 569.650769 451.555408 572.263846 454.180861 574.876923 456.646710 577.490000 458.950604 580.103077 461.090193 582.716154 463.063128 585.329231 464.867056 587.942308 466.499630 590.555385 467.958498 593.168462 469.241311 595.781538 470.346745 598.394615 471.281635 601.007692 472.056704 603.620769 472.682700 606.233846 473.170370 608.846923 473.530463 611.460000 473.773725 614.073077 473.910905 616.686154 473.952751 619.299231 473.910009 621.912308 473.793427 624.525385 473.613754 627.138462 473.381737 629.751538 473.108123 632.364615 472.803661 634.977692 472.479098 637.590769 472.145181 640.203846 471.812659 642.816923 471.492278 645.430000 471.194787 648.043077 470.930934 650.656154 470.711465 653.269231 470.547129 655.882308 470.448673 658.495385 470.426846 661.108462 470.492394 663.721538 470.656065 666.334615 470.928608 666.334615 462.204869"/></g><g class="series serie-2 color-2"><path class="line reactive" d="M13.065385 462.204869 L13.065385 289.642591 15.678462 293.443942 18.291538 297.285399 20.904615 301.158822 23.517692 305.056070 26.130769 308.969001 28.743846 312.889474 31.356923 316.809348 33.970000 320.720483 36.583077 324.614737 39.196154 328.483968 41.809231 332.320036 44.422308 336.114801 47.035385 339.860119 49.648462 343.547852 52.261538 347.169857 54.874615 350.717993 57.487692 354.184120 60.100769 357.560096 62.713846 360.837780 65.326923 364.009031 67.940000 367.065708 70.553077 369.999670 73.166154 372.802775 75.779231 375.466884 78.392308 377.983854 81.005385 380.345545 83.618462 382.543815 86.231538 384.570545 88.844615 386.421179 91.457692 388.098631 94.070769 389.606756 96.683846 390.949409 99.296923 392.130444 101.910000 393.153717 104.523077 394.023082 107.136154 394.742395 109.749231 395.315509 112.362308 395.746281 114.975385 396.038565 117.588462 396.196215 120.201538 396.223088 122.814615 396.123037 125.427692 395.899917 128.040769 395.557584 130.653846 395.099893 133.266923 394.530697 135.880000 393.853853 138.493077 393.073215 141.106154 392.192637 143.719231 391.215976 146.332308 390.147085 148.945385 388.989820 151.558462 387.748035 154.171538 386.425585 156.784615 385.026326 159.397692 383.554320 162.010769 382.019916 164.623846 380.440734 167.236923 378.834798 169.850000 377.220134 172.463077 375.614765 175.076154 374.036715 177.689231 372.504011 180.302308 371.034675 182.915385 369.646732 185.528462 368.358207 188.141538 367.187124 190.754615 366.151507 193.367692 365.269382 195.980769 364.558772 198.593846 364.037702 201.206923 363.724196 203.820000 363.636279 206.433077 363.791976 209.046154 364.209310 211.659231 364.906306 214.272308 365.900989 216.885385 367.211383 219.498462 368.855512 222.111538 370.851402 224.724615 373.217075 227.337692 375.970558 229.950769 379.129874 232.563846 382.709744 235.176923 386.686483 237.790000 391.011631 240.403077 395.636310 243.016154 400.511648 245.629231 405.588768 248.242308 410.818795 250.855385 416.152856 253.468462 421.542073 256.081538 426.937574 258.694615 432.290482 261.307692 437.551923 263.920769 442.673022 266.533846 447.604903 269.146923 452.298692 271.760000 456.705514 274.373077 460.776493 276.986154 464.462755 279.599231 467.715425 282.212308 470.485628 284.825385 472.724488 287.438462 474.383132 290.051538 475.412683 292.664615 475.764267 295.277692 475.389008 297.890769 474.238033 300.503846 472.262465 303.116923 469.413431 305.730000 465.656710 308.343077 461.040097 310.956154 455.639896 313.569231 449.532439 316.182308 442.794059 318.795385 435.501091 321.408462 427.729865 324.021538 419.556716 326.634615 411.057976 329.247692 402.309979 331.860769 393.389056 334.473846 384.371541 337.086923 375.333767 339.700000 366.352067 342.313077 357.502774 344.926154 348.862221 347.539231 340.506740 350.152308 332.512664 352.765385 324.956327 355.378462 317.914061 357.991538 311.462200 360.604615 305.677075 363.217692 300.635021 365.830769 296.412370 368.443846 293.085454 371.056923 290.730608 373.670000 289.424163 376.283077 289.242418 378.896154 290.226616 381.509231 292.317167 384.122308 295.436463 386.735385 299.506894 389.348462 304.450851 391.961538 310.190724 394.574615 316.648905 397.187692 323.747784 399.800769 331.409752 402.413846 339.557199 405.026923 348.112516 407.640000 356.998095 410.253077 366.136325 412.866154 375.449597 415.479231 384.860303 418.092308 394.290833 420.705385 403.663578 423.318462 412.900928 425.931538 421.925274 428.544615 430.659007 431.157692 439.024517 433.770769 446.944197 436.383846 454.340435 438.996923 461.135623 441.610000 467.252151 444.223077 472.612411 446.836154 477.138793 449.449231 480.754470 452.062308 483.429529 454.675385 485.206776 457.288462 486.135271 459.901538 486.264076 462.514615 485.642252 465.127692 484.318859 467.740769 482.342959 470.353846 479.763612 472.966923 476.629879 475.580000 472.990821 478.193077 468.895500 480.806154 464.392975 483.419231 459.532308 486.032308 454.362560 488.645385 448.932792 491.258462 443.292064 493.871538 437.489438 496.484615 431.573974 499.097692 425.594734 501.710769 419.600778 504.323846 413.641167 506.936923 407.764962 509.550000 402.021224 512.163077 396.459014 514.776154 391.127393 517.389231 386.075422 520.002308 381.352161 522.615385 377.004997 525.228462 373.051246 527.841538 369.482218 530.454615 366.288361 533.067692 363.460128 535.680769 360.987969 538.293846 358.862333 540.906923 357.073673 543.520000 355.612438 546.133077 354.469079 548.746154 353.634048 551.359231 353.097793 553.972308 352.850767 556.585385 352.883419 559.198462 353.186200 561.811538 353.749561 564.424615 354.563953 567.037692 355.619826 569.650769 356.907630 572.263846 358.417817 574.876923 360.140837 577.490000 362.067140 580.103077 364.187177 582.716154 366.491400 585.329231 368.970258 587.942308 371.614201 590.555385 374.413682 593.168462 377.359150 595.781538 380.438820 598.394615 383.623158 601.007692 386.874165 603.620769 390.153787 606.233846 393.423974 608.846923 396.646673 611.460000 399.783833 614.073077 402.797402 616.686154 405.649327 619.299231 408.301557 621.912308 410.716041 624.525385 412.854725 627.138462 414.679559 629.751538 416.152491 632.364615 417.235468 634.977692 417.890439 637.590769 418.079351 640.203846 417.764154 642.816923 416.906795 645.430000 415.469222 648.043077 413.413383 650.656154 410.701227 653.269231 407.294702 655.882308 403.155755 658.495385 398.246335 661.108462 392.528391 663.721538 385.963869 666.334615 378.514719 666.334615 462.204869"/></g></g><g class="plot overlay" transform="translate(45, 46)"><g class="series serie-0 color-0"><g class="dots"><circle class="dot reactive tooltip-trigger" cx="13.0653846154" cy="289.642591108" r="2.5"/><desc class="value">1.924</desc><desc class="x top">13.0653846154</desc><desc class="y top">289.642591108</desc></g><g class="dots"><circle class="dot reactive tooltip-trigger" cx="85.6508547009" cy="202.166111951" r="2.5"/><desc class="value">2.899</desc><desc class="x ">85.6508547009</desc><desc class="y ">202.166111951</desc></g><g class="dots"><circle class="dot reactive tooltip-trigger" cx="158.236324786" cy="22.434319829" r="2.5"/><desc class="value">4.903</desc><desc class="x ">158.236324786</desc><desc class="y ">22.434319829</desc></g><g class="dots"><circle class="dot reactive tooltip-trigger" cx="230.821794872" cy="291.123212139" r="2.5"/><desc class="value">1.907</desc><desc class="x top">230.821794872</desc><desc class="y top">291.123212139</desc></g><g class="dots"><circle class="dot reactive tooltip-trigger" cx="303.407264957" cy="111.244227284" r="2.5"/><desc class="value">3.913</desc><desc class="x ">303.407264957</desc><desc class="y ">111.244227284</desc></g><g class="dots"><circle class="dot reactive tooltip-trigger" cx="375.992735043" cy="289.204727188" r="2.5"/><desc class="value">1.929</desc><desc class="x left top">375.992735043</desc><desc class="y left top">289.204727188</desc></g><g class="dots"><circle class="dot reactive tooltip-trigger" cx="448.578205128" cy="198.392967177" r="2.5"/><desc class="value">2.941</desc><desc class="x left">448.578205128</desc><desc class="y left">198.392967177</desc></g><g class="dots"><circle class="dot reactive tooltip-trigger" cx="521.163675214" cy="292.5536816" r="2.5"/><desc class="value">1.891</desc><desc class="x left top">521.163675214</desc><desc class="y left top">292.5536816</desc></g><g class="dots"><circle class="dot reactive tooltip-trigger" cx="593.749145299" cy="377.704673966" r="2.5"/><desc class="value">942.02m</desc><desc class="x left top">593.749145299</desc><desc class="y left top">377.704673966</desc></g><g class="dots"><circle class="dot reactive tooltip-trigger" cx="666.334615385" cy="376.546863121" r="2.5"/><desc class="value">954.928m</desc><desc class="x left top">666.334615385</desc><desc class="y left top">376.546863121</desc></g></g><g class="series serie-1 color-1"><g class="dots"><circle class="dot reactive tooltip-trigger" cx="13.0653846154" cy="472.219513734" r="2.5"/><desc class="value">-111.645m</desc><desc class="x top">13.0653846154</desc><desc class="y top">472.219513734</desc></g><g class="dots"><circle class="dot reactive tooltip-trigger" cx="85.6508547009" cy="202.166111951" r="2.5"/><desc class="value">2.899</desc><desc class="x ">85.6508547009</desc><desc class="y ">202.166111951</desc></g><g class="dots"><circle class="dot reactive tooltip-trigger" cx="158.236324786" cy="22.434319829" r="2.5"/><desc class="value">4.903</desc><desc class="x ">158.236324786</desc><desc class="y ">22.434319829</desc></g><g class="dots"><circle class="dot reactive tooltip-trigger" cx="230.821794872" cy="291.123212139" r="2.5"/><desc class="value">1.907</desc><desc class="x top">230.821794872</desc><desc class="y top">291.123212139</desc></g><g class="dots"><circle class="dot reactive tooltip-trigger" cx="303.407264957" cy="470.541417806" r="2.5"/><desc class="value">-92.937m</desc><desc class="x top">303.407264957</desc><desc class="y top">470.541417806</desc></g><g class="dots"><circle class="dot reactive tooltip-trigger" cx="375.992735043" cy="467.93333403" r="2.5"/><desc class="value">-63.862m</desc><desc class="x left top">375.992735043</desc><desc class="y left top">467.93333403</desc></g><g class="dots"><circle class="dot reactive tooltip-trigger" cx="448.578205128" cy="288.486454445" r="2.5"/><desc class="value">1.937</desc><desc class="x left top">448.578205128</desc><desc class="y left top">288.486454445</desc></g><g class="dots"><circle class="dot reactive tooltip-trigger" cx="521.163675214" cy="376.802739362" r="2.5"/><desc class="value">952.075m</desc><desc class="x left top">521.163675214</desc><desc class="y left top">376.802739362</desc></g><g class="dots"><circle class="dot reactive tooltip-trigger" cx="593.749145299" cy="469.502235385" r="2.5"/><desc class="value">-81.352m</desc><desc class="x left top">593.749145299</desc><desc class="y left top">469.502235385</desc></g><g class="dots"><circle class="dot reactive tooltip-trigger" cx="666.334615385" cy="470.928607732" r="2.5"/><desc class="value">-97.253m</desc><desc class="x left top">666.334615385</desc><desc class="y left top">470.928607732</desc></g></g><g class="series serie-2 color-2"><g class="dots"><circle class="dot reactive tooltip-trigger" cx="13.0653846154" cy="289.642591108" r="2.5"/><desc class="value">1.924</desc><desc class="x top">13.0653846154</desc><desc class="y top">289.642591108</desc></g><g class="dots"><circle class="dot reactive tooltip-trigger" cx="85.6508547009" cy="384.135386847" r="2.5"/><desc class="value">870.33m</desc><desc class="x top">85.6508547009</desc><desc class="y top">384.135386847</desc></g><g class="dots"><circle class="dot reactive tooltip-trigger" cx="158.236324786" cy="384.2171896" r="2.5"/><desc class="value">869.418m</desc><desc class="x top">158.236324786</desc><desc class="y top">384.2171896</desc></g><g class="dots"><circle class="dot reactive tooltip-trigger" cx="230.821794872" cy="380.276279647" r="2.5"/><desc class="value">913.352m</desc><desc class="x top">230.821794872</desc><desc class="y top">380.276279647</desc></g><g class="dots"><circle class="dot reactive tooltip-trigger" cx="303.407264957" cy="469.040830573" r="2.5"/><desc class="value">-76.208m</desc><desc class="x top">303.407264957</desc><desc class="y top">469.040830573</desc></g><g class="dots"><circle class="dot reactive tooltip-trigger" cx="375.992735043" cy="289.204727188" r="2.5"/><desc class="value">1.929</desc><desc class="x left top">375.992735043</desc><desc class="y left top">289.204727188</desc></g><g class="dots"><circle class="dot reactive tooltip-trigger" cx="448.578205128" cy="479.654790086" r="2.5"/><desc class="value">-194.534m</desc><desc class="x left top">448.578205128</desc><desc class="y left top">479.654790086</desc></g><g class="dots"><circle class="dot reactive tooltip-trigger" cx="521.163675214" cy="379.371277784" r="2.5"/><desc class="value">923.441m</desc><desc class="x left top">521.163675214</desc><desc class="y left top">379.371277784</desc></g><g class="dots"><circle class="dot reactive tooltip-trigger" cx="593.749145299" cy="378.032562718" r="2.5"/><desc class="value">938.365m</desc><desc class="x left top">593.749145299</desc><desc class="y left top">378.032562718</desc></g><g class="dots"><circle class="dot reactive tooltip-trigger" cx="666.334615385" cy="378.51471883" r="2.5"/><desc class="value">932.99m</desc><desc class="x left top">666.334615385</desc><desc class="y left top">378.51471883</desc></g></g></g><g class="plot text-overlay" transform="translate(45, 46)"><g class="series serie-0 color-0"><text class="centered" x="13.0653846154" y="289.642591108">1.924</text><text class="centered" x="85.6508547009" y="202.166111951">2.899</text><text class="centered" x="158.236324786" y="22.434319829">4.903</text><text class="centered" x="230.821794872" y="291.123212139">1.907</text><text class="centered" x="303.407264957" y="111.244227284">3.913</text><text class="centered" x="375.992735043" y="289.204727188">1.929</text><text class="centered" x="448.578205128" y="198.392967177">2.941</text><text class="centered" x="521.163675214" y="292.5536816">1.891</text><text class="centered" x="593.749145299" y="377.704673966">942.02m</text><text class="centered" x="666.334615385" y="376.546863121">954.928m</text></g><g class="series serie-1 color-1"><text class="centered" x="13.0653846154" y="472.219513734">-111.645m</text><text class="centered" x="85.6508547009" y="202.166111951">2.899</text><text class="centered" x="158.236324786" y="22.434319829">4.903</text><text class="centered" x="230.821794872" y="291.123212139">1.907</text><text class="centered" x="303.407264957" y="470.541417806">-92.937m</text><text class="centered" x="375.992735043" y="467.93333403">-63.862m</text><text class="centered" x="448.578205128" y="288.486454445">1.937</text><text class="centered" x="521.163675214" y="376.802739362">952.075m</text><text class="centered" x="593.749145299" y="469.502235385">-81.352m</text><text class="centered" x="666.334615385" y="470.928607732">-97.253m</text></g><g class="series serie-2 color-2"><text class="centered" x="13.0653846154" y="289.642591108">1.924</text><text class="centered" x="85.6508547009" y="384.135386847">870.33m</text><text class="centered" x="158.236324786" y="384.2171896">869.418m</text><text class="centered" x="230.821794872" y="380.276279647">913.352m</text><text class="centered" x="303.407264957" y="469.040830573">-76.208m</text><text class="centered" x="375.992735043" y="289.204727188">1.929</text><text class="centered" x="448.578205128" y="479.654790086">-194.534m</text><text class="centered" x="521.163675214" y="379.371277784">923.441m</text><text class="centered" x="593.749145299" y="378.032562718">938.365m</text><text class="centered" x="666.334615385" y="378.51471883">932.99m</text></g></g><g class="plot tooltip-overlay" transform="translate(45, 46)"><g id="tooltip" style="opacity: 0" transform="translate(0 0)"><a><rect height="0" id="tooltip-box" rx="5" ry="5" width="0"/><text class="text"><tspan class="label"/><tspan class="value"/></text></a></g></g><g class="legends" transform="translate(734, 56)"><g class="legend reactive activate-serie" id="activate-serie-0"><rect class="color-0 reactive" height="12" width="12" x="0.0" y="1.0"/><text x="17.0" y="11.2">Best</text></g><g class="legend reactive activate-serie" id="activate-serie-1"><rect class="color-1 reactive" height="12" width="12" x="0.0" y="22.0"/><text x="17.0" y="32.2">#1</text></g><g class="legend reactive activate-serie" id="activate-serie-2"><rect class="color-2 reactive" height="12" width="12" x="0.0" y="43.0"/><text x="17.0" y="53.2">#2</text></g></g><text class="title" x="384.7" y="26">Evolution</text></g></svg>