<?xml version='1.0' encoding='utf-8'?>
<svg xmlns:xlink="http://www.w3.org/1999/xlink" xmlns="http://www.w3.org/2000/svg" viewBox="0 0 800 600"><!--Generated with pygal 0.13.0 ©Kozea 2012 on 2013-03-17--><!--http://pygal.org--><!--http://github.com/Kozea/pygal--><defs><style type="text/css">.title{font-family:monospace;font-size:16px}.legends .legend text{font-family:monospace;font-size:14px}.axis text{font-family:monospace;font-size:15px}.series text{font-family:monospace;font-size:0px}#tooltip text{font-family:monospace;font-size:20px}text.no_data{font-size:64px}</style><style type="text/css">svg{background-color:black}svg path,svg line,svg rect,svg circle{-webkit-transition:1s ease-out;-moz-transition:1s ease-out;transition:1s ease-out}.graph &gt; .background{fill:black}.plot &gt; .background{fill:#111}.graph{fill:#999}text.no_data{fill:#eee}.title{fill:#eee}.legends .legend text{fill:#999}.legends .legend:hover text{fill:#eee}.axis .line{stroke:#eee}.axis .guide.line{stroke:#555}.axis .major.line{stroke:#999}.axis text.major{stroke:#eee;fill:#eee}.axis.y .guides:hover .guide.line,.line-graph .axis.x .guides:hover .guide.line,.stackedline-graph .axis.x .guides:hover .guide.line,.xy-graph .axis.x .guides:hover .guide.line{stroke:#eee}.axis .guides:hover text{fill:#eee}.reactive{fill-opacity:.1}.reactive.active,.active .reactive{fill-opacity:.75}.series text{fill:#eee}#tooltip rect{fill:#111;stroke:#eee}#tooltip text{fill:#eee}.color-0{stroke:#ff5995;fill:#ff5995}.color-1{stroke:#b6e354;fill:#b6e354}.color-2{stroke:#feed6c;fill:#feed6c}.color-3{stroke:#8cedff;fill:#8cedff}.color-4{stroke:#9e6ffe;fill:#9e6ffe}.color-5{stroke:#899ca1;fill:#899ca1}.color-6{stroke:#f8f8f2;fill:#f8f8f2}.color-7{stroke:#bf4646;fill:#bf4646}.color-8{stroke:#516083;fill:#516083}.color-9{stroke:#f92672;fill:#f92672}.color-10{stroke:#82b414;fill:#82b414}.color-11{stroke:#fd971f;fill:#fd971f}.color-12{stroke:#56c2d6;fill:#56c2d6}.color-13{stroke:#808384;fill:#808384}.color-14{stroke:#8c54fe;fill:#8c54fe}.color-15{stroke:#465457;fill:#465457}</style><style type="text/css">text.no_data{text-anchor:middle}.guide.line{fill-opacity:0}.centered{text-anchor:middle}.title{text-anchor:middle}.legends .legend text{fill-opacity:1}.axis.x text{text-anchor:middle}.axis.x:not(.web) text[transform]{text-anchor:start}.axis.y text{text-anchor:end}.axis.y .logarithmic text:not(.major){font-size:50%}.axis .guide.line{stroke-dasharray:4,4}.axis .major.guide.line{stroke-dasharray:6,6}.axis text.major{stroke-width:0.5px}.horizontal .axis.y .guide.line,.vertical .axis.x .guide.line{opacity:0}.axis.y .guides:hover .guide.line,.line-graph .axis.x .guides:hover .guide.line,.gauge-graph .axis.x .guides:hover .guide.line,.stackedline-graph .axis.x .guides:hover .guide.line,.xy-graph .axis.x .guides:hover .guide.line{opacity:1}.axis .guides:hover text{opacity:1}.nofill{fill:none}.dot{stroke-width:1px;fill-opacity:1}.dot.active{stroke-width:5px}.series text{stroke:none}.series text.active{opacity:1}#tooltip rect{fill-opacity:0.8}#tooltip text{fill-opacity:1}#tooltip text tspan.label{fill-opacity:.8}a:visited{fill:none}</style><script type="text/javascript">window.config = {"truncate_legend": null, "print_values": true, "tooltip_font_size": 20, "height": 600, "legend_at_bottom": false, "show_legend": true, "show_dots": true, "explicit_size": false, "legend_font_size": 14, "fill": true, "style": {"opacity": ".1", "foreground": "#999", "plot_background": "#111", "_colors": ["#ff5995", "#b6e354", "#feed6c", "#8cedff", "#9e6ffe", "#899ca1", "#f8f8f2", "#bf4646", "#516083", "#f92672", "#82b414", "#fd971f", "#56c2d6", "#808384", "#8c54fe", "#465457"], "foreground_light": "#eee", "transition": "1s ease-out", "foreground_dark": "#555", "colors": ".color-0 {\n  stroke: #ff5995;\n  fill: #ff5995;\n}\n\n.color-1 {\n  stroke: #b6e354;\n  fill: #b6e354;\n}\n\n.color-2 {\n  stroke: #feed6c;\n  fill: #feed6c;\n}\n\n.color-3 {\n  stroke: #8cedff;\n  fill: #8cedff;\n}\n\n.color-4 {\n  stroke: #9e6ffe;\n  fill: #9e6ffe;\n}\n\n.color-5 {\n  stroke: #899ca1;\n  fill: #899ca1;\n}\n\n.color-6 {\n  stroke: #f8f8f2;\n  fill: #f8f8f2;\n}\n\n.color-7 {\n  stroke: #bf4646;\n  fill: #bf4646;\n}\n\n.color-8 {\n  stroke: #516083;\n  fill: #516083;\n}\n\n.color-9 {\n  stroke: #f92672;\n  fill: #f92672;\n}\n\n.color-10 {\n  stroke: #82b414;\n  fill: #82b414;\n}\n\n.color-11 {\n  stroke: #fd971f;\n  fill: #fd971f;\n}\n\n.color-12 {\n  stroke: #56c2d6;\n  fill: #56c2d6;\n}\n\n.color-13 {\n  stroke: #808384;\n  fill: #808384;\n}\n\n.color-14 {\n  stroke: #8c54fe;\n  fill: #8c54fe;\n}\n\n.color-15 {\n  stroke: #465457;\n  fill: #465457;\n}\n", "background": "black", "opacity_hover": ".75"}, "zero": 0, "title": "Evolution", "rounded_bars": null, "label_font_size": 15, "strict": false, "x_label_rotation": 0, "x_labels": ["0", "2", "4", "6", "8", "10", "12", "14", "16", "18", "20", "22", "24", "26", "28"], "value_font_size": 0, "disable_xml_declaration": false, "css": ["style.css", "graph.css"], "human_readable": true, "y_label_rotation": 0, "pretty_print": false, "interpolate": "cubic", "js": ["https://raw.github.com/Kozea/pygal.js/master/svg.jquery.js", "https://raw.github.com/Kozea/pygal.js/master/pygal-tooltips.js"], "y_labels": null, "interpolation_precision": 250, "no_data_font_size": 64, "logarithmic": false, "print_zeroes": false, "no_data_text": "No data", "legend_box_size": 12, "stroke": true, "include_x_axis": false, "range": null, "truncate_label": null, "order_min": null, "title_font_size": 16, "width": 800}</script><script type="text/javascript" xlink:href="https://raw.github.com/Kozea/pygal.js/master/svg.jquery.js"/><script type="text/javascript" xlink:href="https://raw.github.com/Kozea/pygal.js/master/pygal-tooltips.js"/></defs><g class="graph line-graph vertical"><rect class="background" height="600" width="800" x="0" y="0"/><g class="plot" transform="translate(48, 46)"><rect class="background" height="509" width="676.4" x="0" y="0"/><g class="axis x"><g class="guides"><path class="major line" d="M13.007692 0.000000 v509.000000"/><text class="major" x="13.0076923077" y="526.5">0</text></g><g class="guides"><path class="guide line" d="M59.463736 0.000000 v509.000000"/><text class="" x="59.4637362637" y="526.5">2</text></g><g class="guides"><path class="guide line" d="M105.919780 0.000000 v509.000000"/><text class="" x="105.91978022" y="526.5">4</text></g><g class="guides"><path class="guide line" d="M152.375824 0.000000 v509.000000"/><text class="" x="152.375824176" y="526.5">6</text></g><g class="guides"><path class="guide line" d="M198.831868 0.000000 v509.000000"/><text class="" x="198.831868132" y="526.5">8</text></g><g class="guides"><path class="guide line" d="M245.287912 0.000000 v509.000000"/><text class="" x="245.287912088" y="526.5">10</text></g><g class="guides"><path class="guide line" d="M291.743956 0.000000 v509.000000"/><text class="" x="291.743956044" y="526.5">12</text></g><g class="guides"><path class="guide line" d="M338.200000 0.000000 v509.000000"/><text class="" x="338.2" y="526.5">14</text></g><g class="guides"><path class="guide line" d="M384.656044 0.000000 v509.000000"/><text class="" x="384.656043956" y="526.5">16</text></g><g class="guides"><path class="guide line" d="M431.112088 0.000000 v509.000000"/><text class="" x="431.112087912" y="526.5">18</text></g><g class="guides"><path class="guide line" d="M477.568132 0.000000 v509.000000"/><text class="" x="477.568131868" y="526.5">20</text></g><g class="guides"><path class="guide line" d="M524.024176 0.000000 v509.000000"/><text class="" x="524.024175824" y="526.5">22</text></g><g class="guides"><path class="guide line" d="M570.480220 0.000000 v509.000000"/><text class="" x="570.48021978" y="526.5">24</text></g><g class="guides"><path class="guide line" d="M616.936264 0.000000 v509.000000"/><text class="" x="616.936263736" y="526.5">26</text></g><g class="guides"><path class="major guide line" d="M663.392308 0.000000 v509.000000"/><text class="major" x="663.392307692" y="526.5">28</text></g></g><g class="axis y"><g class="guides"><path class="major line" d="M0.000000 478.064168 h676.400000"/><text class="major" x="-5" y="483.314168487">0</text></g><g class="guides"><path class="major guide line" d="M0.000000 392.499106 h676.400000"/><text class="major" x="-5" y="397.749106461">10</text></g><g class="guides"><path class="guide line" d="M0.000000 306.934044 h676.400000"/><text class="" x="-5" y="312.184044434">20</text></g><g class="guides"><path class="guide line" d="M0.000000 221.368982 h676.400000"/><text class="" x="-5" y="226.618982408">30</text></g><g class="guides"><path class="guide line" d="M0.000000 135.803920 h676.400000"/><text class="" x="-5" y="141.053920381">40</text></g><g class="guides"><path class="guide line" d="M0.000000 50.238858 h676.400000"/><text class="" x="-5" y="55.4888583547">50</text></g></g><g class="series serie-0 color-0"><path class="line reactive" d="M13.007692 478.064168 L13.007692 415.036804 15.609231 402.980706 18.210769 391.933605 20.812308 381.844789 23.413846 372.663545 26.015385 364.339159 28.616923 356.820919 31.218462 350.058111 33.820000 344.000023 36.421538 338.595941 39.023077 333.795152 41.624615 329.546944 44.226154 325.800603 46.827692 322.505416 49.429231 319.610670 52.030769 317.065652 54.632308 314.819650 57.233846 312.821949 59.835385 311.021848 62.436923 309.374126 65.038462 307.847944 67.640000 306.414796 70.241538 305.046174 72.843077 303.713570 75.444615 302.388477 78.046154 301.042387 80.647692 299.646794 83.249231 298.173189 85.850769 296.593065 88.452308 294.877916 91.053846 292.999233 93.655385 290.928508 96.256923 288.637236 98.858462 286.096907 101.460000 283.279015 104.061538 280.155053 106.663077 276.696797 109.264615 272.900836 111.866154 268.807470 114.467692 264.461451 117.069231 259.907528 119.670769 255.190452 122.272308 250.354974 124.873846 245.445844 127.475385 240.507812 130.076923 235.585629 132.678462 230.724045 135.280000 225.967811 137.881538 221.361677 140.483077 216.950394 143.084615 212.778711 145.686154 208.891381 148.287692 205.333152 150.889231 202.148776 153.490769 199.382229 156.092308 197.051942 158.693846 195.145559 161.295385 193.648890 163.896923 192.547745 166.498462 191.827935 169.100000 191.475269 171.701538 191.475559 174.303077 191.814613 176.904615 192.478244 179.506154 193.452260 182.107692 194.722473 184.709231 196.274692 187.310769 198.094728 189.912308 200.168391 192.513846 202.481492 195.115385 205.019840 197.716923 207.769247 200.318462 210.714352 202.920000 213.820152 205.521538 217.035340 208.123077 220.308119 210.724615 223.586690 213.326154 226.819254 215.927692 229.954011 218.529231 232.939164 221.130769 235.722914 223.732308 238.253461 226.333846 240.479008 228.935385 242.347755 231.536923 243.807903 234.138462 244.807655 236.740000 245.295211 239.341538 245.218772 241.943077 244.526540 244.544615 243.166716 247.146154 241.095641 249.747692 238.349633 252.349231 235.010397 254.950769 231.160165 257.552308 226.881163 260.153846 222.255622 262.755385 217.365771 265.356923 212.293837 267.958462 207.122051 270.560000 201.932641 273.161538 196.807837 275.763077 191.829866 278.364615 187.080958 280.966154 182.643343 283.567692 178.599248 286.169231 175.030903 288.770769 172.020537 291.372308 169.650379 293.973846 167.986803 296.575385 166.998343 299.176923 166.616243 301.778462 166.771676 304.380000 167.395815 306.981538 168.419831 309.583077 169.774897 312.184615 171.392185 314.786154 173.202867 317.387692 175.138116 319.989231 177.129104 322.590769 179.107002 325.192308 181.002984 327.793846 182.748222 330.395385 184.273887 332.996923 185.511152 335.598462 186.391189 338.200000 186.845171 340.801538 186.819819 343.403077 186.324046 346.004615 185.382318 348.606154 184.019097 351.207692 182.258847 353.809231 180.126032 356.410769 177.645115 359.012308 174.840560 361.613846 171.736830 364.215385 168.358389 366.816923 164.729700 369.418462 160.875228 372.020000 156.819436 374.621538 152.586786 377.223077 148.201744 379.824615 143.688771 382.426154 139.072333 385.027692 134.376893 387.629231 129.627286 390.230769 124.849318 392.832308 120.068952 395.433846 115.312152 398.035385 110.604881 400.636923 105.973103 403.238462 101.442781 405.840000 97.039879 408.441538 92.790360 411.043077 88.720187 413.644615 84.855325 416.246154 81.221737 418.847692 77.845385 421.449231 74.752234 424.050769 71.968247 426.652308 69.519387 429.253846 67.431618 431.855385 65.730660 434.456923 64.420918 437.058462 63.469252 439.660000 62.838701 442.261538 62.492300 444.863077 62.393089 447.464615 62.504103 450.066154 62.788381 452.667692 63.208960 455.269231 63.728877 457.870769 64.311170 460.472308 64.918876 463.073846 65.515033 465.675385 66.062678 468.276923 66.524848 470.878462 66.864581 473.480000 67.044914 476.081538 67.028885 478.683077 66.780187 481.284615 66.284192 483.886154 65.552398 486.487692 64.597856 489.089231 63.433620 491.690769 62.072741 494.292308 60.528274 496.893846 58.813269 499.495385 56.940781 502.096923 54.923861 504.698462 52.775562 507.300000 50.508937 509.901538 48.137038 512.503077 45.672919 515.104615 43.129630 517.706154 40.520226 520.307692 37.857759 522.909231 35.155281 525.510769 32.426547 528.112308 29.697089 530.713846 27.002216 533.315385 24.377532 535.916923 21.858639 538.518462 19.481143 541.120000 17.280646 543.721538 15.292752 546.323077 13.553065 548.924615 12.097189 551.526154 10.960727 554.127692 10.179283 556.729231 9.788462 559.330769 9.823865 561.932308 10.321098 564.533846 11.315764 567.135385 12.843466 569.736923 14.939808 572.338462 17.635101 574.940000 20.907638 577.541538 24.706192 580.143077 28.979199 582.744615 33.675092 585.346154 38.742305 587.947692 44.129272 590.549231 49.784427 593.150769 55.656204 595.752308 61.693038 598.353846 67.843362 600.955385 74.055611 603.556923 80.278219 606.158462 86.459619 608.760000 92.548246 611.361538 98.492534 613.963077 104.240917 616.564615 109.741829 619.166154 114.941212 621.767692 119.769632 624.369231 124.151793 626.970769 128.012389 629.572308 131.276113 632.173846 133.867659 634.775385 135.711720 637.376923 136.732990 639.978462 136.856161 642.580000 136.005927 645.181538 134.106982 647.783077 131.084019 650.384615 126.861732 652.986154 121.364813 655.587692 114.517956 658.189231 106.245855 660.790769 96.473203 663.392308 85.124693 663.392308 478.064168"/></g><g class="series serie-1 color-1"><path class="line reactive" d="M13.007692 478.064168 L13.007692 415.036804 15.609231 417.272020 18.210769 419.061400 20.812308 420.410688 23.413846 421.325627 26.015385 421.811961 28.616923 421.875432 31.218462 421.521784 33.820000 420.756760 36.421538 419.586102 39.023077 418.015555 41.624615 416.050861 44.226154 413.697763 46.827692 410.962005 49.429231 407.849329 52.030769 404.365480 54.632308 400.516199 57.233846 396.307231 59.835385 391.744327 62.436923 386.838240 65.038462 381.612837 67.640000 376.094109 70.241538 370.308050 72.843077 364.280652 75.444615 358.037906 78.046154 351.605806 80.647692 345.010344 83.249231 338.277512 85.850769 331.433302 88.452308 324.503708 91.053846 317.514720 93.655385 310.492333 96.256923 303.462537 98.858462 296.451326 101.460000 289.484692 104.061538 282.588626 106.663077 275.789195 109.264615 269.118715 111.866154 262.620525 114.467692 256.339084 117.069231 250.318852 119.670769 244.604289 122.272308 239.239854 124.873846 234.270007 127.475385 229.739207 130.076923 225.691914 132.678462 222.172587 135.280000 219.225686 137.881538 216.895671 140.483077 215.227001 143.084615 214.264135 145.686154 214.051534 148.287692 214.633657 150.889231 216.054963 153.490769 218.357916 156.092308 221.519041 158.693846 225.435395 161.295385 229.999304 163.896923 235.103096 166.498462 240.639097 169.100000 246.499633 171.701538 252.577031 174.303077 258.763617 176.904615 264.951718 179.506154 271.033660 182.107692 276.901770 184.709231 282.448374 187.310769 287.565799 189.912308 292.146372 192.513846 296.082418 195.115385 299.266265 197.716923 301.590239 200.318462 302.952517 202.920000 303.349558 205.521538 302.859366 208.123077 301.562418 210.724615 299.539187 213.326154 296.870150 215.927692 293.635781 218.529231 289.916555 221.130769 285.792947 223.732308 281.345432 226.333846 276.654484 228.935385 271.800579 231.536923 266.864192 234.138462 261.925798 236.740000 257.065871 239.341538 252.364886 241.943077 247.903319 244.544615 243.761645 247.146154 240.013387 249.747692 236.663795 252.349231 233.679363 254.950769 231.026142 257.552308 228.670180 260.153846 226.577528 262.755385 224.714237 265.356923 223.046355 267.958462 221.539934 270.560000 220.161022 273.161538 218.875671 275.763077 217.649930 278.364615 216.449849 280.966154 215.241477 283.567692 213.990866 286.169231 212.664065 288.770769 211.227124 291.372308 209.646092 293.973846 207.894652 296.575385 205.993575 299.176923 203.981582 301.778462 201.897428 304.380000 199.779867 306.981538 197.667656 309.583077 195.599548 312.184615 193.614299 314.786154 191.750665 317.387692 190.047399 319.989231 188.543258 322.590769 187.276996 325.192308 186.287368 327.793846 185.613130 330.395385 185.293036 332.996923 185.365841 335.598462 185.870302 338.200000 186.845171 340.801538 188.307962 343.403077 190.191210 346.004615 192.406208 348.606154 194.864247 351.207692 197.476620 353.809231 200.154620 356.410769 202.809539 359.012308 205.352668 361.613846 207.695302 364.215385 209.748731 366.816923 211.424249 369.418462 212.633147 372.020000 213.286718 374.621538 213.296255 377.223077 212.573049 379.824615 211.028393 382.426154 208.573580 385.027692 205.119995 387.629231 200.626996 390.230769 195.179807 392.832308 188.884051 395.433846 181.845351 398.035385 174.169329 400.636923 165.961607 403.238462 157.327807 405.840000 148.373553 408.441538 139.204465 411.043077 129.926167 413.644615 120.644281 416.246154 111.464429 418.847692 102.492233 421.449231 93.833317 424.050769 85.593301 426.652308 77.877809 429.253846 70.792463 431.855385 64.442400 434.456923 58.890493 437.058462 54.125149 439.660000 50.127199 442.261538 46.877470 444.863077 44.356793 447.464615 42.545995 450.066154 41.425906 452.667692 40.977354 455.269231 41.181168 457.870769 42.018178 460.472308 43.469212 463.073846 45.515099 465.675385 48.136668 468.276923 51.314748 470.878462 55.030168 473.480000 59.263756 476.081538 63.996342 478.683077 69.207609 481.284615 74.839425 483.886154 80.788082 486.487692 86.947158 489.089231 93.210231 491.690769 99.470879 494.292308 105.622681 496.893846 111.559215 499.495385 117.174059 502.096923 122.360792 504.698462 127.012993 507.300000 131.024238 509.901538 134.288107 512.503077 136.698178 515.104615 138.148029 517.706154 138.531239 520.307692 137.741386 522.909231 135.672048 525.510769 132.225661 528.112308 127.453439 530.713846 121.530048 533.315385 114.633890 535.916923 106.943367 538.518462 98.636883 541.120000 89.892838 543.721538 80.889636 546.323077 71.805679 548.924615 62.819370 551.526154 54.109109 554.127692 45.853301 556.729231 38.230347 559.330769 31.418650 561.932308 25.596612 564.533846 20.942635 567.135385 17.635122 569.736923 15.852474 572.338462 15.755289 574.940000 17.329232 577.541538 20.460679 580.143077 25.034867 582.744615 30.937035 585.346154 38.052418 587.947692 46.266256 590.549231 55.463784 593.150769 65.530239 595.752308 76.350861 598.353846 87.810884 600.955385 99.795548 603.556923 112.190088 606.158462 124.879743 608.760000 137.749750 611.361538 150.685345 613.963077 163.571767 616.564615 176.294251 619.166154 188.727572 621.767692 200.681915 624.369231 211.942857 626.970769 222.295924 629.572308 231.526643 632.173846 239.420540 634.775385 245.763143 637.376923 250.339978 639.978462 252.936571 642.580000 253.338450 645.181538 251.331141 647.783077 246.700170 650.384615 239.231065 652.986154 228.709353 655.587692 214.920559 658.189231 197.650211 660.790769 176.683835 663.392308 151.806958 663.392308 478.064168"/></g><g class="series serie-2 color-2"><path class="line reactive" d="M13.007692 478.064168 L13.007692 456.332288 15.609231 467.417114 18.210769 476.702568 20.812308 484.270490 23.413846 490.202721 26.015385 494.581101 28.616923 497.487471 31.218462 499.003670 33.820000 499.211538 36.421538 498.192917 39.023077 496.029646 41.624615 492.803566 44.226154 488.596516 46.827692 483.490337 49.429231 477.566870 52.030769 470.907953 54.632308 463.595429 57.233846 455.711137 59.835385 447.336903 62.436923 438.547872 65.038462 429.401650 67.640000 419.952999 70.241538 410.256683 72.843077 400.367468 75.444615 390.340115 78.046154 380.229389 80.647692 370.090053 83.249231 359.976872 85.850769 349.944609 88.452308 340.048028 91.053846 330.341892 93.655385 320.880966 96.256923 311.720012 98.858462 302.913795 101.460000 294.517079 104.061538 286.584627 106.663077 279.170898 109.264615 272.303759 111.866154 265.964227 114.467692 260.128550 117.069231 254.772977 119.670769 249.873756 122.272308 245.407136 124.873846 241.349364 127.475385 237.676689 130.076923 234.365360 132.678462 231.391624 135.280000 228.731731 137.881538 226.361927 140.483077 224.258463 143.084615 222.397585 145.686154 220.755543 148.287692 219.308584 150.889231 218.032958 153.490769 216.905433 156.092308 215.920025 158.693846 215.091527 161.295385 214.435972 163.896923 213.969391 166.498462 213.707816 169.100000 213.667280 171.701538 213.863814 174.303077 214.313449 176.904615 215.032219 179.506154 216.036154 182.107692 217.341287 184.709231 218.963650 187.310769 220.919274 189.912308 223.224191 192.513846 225.894434 195.115385 228.946033 197.716923 232.395022 200.318462 236.254463 202.920000 240.487575 205.521538 245.016211 208.123077 249.760975 210.724615 254.642469 213.326154 259.581297 215.927692 264.498060 218.529231 269.313361 221.130769 273.947805 223.732308 278.321992 226.333846 282.356527 228.935385 285.972012 231.536923 289.089049 234.138462 291.628242 236.740000 293.510193 239.341538 294.655506 241.943077 294.984782 244.544615 294.418625 247.146154 292.889263 249.747692 290.443133 252.349231 287.191493 254.950769 283.246348 257.552308 278.719700 260.153846 273.723554 262.755385 268.369914 265.356923 262.770782 267.958462 257.038162 270.560000 251.284059 273.161538 245.620475 275.763077 240.159414 278.364615 235.012880 280.966154 230.292876 283.567692 226.111406 286.169231 222.580473 288.770769 219.812082 291.372308 217.918235 293.973846 216.988742 296.575385 216.976447 299.176923 217.781994 301.778462 219.305928 304.380000 221.448792 306.981538 224.111128 309.583077 227.193479 312.184615 230.596390 314.786154 234.220402 317.387692 237.966060 319.989231 241.733905 322.590769 245.424482 325.192308 248.938334 327.793846 252.176003 330.395385 255.038033 332.996923 257.424966 335.598462 259.237347 338.200000 260.375718 340.801538 260.767493 343.403077 260.447569 346.004615 259.477714 348.606154 257.919696 351.207692 255.835284 353.809231 253.286245 356.410769 250.334347 359.012308 247.041357 361.613846 243.469045 364.215385 239.679178 366.816923 235.733524 369.418462 231.693851 372.020000 227.621927 374.621538 223.579520 377.223077 219.628398 379.824615 215.830328 382.426154 212.247080 385.027692 208.940380 387.629231 205.951822 390.230769 203.270155 392.832308 200.875570 395.433846 198.748255 398.035385 196.868402 400.636923 195.216198 403.238462 193.771833 405.840000 192.515497 408.441538 191.427379 411.043077 190.487668 413.644615 189.676554 416.246154 188.974227 418.847692 188.360875 421.449231 187.816688 424.050769 187.321856 426.652308 186.856568 429.253846 186.401013 431.855385 185.935408 434.456923 185.442268 437.058462 184.908161 439.660000 184.320068 442.261538 183.664970 444.863077 182.929847 447.464615 182.101681 450.066154 181.167452 452.667692 180.114141 455.269231 178.928729 457.870769 177.598196 460.472308 176.109524 463.073846 174.449692 465.675385 172.605682 468.276923 170.564474 470.878462 168.313050 473.480000 165.838389 476.081538 163.127474 478.683077 160.167912 481.284615 156.968082 483.886154 153.561389 486.487692 149.982729 489.089231 146.266998 491.690769 142.449092 494.292308 138.563906 496.893846 134.646337 499.495385 130.731280 502.096923 126.853632 504.698462 123.048288 507.300000 119.350144 509.901538 115.794096 512.503077 112.415039 515.104615 109.247871 517.706154 106.327485 520.307692 103.688780 522.909231 101.366649 525.510769 99.394163 528.112308 97.773692 530.713846 96.482140 533.315385 95.495638 535.916923 94.790318 538.518462 94.342309 541.120000 94.127744 543.721538 94.122754 546.323077 94.303470 548.924615 94.646023 551.526154 95.126546 554.127692 95.721168 556.729231 96.406021 559.330769 97.157237 561.932308 97.950946 564.533846 98.763280 567.135385 99.570371 569.736923 100.348349 572.338462 101.075198 574.940000 101.747086 577.541538 102.370507 580.143077 102.952072 582.744615 103.498392 585.346154 104.016079 587.947692 104.511743 590.549231 104.991997 593.150769 105.463451 595.752308 105.932716 598.353846 106.406404 600.955385 106.891126 603.556923 107.393493 606.158462 107.920117 608.760000 108.477609 611.361538 109.072579 613.963077 109.711640 616.564615 110.401403 619.166154 111.149850 621.767692 111.973434 624.369231 112.891834 626.970769 113.924733 629.572308 115.091818 632.173846 116.412773 634.775385 117.907283 637.376923 119.595034 639.978462 121.495710 642.580000 123.628996 645.181538 126.014578 647.783077 128.672141 650.384615 131.621369 652.986154 134.881947 655.587692 138.473562 658.189231 142.415897 660.790769 146.728637 663.392308 151.431469 663.392308 478.064168"/></g></g><g class="plot overlay" transform="translate(48, 46)"><g class="series serie-0 color-0"><g class="dots"><circle class="dot reactive tooltip-trigger" cx="13.0076923077" cy="415.036804409" r="2.5"/><desc class="value">7.366</desc><desc class="x top">13.0076923077</desc><desc class="y top">415.036804409</desc></g><g class="dots"><circle class="dot reactive tooltip-trigger" cx="59.4637362637" cy="311.268820965" r="2.5"/><desc class="value">19.493</desc><desc class="x top">59.4637362637</desc><desc class="y top">311.268820965</desc></g><g class="dots"><circle class="dot reactive tooltip-trigger" cx="105.91978022" cy="277.720469359" r="2.5"/><desc class="value">23.414</desc><desc class="x top">105.91978022</desc><desc class="y top">277.720469359</desc></g><g class="dots"><circle class="dot reactive tooltip-trigger" cx="152.375824176" cy="200.514205781" r="2.5"/><desc class="value">32.437</desc><desc class="x ">152.375824176</desc><desc class="y ">200.514205781</desc></g><g class="dots"><circle class="dot reactive tooltip-trigger" cx="198.831868132" cy="209.008656878" r="2.5"/><desc class="value">31.445</desc><desc class="x ">198.831868132</desc><desc class="y ">209.008656878</desc></g><g class="dots"><circle class="dot reactive tooltip-trigger" cx="245.287912088" cy="242.648326608" r="2.5"/><desc class="value">27.513</desc><desc class="x ">245.287912088</desc><desc class="y ">242.648326608</desc></g><g class="dots"><circle class="dot reactive tooltip-trigger" cx="291.743956044" cy="169.368841649" r="2.5"/><desc class="value">36.077</desc><desc class="x ">291.743956044</desc><desc class="y ">169.368841649</desc></g><g class="dots"><circle class="dot reactive tooltip-trigger" cx="338.2" cy="186.845171463" r="2.5"/><desc class="value">34.035</desc><desc class="x ">338.2</desc><desc class="y ">186.845171463</desc></g><g class="dots"><circle class="dot reactive tooltip-trigger" cx="384.656043956" cy="135.051579417" r="2.5"/><desc class="value">40.088</desc><desc class="x left">384.656043956</desc><desc class="y left">135.051579417</desc></g><g class="dots"><circle class="dot reactive tooltip-trigger" cx="431.112087912" cy="66.1758133003" r="2.5"/><desc class="value">48.137</desc><desc class="x left">431.112087912</desc><desc class="y left">66.1758133003</desc></g><g class="dots"><circle class="dot reactive tooltip-trigger" cx="477.568131868" cy="66.91733821" r="2.5"/><desc class="value">48.051</desc><desc class="x left">477.568131868</desc><desc class="y left">66.91733821</desc></g><g class="dots"><circle class="dot reactive tooltip-trigger" cx="524.024175824" cy="33.9880630607" r="2.5"/><desc class="value">51.899</desc><desc class="x left">524.024175824</desc><desc class="y left">33.9880630607</desc></g><g class="dots"><circle class="dot reactive tooltip-trigger" cx="570.48021978" cy="15.648190125" r="2.5"/><desc class="value">54.043</desc><desc class="x left">570.48021978</desc><desc class="y left">15.648190125</desc></g><g class="dots"><circle class="dot reactive tooltip-trigger" cx="616.936263736" cy="110.504464731" r="2.5"/><desc class="value">42.957</desc><desc class="x left">616.936263736</desc><desc class="y left">110.504464731</desc></g><g class="dots"><circle class="dot reactive tooltip-trigger" cx="663.392307692" cy="85.1246932139" r="2.5"/><desc class="value">45.923</desc><desc class="x left">663.392307692</desc><desc class="y left">85.1246932139</desc></g></g><g class="series serie-1 color-1"><g class="dots"><circle class="dot reactive tooltip-trigger" cx="13.0076923077" cy="415.036804409" r="2.5"/><desc class="value">7.366</desc><desc class="x top">13.0076923077</desc><desc class="y top">415.036804409</desc></g><g class="dots"><circle class="dot reactive tooltip-trigger" cx="59.4637362637" cy="392.41761454" r="2.5"/><desc class="value">10.01</desc><desc class="x top">59.4637362637</desc><desc class="y top">392.41761454</desc></g><g class="dots"><circle class="dot reactive tooltip-trigger" cx="105.91978022" cy="277.720469359" r="2.5"/><desc class="value">23.414</desc><desc class="x top">105.91978022</desc><desc class="y top">277.720469359</desc></g><g class="dots"><circle class="dot reactive tooltip-trigger" cx="152.375824176" cy="217.261023712" r="2.5"/><desc class="value">30.48</desc><desc class="x ">152.375824176</desc><desc class="y ">217.261023712</desc></g><g class="dots"><circle class="dot reactive tooltip-trigger" cx="198.831868132" cy="302.296318493" r="2.5"/><desc class="value">20.542</desc><desc class="x top">198.831868132</desc><desc class="y top">302.296318493</desc></g><g class="dots"><circle class="dot reactive tooltip-trigger" cx="245.287912088" cy="242.648326608" r="2.5"/><desc class="value">27.513</desc><desc class="x ">245.287912088</desc><desc class="y ">242.648326608</desc></g><g class="dots"><circle class="dot reactive tooltip-trigger" cx="291.743956044" cy="209.406488518" r="2.5"/><desc class="value">31.398</desc><desc class="x ">291.743956044</desc><desc class="y ">209.406488518</desc></g><g class="dots"><circle class="dot reactive tooltip-trigger" cx="338.2" cy="186.845171463" r="2.5"/><desc class="value">34.035</desc><desc class="x ">338.2</desc><desc class="y ">186.845171463</desc></g><g class="dots"><circle class="dot reactive tooltip-trigger" cx="384.656043956" cy="205.677800649" r="2.5"/><desc class="value">31.834</desc><desc class="x left">384.656043956</desc><desc class="y left">205.677800649</desc></g><g class="dots"><circle class="dot reactive tooltip-trigger" cx="431.112087912" cy="66.1758133003" r="2.5"/><desc class="value">48.137</desc><desc class="x left">431.112087912</desc><desc class="y left">66.1758133003</desc></g><g class="dots"><circle class="dot reactive tooltip-trigger" cx="477.568131868" cy="66.91733821" r="2.5"/><desc class="value">48.051</desc><desc class="x left">477.568131868</desc><desc class="y left">66.91733821</desc></g><g class="dots"><circle class="dot reactive tooltip-trigger" cx="524.024175824" cy="134.367137075" r="2.5"/><desc class="value">40.168</desc><desc class="x left">524.024175824</desc><desc class="y left">134.367137075</desc></g><g class="dots"><circle class="dot reactive tooltip-trigger" cx="570.48021978" cy="15.648190125" r="2.5"/><desc class="value">54.043</desc><desc class="x left">570.48021978</desc><desc class="y left">15.648190125</desc></g><g class="dots"><circle class="dot reactive tooltip-trigger" cx="616.936263736" cy="178.091674945" r="2.5"/><desc class="value">35.058</desc><desc class="x left">616.936263736</desc><desc class="y left">178.091674945</desc></g><g class="dots"><circle class="dot reactive tooltip-trigger" cx="663.392307692" cy="151.806957843" r="2.5"/><desc class="value">38.13</desc><desc class="x left">663.392307692</desc><desc class="y left">151.806957843</desc></g></g><g class="series serie-2 color-2"><g class="dots"><circle class="dot reactive tooltip-trigger" cx="13.0076923077" cy="456.332288477" r="2.5"/><desc class="value">2.54</desc><desc class="x top">13.0076923077</desc><desc class="y top">456.332288477</desc></g><g class="dots"><circle class="dot reactive tooltip-trigger" cx="59.4637362637" cy="448.560127317" r="2.5"/><desc class="value">3.448</desc><desc class="x top">59.4637362637</desc><desc class="y top">448.560127317</desc></g><g class="dots"><circle class="dot reactive tooltip-trigger" cx="105.91978022" cy="281.233169381" r="2.5"/><desc class="value">23.004</desc><desc class="x top">105.91978022</desc><desc class="y top">281.233169381</desc></g><g class="dots"><circle class="dot reactive tooltip-trigger" cx="152.375824176" cy="217.371812095" r="2.5"/><desc class="value">30.467</desc><desc class="x ">152.375824176</desc><desc class="y ">217.371812095</desc></g><g class="dots"><circle class="dot reactive tooltip-trigger" cx="198.831868132" cy="233.998782268" r="2.5"/><desc class="value">28.524</desc><desc class="x ">198.831868132</desc><desc class="y ">233.998782268</desc></g><g class="dots"><circle class="dot reactive tooltip-trigger" cx="245.287912088" cy="294.081287938" r="2.5"/><desc class="value">21.502</desc><desc class="x top">245.287912088</desc><desc class="y top">294.081287938</desc></g><g class="dots"><circle class="dot reactive tooltip-trigger" cx="291.743956044" cy="217.725607368" r="2.5"/><desc class="value">30.426</desc><desc class="x ">291.743956044</desc><desc class="y ">217.725607368</desc></g><g class="dots"><circle class="dot reactive tooltip-trigger" cx="338.2" cy="260.375717774" r="2.5"/><desc class="value">25.441</desc><desc class="x top">338.2</desc><desc class="y top">260.375717774</desc></g><g class="dots"><circle class="dot reactive tooltip-trigger" cx="384.656043956" cy="209.393524884" r="2.5"/><desc class="value">31.4</desc><desc class="x left">384.656043956</desc><desc class="y left">209.393524884</desc></g><g class="dots"><circle class="dot reactive tooltip-trigger" cx="431.112087912" cy="186.07060271" r="2.5"/><desc class="value">34.125</desc><desc class="x left">431.112087912</desc><desc class="y left">186.07060271</desc></g><g class="dots"><circle class="dot reactive tooltip-trigger" cx="477.568131868" cy="161.467294844" r="2.5"/><desc class="value">37.001</desc><desc class="x left">477.568131868</desc><desc class="y left">161.467294844</desc></g><g class="dots"><circle class="dot reactive tooltip-trigger" cx="524.024175824" cy="100.477009051" r="2.5"/><desc class="value">44.129</desc><desc class="x left">524.024175824</desc><desc class="y left">100.477009051</desc></g><g class="dots"><circle class="dot reactive tooltip-trigger" cx="570.48021978" cy="100.561941384" r="2.5"/><desc class="value">44.119</desc><desc class="x left">570.48021978</desc><desc class="y left">100.561941384</desc></g><g class="dots"><circle class="dot reactive tooltip-trigger" cx="616.936263736" cy="110.504464731" r="2.5"/><desc class="value">42.957</desc><desc class="x left">616.936263736</desc><desc class="y left">110.504464731</desc></g><g class="dots"><circle class="dot reactive tooltip-trigger" cx="663.392307692" cy="151.431468732" r="2.5"/><desc class="value">38.174</desc><desc class="x left">663.392307692</desc><desc class="y left">151.431468732</desc></g></g></g><g class="plot text-overlay" transform="translate(48, 46)"><g class="series serie-0 color-0"><text class="centered" x="13.0076923077" y="415.036804409">7.366</text><text class="centered" x="59.4637362637" y="311.268820965">19.493</text><text class="centered" x="105.91978022" y="277.720469359">23.414</text><text class="centered" x="152.375824176" y="200.514205781">32.437</text><text class="centered" x="198.831868132" y="209.008656878">31.445</text><text class="centered" x="245.287912088" y="242.648326608">27.513</text><text class="centered" x="291.743956044" y="169.368841649">36.077</text><text class="centered" x="338.2" y="186.845171463">34.035</text><text class="centered" x="384.656043956" y="135.051579417">40.088</text><text class="centered" x="431.112087912" y="66.1758133003">48.137</text><text class="centered" x="477.568131868" y="66.91733821">48.051</text><text class="centered" x="524.024175824" y="33.9880630607">51.899</text><text class="centered" x="570.48021978" y="15.648190125">54.043</text><text class="centered" x="616.936263736" y="110.504464731">42.957</text><text class="centered" x="663.392307692" y="85.1246932139">45.923</text></g><g class="series serie-1 color-1"><text class="centered" x="13.0076923077" y="415.036804409">7.366</text><text class="centered" x="59.4637362637" y="392.41761454">10.01</text><text class="centered" x="105.91978022" y="277.720469359">23.414</text><text class="centered" x="152.375824176" y="217.261023712">30.48</text><text class="centered" x="198.831868132" y="302.296318493">20.542</text><text class="centered" x="245.287912088" y="242.648326608">27.513</text><text class="centered" x="291.743956044" y="209.406488518">31.398</text><text class="centered" x="338.2" y="186.845171463">34.035</text><text class="centered" x="384.656043956" y="205.677800649">31.834</text><text class="centered" x="431.112087912" y="66.1758133003">48.137</text><text class="centered" x="477.568131868" y="66.91733821">48.051</text><text class="centered" x="524.024175824" y="134.367137075">40.168</text><text class="centered" x="570.48021978" y="15.648190125">54.043</text><text class="centered" x="616.936263736" y="178.091674945">35.058</text><text class="centered" x="663.392307692" y="151.806957843">38.13</text></g><g class="series serie-2 color-2"><text class="centered" x="13.0076923077" y="456.332288477">2.54</text><text class="centered" x="59.4637362637" y="448.560127317">3.448</text><text class="centered" x="105.91978022" y="281.233169381">23.004</text><text class="centered" x="152.375824176" y="217.371812095">30.467</text><text class="centered" x="198.831868132" y="233.998782268">28.524</text><text class="centered" x="245.287912088" y="294.081287938">21.502</text><text class="centered" x="291.743956044" y="217.725607368">30.426</text><text class="centered" x="338.2" y="260.375717774">25.441</text><text class="centered" x="384.656043956" y="209.393524884">31.4</text><text class="centered" x="431.112087912" y="186.07060271">34.125</text><text class="centered" x="477.568131868" y="161.467294844">37.001</text><text class="centered" x="524.024175824" y="100.477009051">44.129</text><text class="centered" x="570.48021978" y="100.561941384">44.119</text><text class="centered" x="616.936263736" y="110.504464731">42.957</text><text class="centered" x="663.392307692" y="151.431468732">38.174</text></g></g><g class="plot tooltip-overlay" transform="translate(48, 46)"><g id="tooltip" style="opacity: 0" transform="translate(0 0)"><a><rect height="0" id="tooltip-box" rx="5" ry="5" width="0"/><text class="text"><tspan class="label"/><tspan class="value"/></text></a></g></g><g class="legends" transform="translate(734, 56)"><g class="legend reactive activate-serie" id="activate-serie-0"><rect class="color-0 reactive" height="12" width="12" x="0.0" y="1.0"/><text x="17.0" y="11.2">Best</text></g><g class="legend reactive activate-serie" id="activate-serie-1"><rect class="color-1 reactive" height="12" width="12" x="0.0" y="22.0"/><text x="17.0" y="32.2">#1</text></g><g class="legend reactive activate-serie" id="activate-serie-2"><rect class="color-2 reactive" height="12" width="12" x="0.0" y="43.0"/><text x="17.0" y="53.2">#2</text></g></g><text class="title" x="386.2" y="26">Evolution</text></g></svg>