<?xml version='1.0' encoding='utf-8'?>
<svg xmlns:xlink="http://www.w3.org/1999/xlink" xmlns="http://www.w3.org/2000/svg" viewBox="0 0 800 600"><!--Generated with pygal 0.13.0 ©Kozea 2012 on 2013-03-12--><!--http://pygal.org--><!--http://github.com/Kozea/pygal--><defs><style type="text/css">.title{font-family:monospace;font-size:16px}.legends .legend text{font-family:monospace;font-size:14px}.axis text{font-family:monospace;font-size:15px}.series text{font-family:monospace;font-size:0px}#tooltip text{font-family:monospace;font-size:20px}text.no_data{font-size:64px}</style><style type="text/css">svg{background-color:black}svg path,svg line,svg rect,svg circle{-webkit-transition:1s ease-out;-moz-transition:1s ease-out;transition:1s ease-out}.graph &gt; .background{fill:black}.plot &gt; .background{fill:#111}.graph{fill:#999}text.no_data{fill:#eee}.title{fill:#eee}.legends .legend text{fill:#999}.legends .legend:hover text{fill:#eee}.axis .line{stroke:#eee}.axis .guide.line{stroke:#555}.axis .major.line{stroke:#999}.axis text.major{stroke:#eee;fill:#eee}.axis.y .guides:hover .guide.line,.line-graph .axis.x .guides:hover .guide.line,.stackedline-graph .axis.x .guides:hover .guide.line,.xy-graph .axis.x .guides:hover .guide.line{stroke:#eee}.axis .guides:hover text{fill:#eee}.reactive{fill-opacity:.1}.reactive.active,.active .reactive{fill-opacity:.75}.series text{fill:#eee}#tooltip rect{fill:#111;stroke:#eee}#tooltip text{fill:#eee}.color-0{stroke:#ff5995;fill:#ff5995}.color-1{stroke:#b6e354;fill:#b6e354}.color-2{stroke:#feed6c;fill:#feed6c}.color-3{stroke:#8cedff;fill:#8cedff}.color-4{stroke:#9e6ffe;fill:#9e6ffe}.color-5{stroke:#899ca1;fill:#899ca1}.color-6{stroke:#f8f8f2;fill:#f8f8f2}.color-7{stroke:#bf4646;fill:#bf4646}.color-8{stroke:#516083;fill:#516083}.color-9{stroke:#f92672;fill:#f92672}.color-10{stroke:#82b414;fill:#82b414}.color-11{stroke:#fd971f;fill:#fd971f}.color-12{stroke:#56c2d6;fill:#56c2d6}.color-13{stroke:#808384;fill:#808384}.color-14{stroke:#8c54fe;fill:#8c54fe}.color-15{stroke:#465457;fill:#465457}</style><style type="text/css">text.no_data{text-anchor:middle}.guide.line{fill-opacity:0}.centered{text-anchor:middle}.title{text-anchor:middle}.legends .legend text{fill-opacity:1}.axis.x text{text-anchor:middle}.axis.x:not(.web) text[transform]{text-anchor:start}.axis.y text{text-anchor:end}.axis.y .logarithmic text:not(.major){font-size:50%}.axis .guide.line{stroke-dasharray:4,4}.axis .major.guide.line{stroke-dasharray:6,6}.axis text.major{stroke-width:0.5px}.horizontal .axis.y .guide.line,.vertical .axis.x .guide.line{opacity:0}.axis.y .guides:hover .guide.line,.line-graph .axis.x .guides:hover .guide.line,.gauge-graph .axis.x .guides:hover .guide.line,.stackedline-graph .axis.x .guides:hover .guide.line,.xy-graph .axis.x .guides:hover .guide.line{opacity:1}.axis .guides:hover text{opacity:1}.nofill{fill:none}.dot{stroke-width:1px;fill-opacity:1}.dot.active{stroke-width:5px}.series text{stroke:none}.series text.active{opacity:1}#tooltip rect{fill-opacity:0.8}#tooltip text{fill-opacity:1}#tooltip text tspan.label{fill-opacity:.8}a:visited{fill:none}</style><script type="text/javascript">window.config = {"truncate_legend": null, "print_values": true, "tooltip_font_size": 20, "height": 600, "legend_at_bottom": false, "show_legend": false, "show_dots": true, "explicit_size": false, "legend_font_size": 14, "fill": true, "style": {"opacity": ".1", "foreground": "#999", "plot_background": "#111", "_colors": ["#ff5995", "#b6e354", "#feed6c", "#8cedff", "#9e6ffe", "#899ca1", "#f8f8f2", "#bf4646", "#516083", "#f92672", "#82b414", "#fd971f", "#56c2d6", "#808384", "#8c54fe", "#465457"], "foreground_light": "#eee", "transition": "1s ease-out", "foreground_dark": "#555", "colors": ".color-0 {\n  stroke: #ff5995;\n  fill: #ff5995;\n}\n\n.color-1 {\n  stroke: #b6e354;\n  fill: #b6e354;\n}\n\n.color-2 {\n  stroke: #feed6c;\n  fill: #feed6c;\n}\n\n.color-3 {\n  stroke: #8cedff;\n  fill: #8cedff;\n}\n\n.color-4 {\n  stroke: #9e6ffe;\n  fill: #9e6ffe;\n}\n\n.color-5 {\n  stroke: #899ca1;\n  fill: #899ca1;\n}\n\n.color-6 {\n  stroke: #f8f8f2;\n  fill: #f8f8f2;\n}\n\n.color-7 {\n  stroke: #bf4646;\n  fill: #bf4646;\n}\n\n.color-8 {\n  stroke: #516083;\n  fill: #516083;\n}\n\n.color-9 {\n  stroke: #f92672;\n  fill: #f92672;\n}\n\n.color-10 {\n  stroke: #82b414;\n  fill: #82b414;\n}\n\n.color-11 {\n  stroke: #fd971f;\n  fill: #fd971f;\n}\n\n.color-12 {\n  stroke: #56c2d6;\n  fill: #56c2d6;\n}\n\n.color-13 {\n  stroke: #808384;\n  fill: #808384;\n}\n\n.color-14 {\n  stroke: #8c54fe;\n  fill: #8c54fe;\n}\n\n.color-15 {\n  stroke: #465457;\n  fill: #465457;\n}\n", "background": "black", "opacity_hover": ".75"}, "zero": 0, "title": "Evolution", "rounded_bars": null, "label_font_size": 15, "strict": false, "x_label_rotation": 0, "x_labels": ["1", "2", "3", "4", "5", "6", "7", "8", "9", "10", "11", "12", "13", "14"], "value_font_size": 0, "disable_xml_declaration": false, "css": ["style.css", "graph.css"], "human_readable": true, "y_label_rotation": 0, "pretty_print": false, "interpolate": "cubic", "js": ["https://raw.github.com/Kozea/pygal.js/master/svg.jquery.js", "https://raw.github.com/Kozea/pygal.js/master/pygal-tooltips.js"], "y_labels": null, "interpolation_precision": 250, "no_data_font_size": 64, "logarithmic": false, "print_zeroes": false, "no_data_text": "No data", "legend_box_size": 12, "stroke": true, "include_x_axis": false, "range": null, "truncate_label": null, "order_min": null, "title_font_size": 16, "width": 800}</script><script type="text/javascript" xlink:href="https://raw.github.com/Kozea/pygal.js/master/svg.jquery.js"/><script type="text/javascript" xlink:href="https://raw.github.com/Kozea/pygal.js/master/pygal-tooltips.js"/></defs><g class="graph line-graph vertical"><rect class="background" height="600" width="800" x="0" y="0"/><g class="plot" transform="translate(48, 46)"><rect class="background" height="509" width="732.0" x="0" y="0"/><g class="axis x"><g class="guides"><path class="major line" d="M14.076923 0.000000 v509.000000"/><text class="major" x="14.0769230769" y="526.5">1</text></g><g class="guides"><path class="guide line" d="M68.218935 0.000000 v509.000000"/><text class="" x="68.2189349112" y="526.5">2</text></g><g class="guides"><path class="guide line" d="M122.360947 0.000000 v509.000000"/><text class="" x="122.360946746" y="526.5">3</text></g><g class="guides"><path class="guide line" d="M176.502959 0.000000 v509.000000"/><text class="" x="176.50295858" y="526.5">4</text></g><g class="guides"><path class="guide line" d="M230.644970 0.000000 v509.000000"/><text class="" x="230.644970414" y="526.5">5</text></g><g class="guides"><path class="guide line" d="M284.786982 0.000000 v509.000000"/><text class="" x="284.786982249" y="526.5">6</text></g><g class="guides"><path class="guide line" d="M338.928994 0.000000 v509.000000"/><text class="" x="338.928994083" y="526.5">7</text></g><g class="guides"><path class="guide line" d="M393.071006 0.000000 v509.000000"/><text class="" x="393.071005917" y="526.5">8</text></g><g class="guides"><path class="guide line" d="M447.213018 0.000000 v509.000000"/><text class="" x="447.213017751" y="526.5">9</text></g><g class="guides"><path class="guide line" d="M501.355030 0.000000 v509.000000"/><text class="" x="501.355029586" y="526.5">10</text></g><g class="guides"><path class="guide line" d="M555.497041 0.000000 v509.000000"/><text class="" x="555.49704142" y="526.5">11</text></g><g class="guides"><path class="guide line" d="M609.639053 0.000000 v509.000000"/><text class="" x="609.639053254" y="526.5">12</text></g><g class="guides"><path class="guide line" d="M663.781065 0.000000 v509.000000"/><text class="" x="663.781065089" y="526.5">13</text></g><g class="guides"><path class="major guide line" d="M717.923077 0.000000 v509.000000"/><text class="major" x="717.923076923" y="526.5">14</text></g></g><g class="axis y"><path class="line" d="M0.000000 509.000000 h732.000000"/><g class="guides"><path class="guide line" d="M0.000000 488.241145 h732.000000"/><text class="" x="-5" y="493.491145408">4</text></g><g class="guides"><path class="guide line" d="M0.000000 449.126657 h732.000000"/><text class="" x="-5" y="454.376657372">6</text></g><g class="guides"><path class="guide line" d="M0.000000 410.012169 h732.000000"/><text class="" x="-5" y="415.262169335">8</text></g><g class="guides"><path class="major guide line" d="M0.000000 370.897681 h732.000000"/><text class="major" x="-5" y="376.147681299">10</text></g><g class="guides"><path class="guide line" d="M0.000000 331.783193 h732.000000"/><text class="" x="-5" y="337.033193263">12</text></g><g class="guides"><path class="guide line" d="M0.000000 292.668705 h732.000000"/><text class="" x="-5" y="297.918705227">14</text></g><g class="guides"><path class="guide line" d="M0.000000 253.554217 h732.000000"/><text class="" x="-5" y="258.804217191">16</text></g><g class="guides"><path class="guide line" d="M0.000000 214.439729 h732.000000"/><text class="" x="-5" y="219.689729154">18</text></g><g class="guides"><path class="guide line" d="M0.000000 175.325241 h732.000000"/><text class="" x="-5" y="180.575241118">20</text></g><g class="guides"><path class="guide line" d="M0.000000 136.210753 h732.000000"/><text class="" x="-5" y="141.460753082">22</text></g><g class="guides"><path class="guide line" d="M0.000000 97.096265 h732.000000"/><text class="" x="-5" y="102.346265046">24</text></g><g class="guides"><path class="guide line" d="M0.000000 57.981777 h732.000000"/><text class="" x="-5" y="63.2317770094">26</text></g><g class="guides"><path class="guide line" d="M0.000000 18.867289 h732.000000"/><text class="" x="-5" y="24.1172889732">28</text></g></g><g class="series serie-0 color-0"><path class="line reactive" d="M14.076923 509.000000 L14.076923 9.788462 16.892308 17.296494 19.707692 25.448144 22.523077 34.191442 25.338462 43.474417 28.153846 53.245101 30.969231 63.451524 33.784615 74.041716 36.600000 84.963707 39.415385 96.165529 42.230769 107.595210 45.046154 119.200783 47.861538 130.930277 50.676923 142.731723 53.492308 154.553151 56.307692 166.342591 59.123077 178.048074 61.938462 189.617630 64.753846 200.999290 67.569231 212.141084 70.384615 222.993474 73.200000 233.526781 76.015385 243.721023 78.830769 253.556283 81.646154 263.012645 84.461538 272.070191 87.276923 280.709007 90.092308 288.909175 92.907692 296.650779 95.723077 303.913902 98.538462 310.678629 101.353846 316.925041 104.169231 322.633224 106.984615 327.783260 109.800000 332.355234 112.615385 336.329228 115.430769 339.685326 118.246154 342.403611 121.061538 344.464168 123.876923 345.849263 126.692308 346.583346 129.507692 346.729024 132.323077 346.350279 135.138462 345.511091 137.953846 344.275442 140.769231 342.707313 143.584615 340.870685 146.400000 338.829539 149.215385 336.647857 152.030769 334.389619 154.846154 332.118808 157.661538 329.899403 160.476923 327.795387 163.292308 325.870740 166.107692 324.189444 168.923077 322.815480 171.738462 321.812829 174.553846 321.245472 177.369231 321.176872 180.184615 321.632733 183.000000 322.576071 185.815385 323.963992 188.630769 325.753600 191.446154 327.902002 194.261538 330.366302 197.076923 333.103607 199.892308 336.071020 202.707692 339.225648 205.523077 342.524596 208.338462 345.924970 211.153846 349.383874 213.969231 352.858413 216.784615 356.305695 219.600000 359.682823 222.415385 362.946902 225.230769 366.055040 228.046154 368.964340 230.861538 371.631913 233.676923 374.030663 236.492308 376.183701 239.307692 378.124100 242.123077 379.884933 244.938462 381.499272 247.753846 383.000188 250.569231 384.420755 253.384615 385.794043 256.200000 387.153125 259.015385 388.531074 261.830769 389.960962 264.646154 391.475860 267.461538 393.108840 270.276923 394.892976 273.092308 396.861339 275.907692 399.047001 278.723077 401.483035 281.538462 404.202512 284.353846 407.238504 287.169231 410.616739 289.984615 414.316028 292.800000 418.296732 295.615385 422.519171 298.430769 426.943661 301.246154 431.530519 304.061538 436.240065 306.876923 441.032614 309.692308 445.868485 312.507692 450.707996 315.323077 455.511463 318.138462 460.239205 320.953846 464.851539 323.769231 469.308783 326.584615 473.571254 329.400000 477.599270 332.215385 481.353149 335.030769 484.793208 337.846154 487.879765 340.661538 490.575315 343.476923 492.873035 346.292308 494.788783 349.107692 496.338946 351.923077 497.539915 354.738462 498.408077 357.553846 498.959822 360.369231 499.211538 363.184615 499.179615 366.000000 498.880441 368.815385 498.330405 371.630769 497.545896 374.446154 496.543303 377.261538 495.339014 380.076923 493.949419 382.892308 492.390906 385.707692 490.679864 388.523077 488.832682 391.338462 486.865749 394.153846 484.795538 396.969231 482.642140 399.784615 480.430535 402.600000 478.186053 405.415385 475.934023 408.230769 473.699773 411.046154 471.508633 413.861538 469.385932 416.676923 467.356997 419.492308 465.447159 422.307692 463.681746 425.123077 462.086087 427.938462 460.685510 430.753846 459.505346 433.569231 458.570922 436.384615 457.907567 439.200000 457.540611 442.015385 457.495383 444.830769 457.797210 447.646154 458.471377 450.461538 459.523872 453.276923 460.911626 456.092308 462.583890 458.907692 464.489914 461.723077 466.578948 464.538462 468.800243 467.353846 471.103048 470.169231 473.436613 472.984615 475.750189 475.800000 477.993025 478.615385 480.114373 481.430769 482.063481 484.246154 483.789601 487.061538 485.241982 489.876923 486.369874 492.692308 487.122528 495.507692 487.449193 498.323077 487.299120 501.138462 486.621559 503.953846 485.379580 506.769231 483.605943 509.584615 481.355320 512.400000 478.682394 515.215385 475.641845 518.030769 472.288355 520.846154 468.676605 523.661538 464.861277 526.476923 460.897053 529.292308 456.838612 532.107692 452.740638 534.923077 448.657811 537.738462 444.644812 540.553846 440.756324 543.369231 437.047028 546.184615 433.571604 549.000000 430.384735 551.815385 427.541102 554.630769 425.095385 557.446154 423.097013 560.261538 421.539670 563.076923 420.383473 565.892308 419.588074 568.707692 419.113128 571.523077 418.918289 574.338462 418.963210 577.153846 419.207544 579.969231 419.610946 582.784615 420.133069 585.600000 420.733567 588.415385 421.372093 591.230769 422.008302 594.046154 422.601846 596.861538 423.112381 599.676923 423.499558 602.492308 423.723032 605.307692 423.742457 608.123077 423.517487 610.938462 423.008912 613.753846 422.209108 616.569231 421.145364 619.384615 419.846780 622.200000 418.342453 625.015385 416.661482 627.830769 414.832964 630.646154 412.885998 633.461538 410.849681 636.276923 408.753113 639.092308 406.625391 641.907692 404.495612 644.723077 402.392876 647.538462 400.346280 650.353846 398.384923 653.169231 396.537902 655.984615 394.834315 658.800000 393.303262 661.615385 391.973839 664.430769 390.875203 667.246154 390.044927 670.061538 389.537832 672.876923 389.410847 675.692308 389.720903 678.507692 390.524930 681.323077 391.879858 684.138462 393.842617 686.953846 396.470138 689.769231 399.819351 692.584615 403.947187 695.400000 408.910575 698.215385 414.766446 701.030769 421.571730 703.846154 429.383357 706.661538 438.258258 709.476923 448.253363 712.292308 459.425602 715.107692 471.831905 717.923077 485.529204 717.923077 509.000000"/></g></g><g class="plot overlay" transform="translate(48, 46)"><g class="series serie-0 color-0"><g class="dots"><circle class="dot reactive tooltip-trigger" cx="14.0769230769" cy="9.78846153846" r="2.5"/><desc class="value">28.464</desc><desc class="x ">14.0769230769</desc><desc class="y ">9.78846153846</desc></g><g class="dots"><circle class="dot reactive tooltip-trigger" cx="68.2189349112" cy="214.672715798" r="2.5"/><desc class="value">17.988</desc><desc class="x ">68.2189349112</desc><desc class="y ">214.672715798</desc></g><g class="dots"><circle class="dot reactive tooltip-trigger" cx="122.360946746" cy="345.187845062" r="2.5"/><desc class="value">11.315</desc><desc class="x top">122.360946746</desc><desc class="y top">345.187845062</desc></g><g class="dots"><circle class="dot reactive tooltip-trigger" cx="176.50295858" cy="321.141317201" r="2.5"/><desc class="value">12.544</desc><desc class="x top">176.50295858</desc><desc class="y top">321.141317201</desc></g><g class="dots"><circle class="dot reactive tooltip-trigger" cx="230.644970414" cy="371.436268532" r="2.5"/><desc class="value">9.972</desc><desc class="x top">230.644970414</desc><desc class="y top">371.436268532</desc></g><g class="dots"><circle class="dot reactive tooltip-trigger" cx="284.786982249" cy="407.73578067" r="2.5"/><desc class="value">8.116</desc><desc class="x top">284.786982249</desc><desc class="y top">407.73578067</desc></g><g class="dots"><circle class="dot reactive tooltip-trigger" cx="338.928994083" cy="488.964375267" r="2.5"/><desc class="value">3.963</desc><desc class="x top">338.928994083</desc><desc class="y top">488.964375267</desc></g><g class="dots"><circle class="dot reactive tooltip-trigger" cx="393.071005917" cy="485.602908672" r="2.5"/><desc class="value">4.135</desc><desc class="x left top">393.071005917</desc><desc class="y left top">485.602908672</desc></g><g class="dots"><circle class="dot reactive tooltip-trigger" cx="447.213017751" cy="458.342445534" r="2.5"/><desc class="value">5.529</desc><desc class="x left top">447.213017751</desc><desc class="y left top">458.342445534</desc></g><g class="dots"><circle class="dot reactive tooltip-trigger" cx="501.355029586" cy="486.546134585" r="2.5"/><desc class="value">4.087</desc><desc class="x left top">501.355029586</desc><desc class="y left top">486.546134585</desc></g><g class="dots"><circle class="dot reactive tooltip-trigger" cx="555.49704142" cy="424.431374058" r="2.5"/><desc class="value">7.263</desc><desc class="x left top">555.49704142</desc><desc class="y left top">424.431374058</desc></g><g class="dots"><circle class="dot reactive tooltip-trigger" cx="609.639053254" cy="423.280979481" r="2.5"/><desc class="value">7.322</desc><desc class="x left top">609.639053254</desc><desc class="y left top">423.280979481</desc></g><g class="dots"><circle class="dot reactive tooltip-trigger" cx="663.781065089" cy="391.106688282" r="2.5"/><desc class="value">8.967</desc><desc class="x left top">663.781065089</desc><desc class="y left top">391.106688282</desc></g><g class="dots"><circle class="dot reactive tooltip-trigger" cx="717.923076923" cy="485.529203629" r="2.5"/><desc class="value">4.139</desc><desc class="x left top">717.923076923</desc><desc class="y left top">485.529203629</desc></g></g></g><g class="plot text-overlay" transform="translate(48, 46)"><g class="series serie-0 color-0"><text class="centered" x="14.0769230769" y="9.78846153846">28.464</text><text class="centered" x="68.2189349112" y="214.672715798">17.988</text><text class="centered" x="122.360946746" y="345.187845062">11.315</text><text class="centered" x="176.50295858" y="321.141317201">12.544</text><text class="centered" x="230.644970414" y="371.436268532">9.972</text><text class="centered" x="284.786982249" y="407.73578067">8.116</text><text class="centered" x="338.928994083" y="488.964375267">3.963</text><text class="centered" x="393.071005917" y="485.602908672">4.135</text><text class="centered" x="447.213017751" y="458.342445534">5.529</text><text class="centered" x="501.355029586" y="486.546134585">4.087</text><text class="centered" x="555.49704142" y="424.431374058">7.263</text><text class="centered" x="609.639053254" y="423.280979481">7.322</text><text class="centered" x="663.781065089" y="391.106688282">8.967</text><text class="centered" x="717.923076923" y="485.529203629">4.139</text></g></g><g class="plot tooltip-overlay" transform="translate(48, 46)"><g id="tooltip" style="opacity: 0" transform="translate(0 0)"><a><rect height="0" id="tooltip-box" rx="5" ry="5" width="0"/><text class="text"><tspan class="label"/><tspan class="value"/></text></a></g></g><text class="title" x="414.0" y="26">Evolution</text></g></svg>