<?xml version='1.0' encoding='utf-8'?>
<svg xmlns:xlink="http://www.w3.org/1999/xlink" xmlns="http://www.w3.org/2000/svg" viewBox="0 0 800 600"><!--Generated with pygal 0.13.0 ©Kozea 2012 on 2013-03-09--><!--http://pygal.org--><!--http://github.com/Kozea/pygal--><defs><style type="text/css">.title{font-family:monospace;font-size:16px}.legends .legend text{font-family:monospace;font-size:14px}.axis text{font-family:monospace;font-size:15px}.series text{font-family:monospace;font-size:0px}#tooltip text{font-family:monospace;font-size:20px}text.no_data{font-size:64px}</style><style type="text/css">svg{background-color:black}svg path,svg line,svg rect,svg circle{-webkit-transition:1s ease-out;-moz-transition:1s ease-out;transition:1s ease-out}.graph &gt; .background{fill:black}.plot &gt; .background{fill:#111}.graph{fill:#999}text.no_data{fill:#eee}.title{fill:#eee}.legends .legend text{fill:#999}.legends .legend:hover text{fill:#eee}.axis .line{stroke:#eee}.axis .guide.line{stroke:#555}.axis .major.line{stroke:#999}.axis text.major{stroke:#eee;fill:#eee}.axis.y .guides:hover .guide.line,.line-graph .axis.x .guides:hover .guide.line,.stackedline-graph .axis.x .guides:hover .guide.line,.xy-graph .axis.x .guides:hover .guide.line{stroke:#eee}.axis .guides:hover text{fill:#eee}.reactive{fill-opacity:.1}.reactive.active,.active .reactive{fill-opacity:.75}.series text{fill:#eee}#tooltip rect{fill:#111;stroke:#eee}#tooltip text{fill:#eee}.color-0{stroke:#ff5995;fill:#ff5995}.color-1{stroke:#b6e354;fill:#b6e354}.color-2{stroke:#feed6c;fill:#feed6c}.color-3{stroke:#8cedff;fill:#8cedff}.color-4{stroke:#9e6ffe;fill:#9e6ffe}.color-5{stroke:#899ca1;fill:#899ca1}.color-6{stroke:#f8f8f2;fill:#f8f8f2}.color-7{stroke:#bf4646;fill:#bf4646}.color-8{stroke:#516083;fill:#516083}.color-9{stroke:#f92672;fill:#f92672}.color-10{stroke:#82b414;fill:#82b414}.color-11{stroke:#fd971f;fill:#fd971f}.color-12{stroke:#56c2d6;fill:#56c2d6}.color-13{stroke:#808384;fill:#808384}.color-14{stroke:#8c54fe;fill:#8c54fe}.color-15{stroke:#465457;fill:#465457}</style><style type="text/css">text.no_data{text-anchor:middle}.guide.line{fill-opacity:0}.centered{text-anchor:middle}.title{text-anchor:middle}.legends .legend text{fill-opacity:1}.axis.x text{text-anchor:middle}.axis.x:not(.web) text[transform]{text-anchor:start}.axis.y text{text-anchor:end}.axis.y .logarithmic text:not(.major){font-size:50%}.axis .guide.line{stroke-dasharray:4,4}.axis .major.guide.line{stroke-dasharray:6,6}.axis text.major{stroke-width:0.5px}.horizontal .axis.y .guide.line,.vertical .axis.x .guide.line{opacity:0}.axis.y .guides:hover .guide.line,.line-graph .axis.x .guides:hover .guide.line,.gauge-graph .axis.x .guides:hover .guide.line,.stackedline-graph .axis.x .guides:hover .guide.line,.xy-graph .axis.x .guides:hover .guide.line{opacity:1}.axis .guides:hover text{opacity:1}.nofill{fill:none}.dot{stroke-width:1px;fill-opacity:1}.dot.active{stroke-width:5px}.series text{stroke:none}.series text.active{opacity:1}#tooltip rect{fill-opacity:0.8}#tooltip text{fill-opacity:1}#tooltip text tspan.label{fill-opacity:.8}a:visited{fill:none}</style><script type="text/javascript">window.config = {"truncate_legend": null, "print_values": true, "tooltip_font_size": 20, "height": 600, "legend_at_bottom": false, "show_legend": false, "show_dots": true, "explicit_size": false, "legend_font_size": 14, "fill": true, "style": {"opacity": ".1", "foreground": "#999", "plot_background": "#111", "_colors": ["#ff5995", "#b6e354", "#feed6c", "#8cedff", "#9e6ffe", "#899ca1", "#f8f8f2", "#bf4646", "#516083", "#f92672", "#82b414", "#fd971f", "#56c2d6", "#808384", "#8c54fe", "#465457"], "foreground_light": "#eee", "transition": "1s ease-out", "foreground_dark": "#555", "colors": ".color-0 {\n  stroke: #ff5995;\n  fill: #ff5995;\n}\n\n.color-1 {\n  stroke: #b6e354;\n  fill: #b6e354;\n}\n\n.color-2 {\n  stroke: #feed6c;\n  fill: #feed6c;\n}\n\n.color-3 {\n  stroke: #8cedff;\n  fill: #8cedff;\n}\n\n.color-4 {\n  stroke: #9e6ffe;\n  fill: #9e6ffe;\n}\n\n.color-5 {\n  stroke: #899ca1;\n  fill: #899ca1;\n}\n\n.color-6 {\n  stroke: #f8f8f2;\n  fill: #f8f8f2;\n}\n\n.color-7 {\n  stroke: #bf4646;\n  fill: #bf4646;\n}\n\n.color-8 {\n  stroke: #516083;\n  fill: #516083;\n}\n\n.color-9 {\n  stroke: #f92672;\n  fill: #f92672;\n}\n\n.color-10 {\n  stroke: #82b414;\n  fill: #82b414;\n}\n\n.color-11 {\n  stroke: #fd971f;\n  fill: #fd971f;\n}\n\n.color-12 {\n  stroke: #56c2d6;\n  fill: #56c2d6;\n}\n\n.color-13 {\n  stroke: #808384;\n  fill: #808384;\n}\n\n.color-14 {\n  stroke: #8c54fe;\n  fill: #8c54fe;\n}\n\n.color-15 {\n  stroke: #465457;\n  fill: #465457;\n}\n", "background": "black", "opacity_hover": ".75"}, "zero": 0, "title": "Evolution", "rounded_bars": null, "label_font_size": 15, "strict": false, "x_label_rotation": 0, "x_labels": ["1", "2", "3", "4", "5", "6", "7", "8", "9", "10", "11", "12", "13", "14", "15", "16", "17", "18", "19", "20", "21", "22", "23", "24", "25", "26", "27", "28", "29", "30", "31", "32", "33", "34", "35", "36", "37", "38", "39", "40", "41", "42", "43", "44", "45", "46", "47", "48", "49", "50", "51", "52", "53", "54", "55", "56", "57", "58", "59", "60", "61", "62", "63", "64", "65", "66", "67", "68", "69", "70", "71", "72", "73", "74", "75", "76", "77", "78", "79", "80", "81"], "value_font_size": 0, "disable_xml_declaration": false, "css": ["style.css", "graph.css"], "human_readable": true, "y_label_rotation": 0, "pretty_print": false, "interpolate": "cubic", "js": ["https://raw.github.com/Kozea/pygal.js/master/svg.jquery.js", "https://raw.github.com/Kozea/pygal.js/master/pygal-tooltips.js"], "y_labels": null, "interpolation_precision": 250, "no_data_font_size": 64, "logarithmic": false, "print_zeroes": false, "no_data_text": "No data", "legend_box_size": 12, "stroke": true, "include_x_axis": false, "range": null, "truncate_label": null, "order_min": null, "title_font_size": 16, "width": 800}</script><script type="text/javascript" xlink:href="https://raw.github.com/Kozea/pygal.js/master/svg.jquery.js"/><script type="text/javascript" xlink:href="https://raw.github.com/Kozea/pygal.js/master/pygal-tooltips.js"/></defs><g class="graph line-graph vertical"><rect class="background" height="600" width="800" x="0" y="0"/><g class="plot" transform="translate(48, 46)"><rect class="background" height="509" width="732.0" x="0" y="0"/><g class="axis x"><g class="guides"><path class="major line" d="M14.076923 0.000000 v509.000000"/><text class="major" x="14.0769230769" y="526.5">1</text></g><g class="guides"><path class="guide line" d="M22.875000 0.000000 v509.000000"/><text class="" x="22.875" y="526.5">2</text></g><g class="guides"><path class="guide line" d="M31.673077 0.000000 v509.000000"/><text class="" x="31.6730769231" y="526.5">3</text></g><g class="guides"><path class="guide line" d="M40.471154 0.000000 v509.000000"/><text class="" x="40.4711538462" y="526.5">4</text></g><g class="guides"><path class="guide line" d="M49.269231 0.000000 v509.000000"/><text class="" x="49.2692307692" y="526.5">5</text></g><g class="guides"><path class="guide line" d="M58.067308 0.000000 v509.000000"/><text class="" x="58.0673076923" y="526.5">6</text></g><g class="guides"><path class="guide line" d="M66.865385 0.000000 v509.000000"/><text class="" x="66.8653846154" y="526.5">7</text></g><g class="guides"><path class="guide line" d="M75.663462 0.000000 v509.000000"/><text class="" x="75.6634615385" y="526.5">8</text></g><g class="guides"><path class="major guide line" d="M84.461538 0.000000 v509.000000"/><text class="major" x="84.4615384615" y="526.5">9</text></g><g class="guides"><path class="guide line" d="M93.259615 0.000000 v509.000000"/><text class="" x="93.2596153846" y="526.5">10</text></g><g class="guides"><path class="guide line" d="M102.057692 0.000000 v509.000000"/><text class="" x="102.057692308" y="526.5">11</text></g><g class="guides"><path class="guide line" d="M110.855769 0.000000 v509.000000"/><text class="" x="110.855769231" y="526.5">12</text></g><g class="guides"><path class="guide line" d="M119.653846 0.000000 v509.000000"/><text class="" x="119.653846154" y="526.5">13</text></g><g class="guides"><path class="guide line" d="M128.451923 0.000000 v509.000000"/><text class="" x="128.451923077" y="526.5">14</text></g><g class="guides"><path class="guide line" d="M137.250000 0.000000 v509.000000"/><text class="" x="137.25" y="526.5">15</text></g><g class="guides"><path class="guide line" d="M146.048077 0.000000 v509.000000"/><text class="" x="146.048076923" y="526.5">16</text></g><g class="guides"><path class="guide line" d="M154.846154 0.000000 v509.000000"/><text class="" x="154.846153846" y="526.5">17</text></g><g class="guides"><path class="guide line" d="M163.644231 0.000000 v509.000000"/><text class="" x="163.644230769" y="526.5">18</text></g><g class="guides"><path class="guide line" d="M172.442308 0.000000 v509.000000"/><text class="" x="172.442307692" y="526.5">19</text></g><g class="guides"><path class="guide line" d="M181.240385 0.000000 v509.000000"/><text class="" x="181.240384615" y="526.5">20</text></g><g class="guides"><path class="guide line" d="M190.038462 0.000000 v509.000000"/><text class="" x="190.038461538" y="526.5">21</text></g><g class="guides"><path class="guide line" d="M198.836538 0.000000 v509.000000"/><text class="" x="198.836538462" y="526.5">22</text></g><g class="guides"><path class="guide line" d="M207.634615 0.000000 v509.000000"/><text class="" x="207.634615385" y="526.5">23</text></g><g class="guides"><path class="guide line" d="M216.432692 0.000000 v509.000000"/><text class="" x="216.432692308" y="526.5">24</text></g><g class="guides"><path class="guide line" d="M225.230769 0.000000 v509.000000"/><text class="" x="225.230769231" y="526.5">25</text></g><g class="guides"><path class="guide line" d="M234.028846 0.000000 v509.000000"/><text class="" x="234.028846154" y="526.5">26</text></g><g class="guides"><path class="guide line" d="M242.826923 0.000000 v509.000000"/><text class="" x="242.826923077" y="526.5">27</text></g><g class="guides"><path class="guide line" d="M251.625000 0.000000 v509.000000"/><text class="" x="251.625" y="526.5">28</text></g><g class="guides"><path class="guide line" d="M260.423077 0.000000 v509.000000"/><text class="" x="260.423076923" y="526.5">29</text></g><g class="guides"><path class="guide line" d="M269.221154 0.000000 v509.000000"/><text class="" x="269.221153846" y="526.5">30</text></g><g class="guides"><path class="guide line" d="M278.019231 0.000000 v509.000000"/><text class="" x="278.019230769" y="526.5">31</text></g><g class="guides"><path class="guide line" d="M286.817308 0.000000 v509.000000"/><text class="" x="286.817307692" y="526.5">32</text></g><g class="guides"><path class="guide line" d="M295.615385 0.000000 v509.000000"/><text class="" x="295.615384615" y="526.5">33</text></g><g class="guides"><path class="guide line" d="M304.413462 0.000000 v509.000000"/><text class="" x="304.413461538" y="526.5">34</text></g><g class="guides"><path class="guide line" d="M313.211538 0.000000 v509.000000"/><text class="" x="313.211538462" y="526.5">35</text></g><g class="guides"><path class="guide line" d="M322.009615 0.000000 v509.000000"/><text class="" x="322.009615385" y="526.5">36</text></g><g class="guides"><path class="guide line" d="M330.807692 0.000000 v509.000000"/><text class="" x="330.807692308" y="526.5">37</text></g><g class="guides"><path class="guide line" d="M339.605769 0.000000 v509.000000"/><text class="" x="339.605769231" y="526.5">38</text></g><g class="guides"><path class="guide line" d="M348.403846 0.000000 v509.000000"/><text class="" x="348.403846154" y="526.5">39</text></g><g class="guides"><path class="guide line" d="M357.201923 0.000000 v509.000000"/><text class="" x="357.201923077" y="526.5">40</text></g><g class="guides"><path class="guide line" d="M366.000000 0.000000 v509.000000"/><text class="" x="366.0" y="526.5">41</text></g><g class="guides"><path class="guide line" d="M374.798077 0.000000 v509.000000"/><text class="" x="374.798076923" y="526.5">42</text></g><g class="guides"><path class="guide line" d="M383.596154 0.000000 v509.000000"/><text class="" x="383.596153846" y="526.5">43</text></g><g class="guides"><path class="guide line" d="M392.394231 0.000000 v509.000000"/><text class="" x="392.394230769" y="526.5">44</text></g><g class="guides"><path class="guide line" d="M401.192308 0.000000 v509.000000"/><text class="" x="401.192307692" y="526.5">45</text></g><g class="guides"><path class="guide line" d="M409.990385 0.000000 v509.000000"/><text class="" x="409.990384615" y="526.5">46</text></g><g class="guides"><path class="guide line" d="M418.788462 0.000000 v509.000000"/><text class="" x="418.788461538" y="526.5">47</text></g><g class="guides"><path class="guide line" d="M427.586538 0.000000 v509.000000"/><text class="" x="427.586538462" y="526.5">48</text></g><g class="guides"><path class="guide line" d="M436.384615 0.000000 v509.000000"/><text class="" x="436.384615385" y="526.5">49</text></g><g class="guides"><path class="guide line" d="M445.182692 0.000000 v509.000000"/><text class="" x="445.182692308" y="526.5">50</text></g><g class="guides"><path class="guide line" d="M453.980769 0.000000 v509.000000"/><text class="" x="453.980769231" y="526.5">51</text></g><g class="guides"><path class="guide line" d="M462.778846 0.000000 v509.000000"/><text class="" x="462.778846154" y="526.5">52</text></g><g class="guides"><path class="guide line" d="M471.576923 0.000000 v509.000000"/><text class="" x="471.576923077" y="526.5">53</text></g><g class="guides"><path class="guide line" d="M480.375000 0.000000 v509.000000"/><text class="" x="480.375" y="526.5">54</text></g><g class="guides"><path class="guide line" d="M489.173077 0.000000 v509.000000"/><text class="" x="489.173076923" y="526.5">55</text></g><g class="guides"><path class="guide line" d="M497.971154 0.000000 v509.000000"/><text class="" x="497.971153846" y="526.5">56</text></g><g class="guides"><path class="guide line" d="M506.769231 0.000000 v509.000000"/><text class="" x="506.769230769" y="526.5">57</text></g><g class="guides"><path class="guide line" d="M515.567308 0.000000 v509.000000"/><text class="" x="515.567307692" y="526.5">58</text></g><g class="guides"><path class="guide line" d="M524.365385 0.000000 v509.000000"/><text class="" x="524.365384615" y="526.5">59</text></g><g class="guides"><path class="guide line" d="M533.163462 0.000000 v509.000000"/><text class="" x="533.163461538" y="526.5">60</text></g><g class="guides"><path class="guide line" d="M541.961538 0.000000 v509.000000"/><text class="" x="541.961538462" y="526.5">61</text></g><g class="guides"><path class="guide line" d="M550.759615 0.000000 v509.000000"/><text class="" x="550.759615385" y="526.5">62</text></g><g class="guides"><path class="guide line" d="M559.557692 0.000000 v509.000000"/><text class="" x="559.557692308" y="526.5">63</text></g><g class="guides"><path class="guide line" d="M568.355769 0.000000 v509.000000"/><text class="" x="568.355769231" y="526.5">64</text></g><g class="guides"><path class="guide line" d="M577.153846 0.000000 v509.000000"/><text class="" x="577.153846154" y="526.5">65</text></g><g class="guides"><path class="guide line" d="M585.951923 0.000000 v509.000000"/><text class="" x="585.951923077" y="526.5">66</text></g><g class="guides"><path class="guide line" d="M594.750000 0.000000 v509.000000"/><text class="" x="594.75" y="526.5">67</text></g><g class="guides"><path class="guide line" d="M603.548077 0.000000 v509.000000"/><text class="" x="603.548076923" y="526.5">68</text></g><g class="guides"><path class="guide line" d="M612.346154 0.000000 v509.000000"/><text class="" x="612.346153846" y="526.5">69</text></g><g class="guides"><path class="guide line" d="M621.144231 0.000000 v509.000000"/><text class="" x="621.144230769" y="526.5">70</text></g><g class="guides"><path class="guide line" d="M629.942308 0.000000 v509.000000"/><text class="" x="629.942307692" y="526.5">71</text></g><g class="guides"><path class="guide line" d="M638.740385 0.000000 v509.000000"/><text class="" x="638.740384615" y="526.5">72</text></g><g class="guides"><path class="guide line" d="M647.538462 0.000000 v509.000000"/><text class="" x="647.538461538" y="526.5">73</text></g><g class="guides"><path class="guide line" d="M656.336538 0.000000 v509.000000"/><text class="" x="656.336538462" y="526.5">74</text></g><g class="guides"><path class="guide line" d="M665.134615 0.000000 v509.000000"/><text class="" x="665.134615385" y="526.5">75</text></g><g class="guides"><path class="guide line" d="M673.932692 0.000000 v509.000000"/><text class="" x="673.932692308" y="526.5">76</text></g><g class="guides"><path class="guide line" d="M682.730769 0.000000 v509.000000"/><text class="" x="682.730769231" y="526.5">77</text></g><g class="guides"><path class="guide line" d="M691.528846 0.000000 v509.000000"/><text class="" x="691.528846154" y="526.5">78</text></g><g class="guides"><path class="guide line" d="M700.326923 0.000000 v509.000000"/><text class="" x="700.326923077" y="526.5">79</text></g><g class="guides"><path class="guide line" d="M709.125000 0.000000 v509.000000"/><text class="" x="709.125" y="526.5">80</text></g><g class="guides"><path class="major guide line" d="M717.923077 0.000000 v509.000000"/><text class="major" x="717.923076923" y="526.5">81</text></g></g><g class="axis y"><path class="line" d="M0.000000 509.000000 h732.000000"/><g class="guides"><path class="major guide line" d="M0.000000 436.669727 h732.000000"/><text class="major" x="-5" y="441.919727109">10</text></g><g class="guides"><path class="guide line" d="M0.000000 329.789152 h732.000000"/><text class="" x="-5" y="335.039151621">20</text></g><g class="guides"><path class="guide line" d="M0.000000 222.908576 h732.000000"/><text class="" x="-5" y="228.158576132">30</text></g><g class="guides"><path class="guide line" d="M0.000000 116.028001 h732.000000"/><text class="" x="-5" y="121.278000644">40</text></g></g><g class="series serie-0 color-0"><path class="line reactive" d="M14.076923 509.000000 L14.076923 347.635986 16.892308 98.532617 19.707692 9.788462 22.523077 35.959836 25.338462 132.516694 28.153846 260.264322 30.969231 381.939166 33.784615 463.273225 36.600000 496.047692 39.415385 485.456325 42.230769 437.805721 45.046154 373.005537 47.861538 320.768925 50.676923 309.758130 53.492308 339.486597 56.307692 380.318971 59.123077 401.790608 61.938462 393.278935 64.753846 371.693673 67.569231 355.911983 70.384615 357.481778 73.200000 373.716484 76.015385 400.292262 78.830769 431.572390 81.646154 458.292951 84.461538 470.568902 87.276923 462.285879 90.092308 442.412252 92.907692 423.687074 95.723077 416.924312 98.538462 421.696130 101.353846 433.505634 104.169231 447.870731 106.984615 460.486969 109.800000 467.141362 112.615385 464.090938 115.430769 453.963349 118.246154 443.977454 121.061538 441.117260 123.876923 444.633991 126.692308 446.046084 129.507692 436.733173 132.323077 417.016706 135.138462 399.625532 137.953846 398.128347 140.769231 417.130672 143.584615 443.830203 146.400000 463.431988 149.215385 466.503770 152.030769 458.429136 154.846154 447.128783 157.661538 438.942640 160.476923 433.887571 163.292308 430.399671 166.107692 427.175733 168.923077 424.434930 171.738462 422.947474 174.553846 423.402442 177.369231 425.776149 180.184615 429.677909 183.000000 434.585585 185.815385 438.233615 188.630769 437.099979 191.446154 427.917507 194.261538 413.918559 197.076923 404.835027 199.892308 410.466179 202.707692 430.863111 205.523077 452.550626 208.338462 461.133703 211.153846 451.475347 213.969231 436.419022 216.784615 430.864203 219.600000 442.583385 222.415385 459.658922 225.230769 466.801372 228.046154 453.744524 230.861538 430.315104 233.676923 411.363070 236.492308 408.978824 239.307692 419.137908 242.123077 431.982979 244.938462 438.689407 247.753846 439.491021 250.569231 439.285794 253.384615 442.754718 256.200000 451.109773 259.015385 463.062878 261.830769 477.207829 264.646154 490.691039 267.461538 499.211538 270.276923 498.491722 273.092308 488.162720 275.907692 473.279319 278.723077 459.278961 281.538462 449.560789 284.353846 443.565257 287.169231 440.277702 289.984615 438.472904 292.800000 436.343925 295.615385 431.984212 298.430769 424.425940 301.246154 416.456194 304.061538 411.800787 306.876923 413.545830 309.692308 421.041818 312.507692 432.287106 315.323077 445.406092 318.138462 459.636403 320.953846 474.788865 323.769231 490.226146 326.584615 499.162431 329.400000 490.380789 332.215385 453.365125 335.030769 395.968472 337.846154 344.412993 340.661538 325.298335 343.476923 346.146518 346.292308 388.007989 349.107692 430.042536 351.923077 458.575692 354.738462 473.849928 357.553846 477.708023 360.369231 472.963332 363.184615 465.110683 366.000000 460.104084 368.815385 462.018794 371.630769 467.415052 374.446154 470.974343 377.261538 467.797127 380.076923 455.430526 382.892308 432.307249 385.707692 397.990543 388.523077 361.872888 391.338462 338.407773 394.153846 340.871341 396.969231 365.988216 399.784615 398.554620 402.600000 423.500066 405.415385 434.876668 408.230769 435.859141 411.046154 430.018797 413.861538 420.925317 416.676923 412.146111 419.492308 407.231768 422.307692 407.717453 425.123077 411.224084 427.938462 414.924524 430.753846 417.200707 433.569231 419.774938 436.384615 424.941540 439.200000 433.719797 442.015385 442.028843 444.830769 444.512777 447.646154 437.497729 450.461538 427.132312 453.276923 423.120457 456.092308 433.809147 458.907692 455.692245 461.723077 479.160513 464.538462 494.936705 467.353846 498.935443 470.169231 490.813043 472.984615 470.545813 475.800000 443.569995 478.615385 420.781763 481.430769 413.105757 484.246154 422.003207 487.061538 435.804189 489.876923 441.930824 492.692308 434.978084 495.507692 423.471684 498.323077 417.532671 501.138462 423.498088 503.953846 437.250671 506.769231 452.882932 509.584615 464.965621 512.400000 469.982450 515.215385 464.895372 518.030769 447.990987 520.846154 425.291373 523.661538 405.618520 526.476923 396.443464 529.292308 393.445309 532.107692 386.231570 534.923077 365.394901 537.738462 335.583456 540.553846 311.574950 543.369231 307.745139 546.184615 324.081217 549.000000 346.181811 551.815385 359.208870 554.630769 356.881224 557.446154 344.790988 560.261538 329.400638 563.076923 316.662100 565.892308 311.535738 568.707692 318.862456 571.523077 339.468909 574.338462 363.091360 577.153846 377.566917 579.969231 375.984662 582.784615 372.441568 585.600000 386.286586 588.415385 430.351918 591.230769 479.414258 594.046154 494.475840 596.861538 443.380549 599.676923 353.685352 602.492308 283.693099 605.307692 287.077187 608.123077 351.211938 610.938462 415.691017 613.753846 421.506840 616.569231 366.084562 619.384615 303.282077 622.200000 288.501178 625.015385 335.937737 627.830769 402.611459 630.646154 441.518685 633.461538 428.427244 636.276923 383.330587 639.092308 331.297919 641.907692 293.417201 644.723077 279.777186 647.538462 298.583091 650.353846 351.818819 653.169231 416.583036 655.984615 463.753095 658.800000 469.168515 661.615385 437.646114 664.430769 384.491247 667.246154 325.222935 670.061538 277.093937 672.876923 258.249707 675.692308 284.738376 678.507692 344.034652 681.323077 403.020849 684.138462 429.295836 686.953846 417.395404 689.769231 388.792266 692.584615 365.883390 695.400000 359.881379 698.215385 366.479728 701.030769 380.232652 703.846154 396.160039 706.661538 410.186184 709.476923 418.340509 712.292308 417.536535 715.107692 407.130322 717.923077 386.896202 717.923077 509.000000"/></g></g><g class="plot overlay" transform="translate(48, 46)"><g class="series serie-0 color-0"><g class="dots"><circle class="dot reactive tooltip-trigger" cx="14.0769230769" cy="347.635986485" r="2.5"/><desc class="value">18.33</desc><desc class="x top">14.0769230769</desc><desc class="y top">347.635986485</desc></g><g class="dots"><circle class="dot reactive tooltip-trigger" cx="22.875" cy="45.0479475756" r="2.5"/><desc class="value">46.641</desc><desc class="x ">22.875</desc><desc class="y ">45.0479475756</desc></g><g class="dots"><circle class="dot reactive tooltip-trigger" cx="31.6730769231" cy="407.042494494" r="2.5"/><desc class="value">12.772</desc><desc class="x top">31.6730769231</desc><desc class="y top">407.042494494</desc></g><g class="dots"><circle class="dot reactive tooltip-trigger" cx="40.4711538462" cy="471.386985879" r="2.5"/><desc class="value">6.752</desc><desc class="x top">40.4711538462</desc><desc class="y top">471.386985879</desc></g><g class="dots"><circle class="dot reactive tooltip-trigger" cx="49.2692307692" cy="308.714953539" r="2.5"/><desc class="value">21.972</desc><desc class="x top">49.2692307692</desc><desc class="y top">308.714953539</desc></g><g class="dots"><circle class="dot reactive tooltip-trigger" cx="58.0673076923" cy="397.746729476" r="2.5"/><desc class="value">13.642</desc><desc class="x top">58.0673076923</desc><desc class="y top">397.746729476</desc></g><g class="dots"><circle class="dot reactive tooltip-trigger" cx="66.8653846154" cy="358.317413535" r="2.5"/><desc class="value">17.331</desc><desc class="x top">66.8653846154</desc><desc class="y top">358.317413535</desc></g><g class="dots"><circle class="dot reactive tooltip-trigger" cx="75.6634615385" cy="396.553973664" r="2.5"/><desc class="value">13.753</desc><desc class="x top">75.6634615385</desc><desc class="y top">396.553973664</desc></g><g class="dots"><circle class="dot reactive tooltip-trigger" cx="84.4615384615" cy="470.56890164" r="2.5"/><desc class="value">6.828</desc><desc class="x top">84.4615384615</desc><desc class="y top">470.56890164</desc></g><g class="dots"><circle class="dot reactive tooltip-trigger" cx="93.2596153846" cy="422.061640961" r="2.5"/><desc class="value">11.367</desc><desc class="x top">93.2596153846</desc><desc class="y top">422.061640961</desc></g><g class="dots"><circle class="dot reactive tooltip-trigger" cx="102.057692308" cy="437.030011367" r="2.5"/><desc class="value">9.966</desc><desc class="x top">102.057692308</desc><desc class="y top">437.030011367</desc></g><g class="dots"><circle class="dot reactive tooltip-trigger" cx="110.855769231" cy="467.239999042" r="2.5"/><desc class="value">7.14</desc><desc class="x top">110.855769231</desc><desc class="y top">467.239999042</desc></g><g class="dots"><circle class="dot reactive tooltip-trigger" cx="119.653846154" cy="441.325208444" r="2.5"/><desc class="value">9.564</desc><desc class="x top">119.653846154</desc><desc class="y top">441.325208444</desc></g><g class="dots"><circle class="dot reactive tooltip-trigger" cx="128.451923077" cy="441.941826953" r="2.5"/><desc class="value">9.507</desc><desc class="x top">128.451923077</desc><desc class="y top">441.941826953</desc></g><g class="dots"><circle class="dot reactive tooltip-trigger" cx="137.25" cy="396.315104992" r="2.5"/><desc class="value">13.776</desc><desc class="x top">137.25</desc><desc class="y top">396.315104992</desc></g><g class="dots"><circle class="dot reactive tooltip-trigger" cx="146.048076923" cy="461.869794834" r="2.5"/><desc class="value">7.642</desc><desc class="x top">146.048076923</desc><desc class="y top">461.869794834</desc></g><g class="dots"><circle class="dot reactive tooltip-trigger" cx="154.846153846" cy="447.128782738" r="2.5"/><desc class="value">9.021</desc><desc class="x top">154.846153846</desc><desc class="y top">447.128782738</desc></g><g class="dots"><circle class="dot reactive tooltip-trigger" cx="163.644230769" cy="429.995985273" r="2.5"/><desc class="value">10.624</desc><desc class="x top">163.644230769</desc><desc class="y top">429.995985273</desc></g><g class="dots"><circle class="dot reactive tooltip-trigger" cx="172.442307692" cy="422.861793295" r="2.5"/><desc class="value">11.292</desc><desc class="x top">172.442307692</desc><desc class="y top">422.861793295</desc></g><g class="dots"><circle class="dot reactive tooltip-trigger" cx="181.240384615" cy="431.454661782" r="2.5"/><desc class="value">10.488</desc><desc class="x top">181.240384615</desc><desc class="y top">431.454661782</desc></g><g class="dots"><circle class="dot reactive tooltip-trigger" cx="190.038461538" cy="433.630736808" r="2.5"/><desc class="value">10.284</desc><desc class="x top">190.038461538</desc><desc class="y top">433.630736808</desc></g><g class="dots"><circle class="dot reactive tooltip-trigger" cx="198.836538462" cy="406.103720915" r="2.5"/><desc class="value">12.86</desc><desc class="x top">198.836538462</desc><desc class="y top">406.103720915</desc></g><g class="dots"><circle class="dot reactive tooltip-trigger" cx="207.634615385" cy="460.957675756" r="2.5"/><desc class="value">7.728</desc><desc class="x top">207.634615385</desc><desc class="y top">460.957675756</desc></g><g class="dots"><circle class="dot reactive tooltip-trigger" cx="216.432692308" cy="430.537410567" r="2.5"/><desc class="value">10.574</desc><desc class="x top">216.432692308</desc><desc class="y top">430.537410567</desc></g><g class="dots"><circle class="dot reactive tooltip-trigger" cx="225.230769231" cy="466.801371955" r="2.5"/><desc class="value">7.181</desc><desc class="x top">225.230769231</desc><desc class="y top">466.801371955</desc></g><g class="dots"><circle class="dot reactive tooltip-trigger" cx="234.028846154" cy="410.048480101" r="2.5"/><desc class="value">12.491</desc><desc class="x top">234.028846154</desc><desc class="y top">410.048480101</desc></g><g class="dots"><circle class="dot reactive tooltip-trigger" cx="242.826923077" cy="434.457831593" r="2.5"/><desc class="value">10.207</desc><desc class="x top">242.826923077</desc><desc class="y top">434.457831593</desc></g><g class="dots"><circle class="dot reactive tooltip-trigger" cx="251.625" cy="439.956808132" r="2.5"/><desc class="value">9.692</desc><desc class="x top">251.625</desc><desc class="y top">439.956808132</desc></g><g class="dots"><circle class="dot reactive tooltip-trigger" cx="260.423076923" cy="469.968925631" r="2.5"/><desc class="value">6.884</desc><desc class="x top">260.423076923</desc><desc class="y top">469.968925631</desc></g><g class="dots"><circle class="dot reactive tooltip-trigger" cx="269.221153846" cy="500.077687359" r="2.5"/><desc class="value">4.067</desc><desc class="x top">269.221153846</desc><desc class="y top">500.077687359</desc></g><g class="dots"><circle class="dot reactive tooltip-trigger" cx="278.019230769" cy="462.409038841" r="2.5"/><desc class="value">7.592</desc><desc class="x top">278.019230769</desc><desc class="y top">462.409038841</desc></g><g class="dots"><circle class="dot reactive tooltip-trigger" cx="286.817307692" cy="440.575462678" r="2.5"/><desc class="value">9.635</desc><desc class="x top">286.817307692</desc><desc class="y top">440.575462678</desc></g><g class="dots"><circle class="dot reactive tooltip-trigger" cx="295.615384615" cy="431.984212317" r="2.5"/><desc class="value">10.438</desc><desc class="x top">295.615384615</desc><desc class="y top">431.984212317</desc></g><g class="dots"><circle class="dot reactive tooltip-trigger" cx="304.413461538" cy="411.637462976" r="2.5"/><desc class="value">12.342</desc><desc class="x top">304.413461538</desc><desc class="y top">411.637462976</desc></g><g class="dots"><circle class="dot reactive tooltip-trigger" cx="313.211538462" cy="435.449470783" r="2.5"/><desc class="value">10.114</desc><desc class="x top">313.211538462</desc><desc class="y top">435.449470783</desc></g><g class="dots"><circle class="dot reactive tooltip-trigger" cx="322.009615385" cy="480.671136058" r="2.5"/><desc class="value">5.883</desc><desc class="x top">322.009615385</desc><desc class="y top">480.671136058</desc></g><g class="dots"><circle class="dot reactive tooltip-trigger" cx="330.807692308" cy="475.80988503" r="2.5"/><desc class="value">6.338</desc><desc class="x top">330.807692308</desc><desc class="y top">475.80988503</desc></g><g class="dots"><circle class="dot reactive tooltip-trigger" cx="339.605769231" cy="327.163362153" r="2.5"/><desc class="value">20.246</desc><desc class="x top">339.605769231</desc><desc class="y top">327.163362153</desc></g><g class="dots"><circle class="dot reactive tooltip-trigger" cx="348.403846154" cy="420.621747466" r="2.5"/><desc class="value">11.501</desc><desc class="x top">348.403846154</desc><desc class="y top">420.621747466</desc></g><g class="dots"><circle class="dot reactive tooltip-trigger" cx="357.201923077" cy="477.78604365" r="2.5"/><desc class="value">6.153</desc><desc class="x top">357.201923077</desc><desc class="y top">477.78604365</desc></g><g class="dots"><circle class="dot reactive tooltip-trigger" cx="366.0" cy="460.10408446" r="2.5"/><desc class="value">7.807</desc><desc class="x top">366.0</desc><desc class="y top">460.10408446</desc></g><g class="dots"><circle class="dot reactive tooltip-trigger" cx="374.798076923" cy="471.025205809" r="2.5"/><desc class="value">6.786</desc><desc class="x left top">374.798076923</desc><desc class="y left top">471.025205809</desc></g><g class="dots"><circle class="dot reactive tooltip-trigger" cx="383.596153846" cy="424.662174907" r="2.5"/><desc class="value">11.123</desc><desc class="x left top">383.596153846</desc><desc class="y left top">424.662174907</desc></g><g class="dots"><circle class="dot reactive tooltip-trigger" cx="392.394230769" cy="335.828855238" r="2.5"/><desc class="value">19.435</desc><desc class="x left top">392.394230769</desc><desc class="y left top">335.828855238</desc></g><g class="dots"><circle class="dot reactive tooltip-trigger" cx="401.192307692" cy="412.797919954" r="2.5"/><desc class="value">12.234</desc><desc class="x left top">401.192307692</desc><desc class="y left top">412.797919954</desc></g><g class="dots"><circle class="dot reactive tooltip-trigger" cx="409.990384615" cy="432.781796034" r="2.5"/><desc class="value">10.364</desc><desc class="x left top">409.990384615</desc><desc class="y left top">432.781796034</desc></g><g class="dots"><circle class="dot reactive tooltip-trigger" cx="418.788461538" cy="407.913869898" r="2.5"/><desc class="value">12.69</desc><desc class="x left top">418.788461538</desc><desc class="y left top">407.913869898</desc></g><g class="dots"><circle class="dot reactive tooltip-trigger" cx="427.586538462" cy="414.546689685" r="2.5"/><desc class="value">12.07</desc><desc class="x left top">427.586538462</desc><desc class="y left top">414.546689685</desc></g><g class="dots"><circle class="dot reactive tooltip-trigger" cx="436.384615385" cy="424.941540074" r="2.5"/><desc class="value">11.097</desc><desc class="x left top">436.384615385</desc><desc class="y left top">424.941540074</desc></g><g class="dots"><circle class="dot reactive tooltip-trigger" cx="445.182692308" cy="444.146941625" r="2.5"/><desc class="value">9.3</desc><desc class="x left top">445.182692308</desc><desc class="y left top">444.146941625</desc></g><g class="dots"><circle class="dot reactive tooltip-trigger" cx="453.980769231" cy="424.247990456" r="2.5"/><desc class="value">11.162</desc><desc class="x left top">453.980769231</desc><desc class="y left top">424.247990456</desc></g><g class="dots"><circle class="dot reactive tooltip-trigger" cx="462.778846154" cy="486.398235376" r="2.5"/><desc class="value">5.347</desc><desc class="x left top">462.778846154</desc><desc class="y left top">486.398235376</desc></g><g class="dots"><circle class="dot reactive tooltip-trigger" cx="471.576923077" cy="482.124828227" r="2.5"/><desc class="value">5.747</desc><desc class="x left top">471.576923077</desc><desc class="y left top">482.124828227</desc></g><g class="dots"><circle class="dot reactive tooltip-trigger" cx="480.375" cy="413.612668558" r="2.5"/><desc class="value">12.157</desc><desc class="x left top">480.375</desc><desc class="y left top">413.612668558</desc></g><g class="dots"><circle class="dot reactive tooltip-trigger" cx="489.173076923" cy="441.770827879" r="2.5"/><desc class="value">9.523</desc><desc class="x left top">489.173076923</desc><desc class="y left top">441.770827879</desc></g><g class="dots"><circle class="dot reactive tooltip-trigger" cx="497.971153846" cy="417.628750195" r="2.5"/><desc class="value">11.782</desc><desc class="x left top">497.971153846</desc><desc class="y left top">417.628750195</desc></g><g class="dots"><circle class="dot reactive tooltip-trigger" cx="506.769230769" cy="452.882931534" r="2.5"/><desc class="value">8.483</desc><desc class="x left top">506.769230769</desc><desc class="y left top">452.882931534</desc></g><g class="dots"><circle class="dot reactive tooltip-trigger" cx="515.567307692" cy="463.397747565" r="2.5"/><desc class="value">7.499</desc><desc class="x left top">515.567307692</desc><desc class="y left top">463.397747565</desc></g><g class="dots"><circle class="dot reactive tooltip-trigger" cx="524.365384615" cy="402.207518281" r="2.5"/><desc class="value">13.224</desc><desc class="x left top">524.365384615</desc><desc class="y left top">402.207518281</desc></g><g class="dots"><circle class="dot reactive tooltip-trigger" cx="533.163461538" cy="380.308223227" r="2.5"/><desc class="value">15.273</desc><desc class="x left top">533.163461538</desc><desc class="y left top">380.308223227</desc></g><g class="dots"><circle class="dot reactive tooltip-trigger" cx="541.961538462" cy="306.434719551" r="2.5"/><desc class="value">22.185</desc><desc class="x left top">541.961538462</desc><desc class="y left top">306.434719551</desc></g><g class="dots"><circle class="dot reactive tooltip-trigger" cx="550.759615385" cy="356.244957247" r="2.5"/><desc class="value">17.525</desc><desc class="x left top">550.759615385</desc><desc class="y left top">356.244957247</desc></g><g class="dots"><circle class="dot reactive tooltip-trigger" cx="559.557692308" cy="333.206732675" r="2.5"/><desc class="value">19.68</desc><desc class="x left top">559.557692308</desc><desc class="y left top">333.206732675</desc></g><g class="dots"><circle class="dot reactive tooltip-trigger" cx="568.355769231" cy="317.104480797" r="2.5"/><desc class="value">21.187</desc><desc class="x left top">568.355769231</desc><desc class="y left top">317.104480797</desc></g><g class="dots"><circle class="dot reactive tooltip-trigger" cx="577.153846154" cy="377.566917329" r="2.5"/><desc class="value">15.53</desc><desc class="x left top">577.153846154</desc><desc class="y left top">377.566917329</desc></g><g class="dots"><circle class="dot reactive tooltip-trigger" cx="585.951923077" cy="390.203482638" r="2.5"/><desc class="value">14.347</desc><desc class="x left top">585.951923077</desc><desc class="y left top">390.203482638</desc></g><g class="dots"><circle class="dot reactive tooltip-trigger" cx="594.75" cy="488.356339776" r="2.5"/><desc class="value">5.164</desc><desc class="x left top">594.75</desc><desc class="y left top">488.356339776</desc></g><g class="dots"><circle class="dot reactive tooltip-trigger" cx="603.548076923" cy="274.477233712" r="2.5"/><desc class="value">25.175</desc><desc class="x left top">603.548076923</desc><desc class="y left top">274.477233712</desc></g><g class="dots"><circle class="dot reactive tooltip-trigger" cx="612.346153846" cy="428.853060128" r="2.5"/><desc class="value">10.731</desc><desc class="x left top">612.346153846</desc><desc class="y left top">428.853060128</desc></g><g class="dots"><circle class="dot reactive tooltip-trigger" cx="621.144230769" cy="285.303981308" r="2.5"/><desc class="value">24.162</desc><desc class="x left top">621.144230769</desc><desc class="y left top">285.303981308</desc></g><g class="dots"><circle class="dot reactive tooltip-trigger" cx="629.942307692" cy="436.852290058" r="2.5"/><desc class="value">9.983</desc><desc class="x left top">629.942307692</desc><desc class="y left top">436.852290058</desc></g><g class="dots"><circle class="dot reactive tooltip-trigger" cx="638.740384615" cy="337.328774874" r="2.5"/><desc class="value">19.295</desc><desc class="x left top">638.740384615</desc><desc class="y left top">337.328774874</desc></g><g class="dots"><circle class="dot reactive tooltip-trigger" cx="647.538461538" cy="298.583090833" r="2.5"/><desc class="value">22.92</desc><desc class="x left top">647.538461538</desc><desc class="y left top">298.583090833</desc></g><g class="dots"><circle class="dot reactive tooltip-trigger" cx="656.336538462" cy="466.961818803" r="2.5"/><desc class="value">7.166</desc><desc class="x left top">656.336538462</desc><desc class="y left top">466.961818803</desc></g><g class="dots"><circle class="dot reactive tooltip-trigger" cx="665.134615385" cy="369.617749955" r="2.5"/><desc class="value">16.274</desc><desc class="x left top">665.134615385</desc><desc class="y left top">369.617749955</desc></g><g class="dots"><circle class="dot reactive tooltip-trigger" cx="673.932692308" cy="262.438121663" r="2.5"/><desc class="value">26.302</desc><desc class="x left top">673.932692308</desc><desc class="y left top">262.438121663</desc></g><g class="dots"><circle class="dot reactive tooltip-trigger" cx="682.730769231" cy="421.906323703" r="2.5"/><desc class="value">11.381</desc><desc class="x left top">682.730769231</desc><desc class="y left top">421.906323703</desc></g><g class="dots"><circle class="dot reactive tooltip-trigger" cx="691.528846154" cy="372.494953038" r="2.5"/><desc class="value">16.004</desc><desc class="x left top">691.528846154</desc><desc class="y left top">372.494953038</desc></g><g class="dots"><circle class="dot reactive tooltip-trigger" cx="700.326923077" cy="376.419181123" r="2.5"/><desc class="value">15.637</desc><desc class="x left top">700.326923077</desc><desc class="y left top">376.419181123</desc></g><g class="dots"><circle class="dot reactive tooltip-trigger" cx="709.125" cy="417.777087847" r="2.5"/><desc class="value">11.768</desc><desc class="x left top">709.125</desc><desc class="y left top">417.777087847</desc></g><g class="dots"><circle class="dot reactive tooltip-trigger" cx="717.923076923" cy="386.896201784" r="2.5"/><desc class="value">14.657</desc><desc class="x left top">717.923076923</desc><desc class="y left top">386.896201784</desc></g></g></g><g class="plot text-overlay" transform="translate(48, 46)"><g class="series serie-0 color-0"><text class="centered" x="14.0769230769" y="347.635986485">18.33</text><text class="centered" x="22.875" y="45.0479475756">46.641</text><text class="centered" x="31.6730769231" y="407.042494494">12.772</text><text class="centered" x="40.4711538462" y="471.386985879">6.752</text><text class="centered" x="49.2692307692" y="308.714953539">21.972</text><text class="centered" x="58.0673076923" y="397.746729476">13.642</text><text class="centered" x="66.8653846154" y="358.317413535">17.331</text><text class="centered" x="75.6634615385" y="396.553973664">13.753</text><text class="centered" x="84.4615384615" y="470.56890164">6.828</text><text class="centered" x="93.2596153846" y="422.061640961">11.367</text><text class="centered" x="102.057692308" y="437.030011367">9.966</text><text class="centered" x="110.855769231" y="467.239999042">7.14</text><text class="centered" x="119.653846154" y="441.325208444">9.564</text><text class="centered" x="128.451923077" y="441.941826953">9.507</text><text class="centered" x="137.25" y="396.315104992">13.776</text><text class="centered" x="146.048076923" y="461.869794834">7.642</text><text class="centered" x="154.846153846" y="447.128782738">9.021</text><text class="centered" x="163.644230769" y="429.995985273">10.624</text><text class="centered" x="172.442307692" y="422.861793295">11.292</text><text class="centered" x="181.240384615" y="431.454661782">10.488</text><text class="centered" x="190.038461538" y="433.630736808">10.284</text><text class="centered" x="198.836538462" y="406.103720915">12.86</text><text class="centered" x="207.634615385" y="460.957675756">7.728</text><text class="centered" x="216.432692308" y="430.537410567">10.574</text><text class="centered" x="225.230769231" y="466.801371955">7.181</text><text class="centered" x="234.028846154" y="410.048480101">12.491</text><text class="centered" x="242.826923077" y="434.457831593">10.207</text><text class="centered" x="251.625" y="439.956808132">9.692</text><text class="centered" x="260.423076923" y="469.968925631">6.884</text><text class="centered" x="269.221153846" y="500.077687359">4.067</text><text class="centered" x="278.019230769" y="462.409038841">7.592</text><text class="centered" x="286.817307692" y="440.575462678">9.635</text><text class="centered" x="295.615384615" y="431.984212317">10.438</text><text class="centered" x="304.413461538" y="411.637462976">12.342</text><text class="centered" x="313.211538462" y="435.449470783">10.114</text><text class="centered" x="322.009615385" y="480.671136058">5.883</text><text class="centered" x="330.807692308" y="475.80988503">6.338</text><text class="centered" x="339.605769231" y="327.163362153">20.246</text><text class="centered" x="348.403846154" y="420.621747466">11.501</text><text class="centered" x="357.201923077" y="477.78604365">6.153</text><text class="centered" x="366.0" y="460.10408446">7.807</text><text class="centered" x="374.798076923" y="471.025205809">6.786</text><text class="centered" x="383.596153846" y="424.662174907">11.123</text><text class="centered" x="392.394230769" y="335.828855238">19.435</text><text class="centered" x="401.192307692" y="412.797919954">12.234</text><text class="centered" x="409.990384615" y="432.781796034">10.364</text><text class="centered" x="418.788461538" y="407.913869898">12.69</text><text class="centered" x="427.586538462" y="414.546689685">12.07</text><text class="centered" x="436.384615385" y="424.941540074">11.097</text><text class="centered" x="445.182692308" y="444.146941625">9.3</text><text class="centered" x="453.980769231" y="424.247990456">11.162</text><text class="centered" x="462.778846154" y="486.398235376">5.347</text><text class="centered" x="471.576923077" y="482.124828227">5.747</text><text class="centered" x="480.375" y="413.612668558">12.157</text><text class="centered" x="489.173076923" y="441.770827879">9.523</text><text class="centered" x="497.971153846" y="417.628750195">11.782</text><text class="centered" x="506.769230769" y="452.882931534">8.483</text><text class="centered" x="515.567307692" y="463.397747565">7.499</text><text class="centered" x="524.365384615" y="402.207518281">13.224</text><text class="centered" x="533.163461538" y="380.308223227">15.273</text><text class="centered" x="541.961538462" y="306.434719551">22.185</text><text class="centered" x="550.759615385" y="356.244957247">17.525</text><text class="centered" x="559.557692308" y="333.206732675">19.68</text><text class="centered" x="568.355769231" y="317.104480797">21.187</text><text class="centered" x="577.153846154" y="377.566917329">15.53</text><text class="centered" x="585.951923077" y="390.203482638">14.347</text><text class="centered" x="594.75" y="488.356339776">5.164</text><text class="centered" x="603.548076923" y="274.477233712">25.175</text><text class="centered" x="612.346153846" y="428.853060128">10.731</text><text class="centered" x="621.144230769" y="285.303981308">24.162</text><text class="centered" x="629.942307692" y="436.852290058">9.983</text><text class="centered" x="638.740384615" y="337.328774874">19.295</text><text class="centered" x="647.538461538" y="298.583090833">22.92</text><text class="centered" x="656.336538462" y="466.961818803">7.166</text><text class="centered" x="665.134615385" y="369.617749955">16.274</text><text class="centered" x="673.932692308" y="262.438121663">26.302</text><text class="centered" x="682.730769231" y="421.906323703">11.381</text><text class="centered" x="691.528846154" y="372.494953038">16.004</text><text class="centered" x="700.326923077" y="376.419181123">15.637</text><text class="centered" x="709.125" y="417.777087847">11.768</text><text class="centered" x="717.923076923" y="386.896201784">14.657</text></g></g><g class="plot tooltip-overlay" transform="translate(48, 46)"><g id="tooltip" style="opacity: 0" transform="translate(0 0)"><a><rect height="0" id="tooltip-box" rx="5" ry="5" width="0"/><text class="text"><tspan class="label"/><tspan class="value"/></text></a></g></g><text class="title" x="414.0" y="26">Evolution</text></g></svg>