<?xml version='1.0' encoding='utf-8'?>
<svg xmlns:xlink="http://www.w3.org/1999/xlink" xmlns="http://www.w3.org/2000/svg" viewBox="0 0 800 600"><!--Generated with pygal 0.13.0 ©Kozea 2012 on 2013-03-31--><!--http://pygal.org--><!--http://github.com/Kozea/pygal--><defs><style type="text/css">.title{font-family:monospace;font-size:16px}.legends .legend text{font-family:monospace;font-size:14px}.axis text{font-family:monospace;font-size:15px}.series text{font-family:monospace;font-size:0px}#tooltip text{font-family:monospace;font-size:20px}text.no_data{font-size:64px}</style><style type="text/css">svg{background-color:black}svg path,svg line,svg rect,svg circle{-webkit-transition:1s ease-out;-moz-transition:1s ease-out;transition:1s ease-out}.graph &gt; .background{fill:black}.plot &gt; .background{fill:#111}.graph{fill:#999}text.no_data{fill:#eee}.title{fill:#eee}.legends .legend text{fill:#999}.legends .legend:hover text{fill:#eee}.axis .line{stroke:#eee}.axis .guide.line{stroke:#555}.axis .major.line{stroke:#999}.axis text.major{stroke:#eee;fill:#eee}.axis.y .guides:hover .guide.line,.line-graph .axis.x .guides:hover .guide.line,.stackedline-graph .axis.x .guides:hover .guide.line,.xy-graph .axis.x .guides:hover .guide.line{stroke:#eee}.axis .guides:hover text{fill:#eee}.reactive{fill-opacity:.1}.reactive.active,.active .reactive{fill-opacity:.75}.series text{fill:#eee}#tooltip rect{fill:#111;stroke:#eee}#tooltip text{fill:#eee}.color-0{stroke:#ff5995;fill:#ff5995}.color-1{stroke:#b6e354;fill:#b6e354}.color-2{stroke:#feed6c;fill:#feed6c}.color-3{stroke:#8cedff;fill:#8cedff}.color-4{stroke:#9e6ffe;fill:#9e6ffe}.color-5{stroke:#899ca1;fill:#899ca1}.color-6{stroke:#f8f8f2;fill:#f8f8f2}.color-7{stroke:#bf4646;fill:#bf4646}.color-8{stroke:#516083;fill:#516083}.color-9{stroke:#f92672;fill:#f92672}.color-10{stroke:#82b414;fill:#82b414}.color-11{stroke:#fd971f;fill:#fd971f}.color-12{stroke:#56c2d6;fill:#56c2d6}.color-13{stroke:#808384;fill:#808384}.color-14{stroke:#8c54fe;fill:#8c54fe}.color-15{stroke:#465457;fill:#465457}</style><style type="text/css">text.no_data{text-anchor:middle}.guide.line{fill-opacity:0}.centered{text-anchor:middle}.title{text-anchor:middle}.legends .legend text{fill-opacity:1}.axis.x text{text-anchor:middle}.axis.x:not(.web) text[transform]{text-anchor:start}.axis.y text{text-anchor:end}.axis.y .logarithmic text:not(.major){font-size:50%}.axis .guide.line{stroke-dasharray:4,4}.axis .major.guide.line{stroke-dasharray:6,6}.axis text.major{stroke-width:0.5px}.horizontal .axis.y .guide.line,.vertical .axis.x .guide.line{opacity:0}.axis.y .guides:hover .guide.line,.line-graph .axis.x .guides:hover .guide.line,.gauge-graph .axis.x .guides:hover .guide.line,.stackedline-graph .axis.x .guides:hover .guide.line,.xy-graph .axis.x .guides:hover .guide.line{opacity:1}.axis .guides:hover text{opacity:1}.nofill{fill:none}.dot{stroke-width:1px;fill-opacity:1}.dot.active{stroke-width:5px}.series text{stroke:none}.series text.active{opacity:1}#tooltip rect{fill-opacity:0.8}#tooltip text{fill-opacity:1}#tooltip text tspan.label{fill-opacity:.8}a:visited{fill:none}</style><script type="text/javascript">window.config = {"truncate_legend": null, "print_values": true, "tooltip_font_size": 20, "height": 600, "legend_at_bottom": false, "show_legend": true, "show_dots": true, "explicit_size": false, "legend_font_size": 14, "fill": true, "style": {"opacity": ".1", "foreground": "#999", "plot_background": "#111", "_colors": ["#ff5995", "#b6e354", "#feed6c", "#8cedff", "#9e6ffe", "#899ca1", "#f8f8f2", "#bf4646", "#516083", "#f92672", "#82b414", "#fd971f", "#56c2d6", "#808384", "#8c54fe", "#465457"], "foreground_light": "#eee", "transition": "1s ease-out", "foreground_dark": "#555", "colors": ".color-0 {\n  stroke: #ff5995;\n  fill: #ff5995;\n}\n\n.color-1 {\n  stroke: #b6e354;\n  fill: #b6e354;\n}\n\n.color-2 {\n  stroke: #feed6c;\n  fill: #feed6c;\n}\n\n.color-3 {\n  stroke: #8cedff;\n  fill: #8cedff;\n}\n\n.color-4 {\n  stroke: #9e6ffe;\n  fill: #9e6ffe;\n}\n\n.color-5 {\n  stroke: #899ca1;\n  fill: #899ca1;\n}\n\n.color-6 {\n  stroke: #f8f8f2;\n  fill: #f8f8f2;\n}\n\n.color-7 {\n  stroke: #bf4646;\n  fill: #bf4646;\n}\n\n.color-8 {\n  stroke: #516083;\n  fill: #516083;\n}\n\n.color-9 {\n  stroke: #f92672;\n  fill: #f92672;\n}\n\n.color-10 {\n  stroke: #82b414;\n  fill: #82b414;\n}\n\n.color-11 {\n  stroke: #fd971f;\n  fill: #fd971f;\n}\n\n.color-12 {\n  stroke: #56c2d6;\n  fill: #56c2d6;\n}\n\n.color-13 {\n  stroke: #808384;\n  fill: #808384;\n}\n\n.color-14 {\n  stroke: #8c54fe;\n  fill: #8c54fe;\n}\n\n.color-15 {\n  stroke: #465457;\n  fill: #465457;\n}\n", "background": "black", "opacity_hover": ".75"}, "zero": 0, "title": "Evolution", "rounded_bars": null, "label_font_size": 15, "strict": false, "x_label_rotation": 0, "x_labels": ["0", "1", "2", "3", "4", "5", "6", "7", "8", "9", "10", "11", "12", "13", "14", "15", "16", "17", "18", "19", "20", "21", "22", "23", "24", "25", "26", "27"], "value_font_size": 0, "disable_xml_declaration": false, "css": ["style.css", "graph.css"], "human_readable": true, "y_label_rotation": 0, "pretty_print": false, "interpolate": "cubic", "js": ["https://raw.github.com/Kozea/pygal.js/master/svg.jquery.js", "https://raw.github.com/Kozea/pygal.js/master/pygal-tooltips.js"], "y_labels": null, "interpolation_precision": 250, "no_data_font_size": 64, "logarithmic": false, "print_zeroes": false, "no_data_text": "No data", "legend_box_size": 12, "stroke": true, "include_x_axis": false, "range": null, "truncate_label": null, "order_min": null, "title_font_size": 16, "width": 800}</script><script type="text/javascript" xlink:href="https://raw.github.com/Kozea/pygal.js/master/svg.jquery.js"/><script type="text/javascript" xlink:href="https://raw.github.com/Kozea/pygal.js/master/pygal-tooltips.js"/></defs><g class="graph line-graph vertical"><rect class="background" height="600" width="800" x="0" y="0"/><g class="plot" transform="translate(48, 46)"><rect class="background" height="509" width="676.4" x="0" y="0"/><g class="axis x"><g class="guides"><path class="major line" d="M13.007692 0.000000 v509.000000"/><text class="major" x="13.0076923077" y="526.5">0</text></g><g class="guides"><path class="guide line" d="M37.096011 0.000000 v509.000000"/><text class="" x="37.096011396" y="526.5">1</text></g><g class="guides"><path class="guide line" d="M61.184330 0.000000 v509.000000"/><text class="" x="61.1843304843" y="526.5">2</text></g><g class="guides"><path class="guide line" d="M85.272650 0.000000 v509.000000"/><text class="" x="85.2726495726" y="526.5">3</text></g><g class="guides"><path class="guide line" d="M109.360969 0.000000 v509.000000"/><text class="" x="109.360968661" y="526.5">4</text></g><g class="guides"><path class="guide line" d="M133.449288 0.000000 v509.000000"/><text class="" x="133.449287749" y="526.5">5</text></g><g class="guides"><path class="guide line" d="M157.537607 0.000000 v509.000000"/><text class="" x="157.537606838" y="526.5">6</text></g><g class="guides"><path class="guide line" d="M181.625926 0.000000 v509.000000"/><text class="" x="181.625925926" y="526.5">7</text></g><g class="guides"><path class="guide line" d="M205.714245 0.000000 v509.000000"/><text class="" x="205.714245014" y="526.5">8</text></g><g class="guides"><path class="guide line" d="M229.802564 0.000000 v509.000000"/><text class="" x="229.802564103" y="526.5">9</text></g><g class="guides"><path class="guide line" d="M253.890883 0.000000 v509.000000"/><text class="" x="253.890883191" y="526.5">10</text></g><g class="guides"><path class="guide line" d="M277.979202 0.000000 v509.000000"/><text class="" x="277.979202279" y="526.5">11</text></g><g class="guides"><path class="guide line" d="M302.067521 0.000000 v509.000000"/><text class="" x="302.067521368" y="526.5">12</text></g><g class="guides"><path class="guide line" d="M326.155840 0.000000 v509.000000"/><text class="" x="326.155840456" y="526.5">13</text></g><g class="guides"><path class="guide line" d="M350.244160 0.000000 v509.000000"/><text class="" x="350.244159544" y="526.5">14</text></g><g class="guides"><path class="guide line" d="M374.332479 0.000000 v509.000000"/><text class="" x="374.332478632" y="526.5">15</text></g><g class="guides"><path class="guide line" d="M398.420798 0.000000 v509.000000"/><text class="" x="398.420797721" y="526.5">16</text></g><g class="guides"><path class="guide line" d="M422.509117 0.000000 v509.000000"/><text class="" x="422.509116809" y="526.5">17</text></g><g class="guides"><path class="guide line" d="M446.597436 0.000000 v509.000000"/><text class="" x="446.597435897" y="526.5">18</text></g><g class="guides"><path class="guide line" d="M470.685755 0.000000 v509.000000"/><text class="" x="470.685754986" y="526.5">19</text></g><g class="guides"><path class="guide line" d="M494.774074 0.000000 v509.000000"/><text class="" x="494.774074074" y="526.5">20</text></g><g class="guides"><path class="guide line" d="M518.862393 0.000000 v509.000000"/><text class="" x="518.862393162" y="526.5">21</text></g><g class="guides"><path class="guide line" d="M542.950712 0.000000 v509.000000"/><text class="" x="542.950712251" y="526.5">22</text></g><g class="guides"><path class="guide line" d="M567.039031 0.000000 v509.000000"/><text class="" x="567.039031339" y="526.5">23</text></g><g class="guides"><path class="guide line" d="M591.127350 0.000000 v509.000000"/><text class="" x="591.127350427" y="526.5">24</text></g><g class="guides"><path class="guide line" d="M615.215670 0.000000 v509.000000"/><text class="" x="615.215669516" y="526.5">25</text></g><g class="guides"><path class="guide line" d="M639.303989 0.000000 v509.000000"/><text class="" x="639.303988604" y="526.5">26</text></g><g class="guides"><path class="major guide line" d="M663.392308 0.000000 v509.000000"/><text class="major" x="663.392307692" y="526.5">27</text></g></g><g class="axis y"><path class="line" d="M0.000000 509.000000 h676.400000"/><g class="guides"><path class="major guide line" d="M0.000000 401.865372 h676.400000"/><text class="major" x="-5" y="407.115371503">10</text></g><g class="guides"><path class="guide line" d="M0.000000 293.161164 h676.400000"/><text class="" x="-5" y="298.411164224">20</text></g><g class="guides"><path class="guide line" d="M0.000000 184.456957 h676.400000"/><text class="" x="-5" y="189.706956945">30</text></g><g class="guides"><path class="guide line" d="M0.000000 75.752750 h676.400000"/><text class="" x="-5" y="81.0027496654">40</text></g></g><g class="series serie-0 color-0"><path class="line reactive" d="M13.007692 509.000000 L13.007692 361.617390 15.609231 348.821546 18.210769 337.599669 20.812308 327.860314 23.413846 319.512034 26.015385 312.463384 28.616923 306.622918 31.218462 301.899190 33.820000 298.200756 36.421538 295.436168 39.023077 293.512581 41.624615 292.324580 44.226154 291.760108 46.827692 291.707050 49.429231 292.053291 52.030769 292.686715 54.632308 293.495208 57.233846 294.366653 59.835385 295.188936 62.436923 295.850901 65.038462 296.265532 67.640000 296.371141 70.241538 296.107242 72.843077 295.413350 75.444615 294.228977 78.046154 292.493637 80.647692 290.146844 83.249231 287.128112 85.850769 283.377615 88.452308 278.942942 91.053846 274.096926 93.655385 269.140764 96.256923 264.375651 98.858462 260.102784 101.460000 256.623359 104.061538 254.238571 106.663077 253.249616 109.264615 253.957691 111.866154 256.576108 114.467692 260.925295 117.069231 266.715936 119.670769 273.658711 122.272308 281.464299 124.873846 289.843378 127.475385 298.506628 130.076923 307.164727 132.678462 315.528354 135.280000 323.305582 137.881538 330.177903 140.483077 335.811292 143.084615 339.871525 145.686154 342.024379 148.287692 341.935634 150.889231 339.271065 153.490769 333.696450 156.092308 324.877568 158.693846 312.498976 161.295385 296.814812 163.896923 278.737704 166.498462 259.216964 169.100000 239.201902 171.701538 219.641829 174.303077 201.486055 176.904615 185.683891 179.506154 173.184648 182.107692 164.935748 184.709231 161.397227 187.310769 161.895436 189.912308 165.595895 192.513846 171.664121 195.115385 179.265637 197.716923 187.565960 200.318462 195.730610 202.920000 202.925108 205.521538 208.314972 208.123077 211.232961 210.724615 211.847845 213.326154 210.589096 215.927692 207.886269 218.529231 204.168922 221.130769 199.866609 223.732308 195.408888 226.333846 191.225315 228.935385 187.745446 231.536923 185.357953 234.138462 183.976239 236.740000 183.207078 239.341538 182.652136 241.943077 181.913076 244.544615 180.591563 247.146154 178.289262 249.747692 174.607838 252.349231 169.148955 254.950769 161.527291 257.552308 151.841977 260.153846 140.809321 262.755385 129.185683 265.356923 117.727419 267.958462 107.190888 270.560000 98.332448 273.161538 91.908456 275.763077 88.675271 278.364615 89.388305 280.966154 94.366603 283.567692 102.801436 286.169231 113.704313 288.770769 126.086742 291.372308 138.960232 293.973846 151.336292 296.575385 162.226430 299.176923 170.642156 301.778462 175.594977 304.380000 176.298280 306.981538 173.095095 309.583077 166.721168 312.184615 157.912639 314.786154 147.405646 317.387692 135.936328 319.989231 124.240827 322.590769 113.055280 325.192308 103.115828 327.793846 95.121846 330.395385 89.282354 332.996923 85.457278 335.598462 83.499060 338.200000 83.260145 340.801538 84.592975 343.403077 87.349995 346.004615 91.383647 348.606154 96.546376 351.207692 102.689167 353.809231 109.595012 356.410769 116.951394 359.012308 124.438636 361.613846 131.737061 364.215385 138.526990 366.816923 144.488747 369.418462 149.302655 372.020000 152.649035 374.621538 154.208312 377.223077 153.761832 379.824615 151.381248 382.426154 147.190092 385.027692 141.311894 387.629231 133.870187 390.230769 124.988502 392.832308 114.790372 395.433846 103.399328 398.035385 90.938902 400.636923 77.586522 403.238462 63.857745 405.840000 50.398961 408.441538 37.856842 411.043077 26.878060 413.644615 18.109287 416.246154 12.197197 418.847692 9.788462 421.449231 11.529753 424.050769 18.010631 426.652308 28.940492 429.253846 43.337853 431.855385 60.202676 434.456923 78.534917 437.058462 97.334538 439.660000 115.601496 442.261538 132.335751 444.863077 146.537263 447.464615 157.216246 450.066154 163.998267 452.667692 167.462689 455.269231 168.270920 457.870769 167.084369 460.472308 164.564446 463.073846 161.372560 465.675385 158.170119 468.276923 155.618533 470.878462 154.379142 473.480000 154.905885 476.081538 156.987605 478.683077 160.280095 481.284615 164.439148 483.886154 169.120559 486.487692 173.980121 489.089231 178.673628 491.690769 182.856873 494.292308 186.185650 496.893846 188.352705 499.495385 189.311263 502.096923 189.126529 504.698462 187.864144 507.300000 185.589748 509.901538 182.368982 512.503077 178.267484 515.104615 173.350896 517.706154 167.684857 520.307692 161.340077 522.909231 154.478239 525.510769 147.339724 528.112308 140.167506 530.713846 133.204557 533.315385 126.693853 535.916923 120.878366 538.518462 116.001071 541.120000 112.304942 543.721538 110.030614 546.323077 109.232391 548.924615 109.645546 551.526154 110.974050 554.127692 112.921873 556.729231 115.192986 559.330769 117.491359 561.932308 119.520962 564.533846 120.985766 567.135385 121.589746 569.736923 121.159547 572.338462 119.960961 574.940000 118.358014 577.541538 116.714731 580.143077 115.395137 582.744615 114.763259 585.346154 115.183121 587.947692 117.018748 590.549231 120.634167 593.150769 126.318852 595.752308 133.770216 598.353846 142.403336 600.955385 151.631550 603.556923 160.868194 606.158462 169.526608 608.760000 177.020128 611.361538 182.762091 613.963077 186.165836 616.564615 186.668193 619.166154 184.202076 621.767692 179.173087 624.369231 172.005639 626.970769 163.124141 629.572308 152.953005 632.173846 141.916643 634.775385 130.439466 637.376923 118.945885 639.978462 107.861342 642.580000 97.725166 645.181538 89.292337 647.783077 83.341850 650.384615 80.652704 652.986154 82.003896 655.587692 88.174423 658.189231 99.943282 660.790769 118.089471 663.392308 143.391988 663.392308 509.000000"/></g><g class="series serie-1 color-1"><path class="line reactive" d="M13.007692 509.000000 L13.007692 396.711153 15.609231 355.534638 18.210769 324.092013 20.812308 301.405932 23.413846 286.499050 26.015385 278.394020 28.616923 276.113497 31.218462 278.680135 33.820000 285.116588 36.421538 294.445510 39.023077 305.716436 41.624615 318.220236 44.226154 331.375235 46.827692 344.600910 49.429231 357.316741 52.030769 368.942204 54.632308 378.896778 57.233846 386.599941 59.835385 391.471170 62.436923 392.952223 65.038462 391.044735 67.640000 386.337935 70.241538 379.448876 72.843077 370.994613 75.444615 361.592201 78.046154 351.858693 80.647692 342.411144 83.249231 333.866608 85.850769 326.840506 88.452308 321.682953 91.053846 318.187724 93.655385 316.078539 96.256923 315.079121 98.858462 314.913189 101.460000 315.304466 104.061538 315.976670 106.663077 316.653525 109.264615 317.058750 111.866154 316.983412 114.467692 316.519638 117.069231 315.843655 119.670769 315.131691 122.272308 314.559976 124.873846 314.304739 127.475385 314.542210 130.076923 315.448616 132.678462 317.200187 135.280000 319.946766 137.881538 323.569281 140.483077 327.791595 143.084615 332.335599 145.686154 336.923189 148.287692 341.276255 150.889231 345.116692 153.490769 348.166391 156.092308 350.147247 158.693846 350.788148 161.295385 350.030177 163.896923 348.059734 166.498462 345.076881 169.100000 341.281685 171.701538 336.874210 174.303077 332.054520 176.904615 327.022680 179.506154 321.978755 182.107692 317.122566 184.709231 312.591607 187.310769 308.378378 189.912308 304.454814 192.513846 300.792848 195.115385 297.364415 197.716923 294.141448 200.318462 291.095880 202.920000 288.199646 205.521538 285.424680 208.123077 282.745465 210.724615 280.149235 213.326154 277.627200 215.927692 275.170571 218.529231 272.770558 221.130769 270.418372 223.732308 268.105224 226.333846 265.822325 228.935385 263.560885 231.536923 261.312072 234.138462 259.066536 236.740000 256.814599 239.341538 254.546574 241.943077 252.252776 244.544615 249.923521 247.146154 247.549122 249.747692 245.119895 252.349231 242.626153 254.950769 240.058784 257.552308 237.429961 260.153846 234.778981 262.755385 232.146899 265.356923 229.574768 267.958462 227.103646 270.560000 224.774587 273.161538 222.628645 275.763077 220.706877 278.364615 219.050232 280.966154 217.651089 283.567692 216.376296 286.169231 215.072693 288.770769 213.587120 291.372308 211.766416 293.973846 209.457421 296.575385 206.506974 299.176923 202.761915 301.778462 198.069084 304.380000 192.379623 306.981538 186.228322 309.583077 180.352876 312.184615 175.491179 314.786154 172.381129 317.387692 171.760621 319.989231 174.367552 322.590769 180.939818 325.192308 192.215317 327.793846 208.835808 330.395385 230.160769 332.996923 254.636799 335.598462 280.690931 338.200000 306.750198 340.801538 331.241634 343.403077 352.592270 346.004615 369.229139 348.606154 379.579276 351.207692 382.096094 353.809231 376.463777 356.410769 364.095337 359.012308 346.533395 361.613846 325.320572 364.215385 301.999490 366.816923 278.112771 369.418462 255.203036 372.020000 234.812908 374.621538 218.484482 377.223077 207.235736 379.824615 200.577021 382.426154 197.749264 385.027692 197.993389 387.629231 200.550323 390.230769 204.660992 392.832308 209.566321 395.433846 214.507236 398.035385 218.724663 400.636923 221.583504 403.238462 223.226451 405.840000 224.097145 408.441538 224.639878 411.043077 225.298944 413.644615 226.518635 416.246154 228.743244 418.847692 232.417064 421.449231 237.984389 424.050769 245.847305 426.652308 255.757485 429.253846 266.956059 431.855385 278.670443 434.456923 290.128056 437.058462 300.556313 439.660000 309.182630 442.261538 315.234424 444.863077 317.939112 447.464615 316.533983 450.066154 310.848645 452.667692 301.630805 455.269231 289.707147 457.870769 275.904351 460.472308 261.049102 463.073846 245.968081 465.675385 231.487971 468.276923 218.435456 470.878462 207.637146 473.480000 199.703487 476.081538 194.551725 478.683077 191.960436 481.284615 191.708196 483.886154 193.573580 486.487692 197.335163 489.089231 202.771521 491.690769 209.661231 494.292308 217.782867 496.893846 226.887770 499.495385 236.535307 502.096923 246.202310 504.698462 255.365294 507.300000 263.500771 509.901538 270.085255 512.503077 274.595260 515.104615 276.507300 517.706154 275.297887 520.307692 270.482518 522.909231 262.276478 525.510769 251.500357 528.112308 238.994702 530.713846 225.600061 533.315385 212.156981 535.916923 199.506010 538.518462 188.487695 541.120000 179.942583 543.721538 174.704519 546.323077 173.072916 548.924615 174.432180 551.526154 178.076934 554.127692 183.301799 556.729231 189.401398 559.330769 195.670351 561.932308 201.403281 564.533846 205.894809 567.135385 208.439567 569.736923 208.557391 572.338462 206.574333 574.940000 202.996789 577.541538 198.331154 580.143077 193.083824 582.744615 187.761196 585.346154 182.869664 587.947692 178.915624 590.549231 176.405472 593.150769 175.779119 595.752308 176.948472 598.353846 179.573649 600.955385 183.313216 603.556923 187.825741 606.158462 192.769789 608.760000 197.803928 611.361538 202.586725 613.963077 206.776747 616.564615 210.043371 619.166154 212.284281 621.767692 213.614698 624.369231 214.158498 626.970769 214.039559 629.572308 213.381756 632.173846 212.308967 634.775385 210.945069 637.376923 209.413938 639.978462 207.840086 642.580000 206.418260 645.181538 205.476191 647.783077 205.356426 650.384615 206.401508 652.986154 208.953985 655.587692 213.356400 658.189231 219.951299 660.790769 229.081226 663.392308 241.088728 663.392308 509.000000"/></g><g class="series serie-2 color-2"><path class="line reactive" d="M13.007692 509.000000 L13.007692 474.759993 15.609231 487.066949 18.210769 494.941327 20.812308 498.837924 23.413846 499.211538 26.015385 496.516967 28.616923 491.209008 31.218462 483.742458 33.820000 474.572116 36.421538 464.152778 39.023077 452.924951 41.624615 441.200835 44.226154 429.224869 46.827692 417.240879 49.429231 405.492690 52.030769 394.224128 54.632308 383.679018 57.233846 374.101187 59.835385 365.734459 62.436923 358.813049 65.038462 353.329657 67.640000 349.023508 70.241538 345.621825 72.843077 342.851830 75.444615 340.440746 78.046154 338.115797 80.647692 335.604204 83.249231 332.633191 85.850769 328.931213 88.452308 324.426746 91.053846 319.467714 93.655385 314.454856 96.256923 309.788913 98.858462 305.870623 101.460000 303.100726 104.061538 301.879962 106.663077 302.609070 109.264615 305.688790 111.866154 311.365435 114.467692 319.194959 117.069231 328.540479 119.670769 338.765101 122.272308 349.231932 124.873846 359.304078 127.475385 368.344647 130.076923 375.716744 132.678462 380.783477 135.280000 382.964686 137.881538 382.258376 140.483077 379.000250 143.084615 373.530242 145.686154 366.188288 148.287692 357.314325 150.889231 347.248287 153.490769 336.330111 156.092308 324.899731 158.693846 313.297706 161.295385 301.883440 163.896923 291.038130 166.498462 281.144185 169.100000 272.584014 171.701538 265.740026 174.303077 260.994632 176.904615 258.730241 179.506154 259.329263 182.107692 263.172727 184.709231 270.285394 187.310769 279.863330 189.912308 290.985037 192.513846 302.729016 195.115385 314.173770 197.716923 324.397799 200.318462 332.479606 202.920000 337.497692 205.521538 338.530559 208.123077 334.921357 210.724615 327.336186 213.326154 316.853693 215.927692 304.552658 218.529231 291.511863 221.130769 278.810090 223.732308 267.526121 226.333846 258.738738 228.935385 253.526721 231.536923 252.868672 234.138462 256.578601 236.740000 263.719166 239.341538 273.340504 241.943077 284.492752 244.544615 296.226045 247.146154 307.590520 249.747692 317.636314 252.349231 325.413563 254.950769 329.988895 257.552308 331.042843 260.153846 329.038041 262.755385 324.487873 265.356923 317.905723 267.958462 309.804976 270.560000 300.699016 273.161538 291.101227 275.763077 281.524992 278.364615 272.483402 280.966154 264.353523 283.567692 257.160877 286.169231 250.874951 288.770769 245.465232 291.372308 240.901207 293.973846 237.152364 296.575385 234.188188 299.176923 231.978168 301.778462 230.491790 304.380000 229.694080 306.981538 229.525099 309.583077 229.916231 312.184615 230.798850 314.786154 232.104330 317.387692 233.764045 319.989231 235.709369 322.590769 237.871677 325.192308 240.182343 327.793846 242.574794 330.395385 245.009856 332.996923 247.467855 335.598462 249.929539 338.200000 252.375653 340.801538 254.786942 343.403077 257.144154 346.004615 259.428033 348.606154 261.619326 351.207692 263.698030 353.809231 265.609212 356.410769 267.248872 359.012308 268.509332 361.613846 269.282915 364.215385 269.461941 366.816923 268.938734 369.418462 267.605615 372.020000 265.354906 374.621538 262.079040 377.223077 257.780514 379.824615 252.778428 382.426154 247.448463 385.027692 242.166298 387.629231 237.307611 390.230769 233.248085 392.832308 230.363396 395.433846 229.029227 398.035385 229.621256 400.636923 232.408731 403.238462 236.993183 405.840000 242.717784 408.441538 248.925145 411.043077 254.957877 413.644615 260.158593 416.246154 263.869903 418.847692 265.434421 421.449231 264.194757 424.050769 259.540254 426.652308 251.580427 429.253846 240.990088 431.855385 228.459231 434.456923 214.677852 437.058462 200.335946 439.660000 186.123509 442.261538 172.730537 444.863077 160.847024 447.464615 151.157412 450.066154 144.012828 452.667692 139.247768 455.269231 136.652283 457.870769 136.016428 460.472308 137.130255 463.073846 139.783817 465.675385 143.767167 468.276923 148.870358 470.878462 154.883439 473.480000 161.584554 476.081538 168.713664 478.683077 176.003096 481.284615 183.185173 483.886154 189.992221 486.487692 196.156564 489.089231 201.410528 491.690769 205.486438 494.292308 208.116618 496.893846 209.077486 499.495385 208.456257 502.096923 206.473767 504.698462 203.351365 507.300000 199.310404 509.901538 194.572235 512.503077 189.358210 515.104615 183.889679 517.706154 178.387995 520.307692 173.078547 522.909231 168.259247 525.510769 164.290732 528.112308 161.535707 530.713846 160.356877 533.315385 161.116948 535.916923 164.178626 538.518462 169.904617 541.120000 178.657624 543.721538 190.793303 546.323077 206.104957 548.924615 223.423088 551.526154 241.483726 554.127692 259.022898 556.729231 274.776633 559.330769 287.480958 561.932308 295.871901 564.533846 298.685491 567.135385 294.657782 569.736923 283.100099 572.338462 265.383217 574.940000 243.338587 577.541538 218.797663 580.143077 193.591897 582.744615 169.552741 585.346154 148.511648 587.947692 132.300070 590.549231 122.749461 593.150769 121.412380 595.752308 127.626525 598.353846 139.673383 600.955385 155.827937 603.556923 174.365172 606.158462 193.560071 608.760000 211.687616 611.361538 227.022791 613.963077 237.840580 616.564615 242.478646 619.166154 240.598294 621.767692 233.122035 624.369231 221.022566 626.970769 205.272586 629.572308 186.844792 632.173846 166.711882 634.775385 145.846554 637.376923 125.221505 639.978462 105.812472 642.580000 88.931212 645.181538 76.525727 647.783077 70.614887 650.384615 73.217563 652.986154 86.352623 655.587692 112.038938 658.189231 152.295379 660.790769 209.140814 663.392308 284.594115 663.392308 509.000000"/></g></g><g class="plot overlay" transform="translate(48, 46)"><g class="series serie-0 color-0"><g class="dots"><circle class="dot reactive tooltip-trigger" cx="13.0076923077" cy="361.617390255" r="2.5"/><desc class="value">13.703</desc><desc class="x top">13.0076923077</desc><desc class="y top">361.617390255</desc></g><g class="dots"><circle class="dot reactive tooltip-trigger" cx="37.096011396" cy="294.860620068" r="2.5"/><desc class="value">19.844</desc><desc class="x top">37.096011396</desc><desc class="y top">294.860620068</desc></g><g class="dots"><circle class="dot reactive tooltip-trigger" cx="61.1843304843" cy="295.558895232" r="2.5"/><desc class="value">19.779</desc><desc class="x top">61.1843304843</desc><desc class="y top">295.558895232</desc></g><g class="dots"><circle class="dot reactive tooltip-trigger" cx="85.2726495726" cy="284.276937735" r="2.5"/><desc class="value">20.817</desc><desc class="x top">85.2726495726</desc><desc class="y top">284.276937735</desc></g><g class="dots"><circle class="dot reactive tooltip-trigger" cx="109.360968661" cy="254.020434008" r="2.5"/><desc class="value">23.601</desc><desc class="x ">109.360968661</desc><desc class="y ">254.020434008</desc></g><g class="dots"><circle class="dot reactive tooltip-trigger" cx="133.449287749" cy="317.90738561" r="2.5"/><desc class="value">17.724</desc><desc class="x top">133.449287749</desc><desc class="y top">317.90738561</desc></g><g class="dots"><circle class="dot reactive tooltip-trigger" cx="157.537606838" cy="318.453323135" r="2.5"/><desc class="value">17.673</desc><desc class="x top">157.537606838</desc><desc class="y top">318.453323135</desc></g><g class="dots"><circle class="dot reactive tooltip-trigger" cx="181.625925926" cy="166.100721039" r="2.5"/><desc class="value">31.689</desc><desc class="x ">181.625925926</desc><desc class="y ">166.100721039</desc></g><g class="dots"><circle class="dot reactive tooltip-trigger" cx="205.714245014" cy="208.619481243" r="2.5"/><desc class="value">27.777</desc><desc class="x ">205.714245014</desc><desc class="y ">208.619481243</desc></g><g class="dots"><circle class="dot reactive tooltip-trigger" cx="229.802564103" cy="186.816112148" r="2.5"/><desc class="value">29.783</desc><desc class="x ">229.802564103</desc><desc class="y ">186.816112148</desc></g><g class="dots"><circle class="dot reactive tooltip-trigger" cx="253.890883191" cy="164.912875385" r="2.5"/><desc class="value">31.798</desc><desc class="x ">253.890883191</desc><desc class="y ">164.912875385</desc></g><g class="dots"><circle class="dot reactive tooltip-trigger" cx="277.979202279" cy="89.0049486246" r="2.5"/><desc class="value">38.781</desc><desc class="x ">277.979202279</desc><desc class="y ">89.0049486246</desc></g><g class="dots"><circle class="dot reactive tooltip-trigger" cx="302.067521368" cy="175.888592289" r="2.5"/><desc class="value">30.788</desc><desc class="x ">302.067521368</desc><desc class="y ">175.888592289</desc></g><g class="dots"><circle class="dot reactive tooltip-trigger" cx="326.155840456" cy="99.8983774433" r="2.5"/><desc class="value">37.779</desc><desc class="x ">326.155840456</desc><desc class="y ">99.8983774433</desc></g><g class="dots"><circle class="dot reactive tooltip-trigger" cx="350.244159544" cy="100.309879428" r="2.5"/><desc class="value">37.741</desc><desc class="x left">350.244159544</desc><desc class="y left">100.309879428</desc></g><g class="dots"><circle class="dot reactive tooltip-trigger" cx="374.332478632" cy="154.133165412" r="2.5"/><desc class="value">32.79</desc><desc class="x left">374.332478632</desc><desc class="y left">154.133165412</desc></g><g class="dots"><circle class="dot reactive tooltip-trigger" cx="398.420797721" cy="89.0094868056" r="2.5"/><desc class="value">38.78</desc><desc class="x left">398.420797721</desc><desc class="y left">89.0094868056</desc></g><g class="dots"><circle class="dot reactive tooltip-trigger" cx="422.509116809" cy="13.5777317606" r="2.5"/><desc class="value">45.72</desc><desc class="x left">422.509116809</desc><desc class="y left">13.5777317606</desc></g><g class="dots"><circle class="dot reactive tooltip-trigger" cx="446.597435897" cy="154.104010105" r="2.5"/><desc class="value">32.792</desc><desc class="x left">446.597435897</desc><desc class="y left">154.104010105</desc></g><g class="dots"><circle class="dot reactive tooltip-trigger" cx="470.685754986" cy="154.411447994" r="2.5"/><desc class="value">32.764</desc><desc class="x left">470.685754986</desc><desc class="y left">154.411447994</desc></g><g class="dots"><circle class="dot reactive tooltip-trigger" cx="494.774074074" cy="186.680807458" r="2.5"/><desc class="value">29.795</desc><desc class="x left">494.774074074</desc><desc class="y left">186.680807458</desc></g><g class="dots"><circle class="dot reactive tooltip-trigger" cx="518.862393162" cy="164.943221689" r="2.5"/><desc class="value">31.795</desc><desc class="x left">518.862393162</desc><desc class="y left">164.943221689</desc></g><g class="dots"><circle class="dot reactive tooltip-trigger" cx="542.950712251" cy="110.543278374" r="2.5"/><desc class="value">36.8</desc><desc class="x left">542.950712251</desc><desc class="y left">110.543278374</desc></g><g class="dots"><circle class="dot reactive tooltip-trigger" cx="567.039031339" cy="121.586175924" r="2.5"/><desc class="value">35.784</desc><desc class="x left">567.039031339</desc><desc class="y left">121.586175924</desc></g><g class="dots"><circle class="dot reactive tooltip-trigger" cx="591.127350427" cy="121.715912512" r="2.5"/><desc class="value">35.772</desc><desc class="x left">591.127350427</desc><desc class="y left">121.715912512</desc></g><g class="dots"><circle class="dot reactive tooltip-trigger" cx="615.215669516" cy="186.797673415" r="2.5"/><desc class="value">29.785</desc><desc class="x left">615.215669516</desc><desc class="y left">186.797673415</desc></g><g class="dots"><circle class="dot reactive tooltip-trigger" cx="639.303988604" cy="110.671525096" r="2.5"/><desc class="value">36.788</desc><desc class="x left">639.303988604</desc><desc class="y left">110.671525096</desc></g><g class="dots"><circle class="dot reactive tooltip-trigger" cx="663.392307692" cy="143.391987675" r="2.5"/><desc class="value">33.778</desc><desc class="x left">663.392307692</desc><desc class="y left">143.391987675</desc></g></g><g class="series serie-1 color-1"><g class="dots"><circle class="dot reactive tooltip-trigger" cx="13.0076923077" cy="396.711153271" r="2.5"/><desc class="value">10.474</desc><desc class="x top">13.0076923077</desc><desc class="y top">396.711153271</desc></g><g class="dots"><circle class="dot reactive tooltip-trigger" cx="37.096011396" cy="297.21613119" r="2.5"/><desc class="value">19.627</desc><desc class="x top">37.096011396</desc><desc class="y top">297.21613119</desc></g><g class="dots"><circle class="dot reactive tooltip-trigger" cx="61.1843304843" cy="392.690223686" r="2.5"/><desc class="value">10.844</desc><desc class="x top">61.1843304843</desc><desc class="y top">392.690223686</desc></g><g class="dots"><circle class="dot reactive tooltip-trigger" cx="85.2726495726" cy="328.240168452" r="2.5"/><desc class="value">16.773</desc><desc class="x top">85.2726495726</desc><desc class="y top">328.240168452</desc></g><g class="dots"><circle class="dot reactive tooltip-trigger" cx="109.360968661" cy="317.06493924" r="2.5"/><desc class="value">17.801</desc><desc class="x top">109.360968661</desc><desc class="y top">317.06493924</desc></g><g class="dots"><circle class="dot reactive tooltip-trigger" cx="133.449287749" cy="317.90738561" r="2.5"/><desc class="value">17.724</desc><desc class="x top">133.449287749</desc><desc class="y top">317.90738561</desc></g><g class="dots"><circle class="dot reactive tooltip-trigger" cx="157.537606838" cy="350.683509686" r="2.5"/><desc class="value">14.708</desc><desc class="x top">157.537606838</desc><desc class="y top">350.683509686</desc></g><g class="dots"><circle class="dot reactive tooltip-trigger" cx="181.625925926" cy="317.998744129" r="2.5"/><desc class="value">17.715</desc><desc class="x top">181.625925926</desc><desc class="y top">317.998744129</desc></g><g class="dots"><circle class="dot reactive tooltip-trigger" cx="205.714245014" cy="285.223178685" r="2.5"/><desc class="value">20.73</desc><desc class="x top">205.714245014</desc><desc class="y top">285.223178685</desc></g><g class="dots"><circle class="dot reactive tooltip-trigger" cx="229.802564103" cy="262.810321897" r="2.5"/><desc class="value">22.792</desc><desc class="x top">229.802564103</desc><desc class="y top">262.810321897</desc></g><g class="dots"><circle class="dot reactive tooltip-trigger" cx="253.890883191" cy="241.113987816" r="2.5"/><desc class="value">24.788</desc><desc class="x ">253.890883191</desc><desc class="y ">241.113987816</desc></g><g class="dots"><circle class="dot reactive tooltip-trigger" cx="277.979202279" cy="219.277415263" r="2.5"/><desc class="value">26.797</desc><desc class="x ">277.979202279</desc><desc class="y ">219.277415263</desc></g><g class="dots"><circle class="dot reactive tooltip-trigger" cx="302.067521368" cy="197.482500485" r="2.5"/><desc class="value">28.802</desc><desc class="x ">302.067521368</desc><desc class="y ">197.482500485</desc></g><g class="dots"><circle class="dot reactive tooltip-trigger" cx="326.155840456" cy="197.732933492" r="2.5"/><desc class="value">28.779</desc><desc class="x ">326.155840456</desc><desc class="y ">197.732933492</desc></g><g class="dots"><circle class="dot reactive tooltip-trigger" cx="350.244159544" cy="382.163381803" r="2.5"/><desc class="value">11.812</desc><desc class="x left top">350.244159544</desc><desc class="y left top">382.163381803</desc></g><g class="dots"><circle class="dot reactive tooltip-trigger" cx="374.332478632" cy="220.050651172" r="2.5"/><desc class="value">26.726</desc><desc class="x left">374.332478632</desc><desc class="y left">220.050651172</desc></g><g class="dots"><circle class="dot reactive tooltip-trigger" cx="398.420797721" cy="219.241709395" r="2.5"/><desc class="value">26.8</desc><desc class="x left">398.420797721</desc><desc class="y left">219.241709395</desc></g><g class="dots"><circle class="dot reactive tooltip-trigger" cx="422.509116809" cy="240.89762974" r="2.5"/><desc class="value">24.808</desc><desc class="x left">422.509116809</desc><desc class="y left">240.89762974</desc></g><g class="dots"><circle class="dot reactive tooltip-trigger" cx="446.597435897" cy="317.501211638" r="2.5"/><desc class="value">17.761</desc><desc class="x left top">446.597435897</desc><desc class="y left top">317.501211638</desc></g><g class="dots"><circle class="dot reactive tooltip-trigger" cx="470.685754986" cy="208.341579157" r="2.5"/><desc class="value">27.803</desc><desc class="x left">470.685754986</desc><desc class="y left">208.341579157</desc></g><g class="dots"><circle class="dot reactive tooltip-trigger" cx="494.774074074" cy="219.404364933" r="2.5"/><desc class="value">26.785</desc><desc class="x left">494.774074074</desc><desc class="y left">219.404364933</desc></g><g class="dots"><circle class="dot reactive tooltip-trigger" cx="518.862393162" cy="273.621507615" r="2.5"/><desc class="value">21.798</desc><desc class="x left top">518.862393162</desc><desc class="y left top">273.621507615</desc></g><g class="dots"><circle class="dot reactive tooltip-trigger" cx="542.950712251" cy="175.86602293" r="2.5"/><desc class="value">30.79</desc><desc class="x left">542.950712251</desc><desc class="y left">175.86602293</desc></g><g class="dots"><circle class="dot reactive tooltip-trigger" cx="567.039031339" cy="208.388253767" r="2.5"/><desc class="value">27.798</desc><desc class="x left">567.039031339</desc><desc class="y left">208.388253767</desc></g><g class="dots"><circle class="dot reactive tooltip-trigger" cx="591.127350427" cy="176.094684679" r="2.5"/><desc class="value">30.769</desc><desc class="x left">591.127350427</desc><desc class="y left">176.094684679</desc></g><g class="dots"><circle class="dot reactive tooltip-trigger" cx="615.215669516" cy="208.482023556" r="2.5"/><desc class="value">27.79</desc><desc class="x left">615.215669516</desc><desc class="y left">208.482023556</desc></g><g class="dots"><circle class="dot reactive tooltip-trigger" cx="639.303988604" cy="208.244912504" r="2.5"/><desc class="value">27.812</desc><desc class="x left">639.303988604</desc><desc class="y left">208.244912504</desc></g><g class="dots"><circle class="dot reactive tooltip-trigger" cx="663.392307692" cy="241.0887285" r="2.5"/><desc class="value">24.79</desc><desc class="x left">663.392307692</desc><desc class="y left">241.0887285</desc></g></g><g class="series serie-2 color-2"><g class="dots"><circle class="dot reactive tooltip-trigger" cx="13.0076923077" cy="474.759992906" r="2.5"/><desc class="value">3.294</desc><desc class="x top">13.0076923077</desc><desc class="y top">474.759992906</desc></g><g class="dots"><circle class="dot reactive tooltip-trigger" cx="37.096011396" cy="461.303494201" r="2.5"/><desc class="value">4.532</desc><desc class="x top">37.096011396</desc><desc class="y top">461.303494201</desc></g><g class="dots"><circle class="dot reactive tooltip-trigger" cx="61.1843304843" cy="361.953540262" r="2.5"/><desc class="value">13.672</desc><desc class="x top">61.1843304843</desc><desc class="y top">361.953540262</desc></g><g class="dots"><circle class="dot reactive tooltip-trigger" cx="85.2726495726" cy="329.830162347" r="2.5"/><desc class="value">16.627</desc><desc class="x top">85.2726495726</desc><desc class="y top">329.830162347</desc></g><g class="dots"><circle class="dot reactive tooltip-trigger" cx="109.360968661" cy="305.853221626" r="2.5"/><desc class="value">18.832</desc><desc class="x top">109.360968661</desc><desc class="y top">305.853221626</desc></g><g class="dots"><circle class="dot reactive tooltip-trigger" cx="133.449287749" cy="381.74837904" r="2.5"/><desc class="value">11.851</desc><desc class="x top">133.449287749</desc><desc class="y top">381.74837904</desc></g><g class="dots"><circle class="dot reactive tooltip-trigger" cx="157.537606838" cy="318.453323135" r="2.5"/><desc class="value">17.673</desc><desc class="x top">157.537606838</desc><desc class="y top">318.453323135</desc></g><g class="dots"><circle class="dot reactive tooltip-trigger" cx="181.625925926" cy="262.199761801" r="2.5"/><desc class="value">22.848</desc><desc class="x top">181.625925926</desc><desc class="y top">262.199761801</desc></g><g class="dots"><circle class="dot reactive tooltip-trigger" cx="205.714245014" cy="338.423190324" r="2.5"/><desc class="value">15.836</desc><desc class="x top">205.714245014</desc><desc class="y top">338.423190324</desc></g><g class="dots"><circle class="dot reactive tooltip-trigger" cx="229.802564103" cy="252.770363719" r="2.5"/><desc class="value">23.716</desc><desc class="x ">229.802564103</desc><desc class="y ">252.770363719</desc></g><g class="dots"><circle class="dot reactive tooltip-trigger" cx="253.890883191" cy="328.564472432" r="2.5"/><desc class="value">16.743</desc><desc class="x top">253.890883191</desc><desc class="y top">328.564472432</desc></g><g class="dots"><circle class="dot reactive tooltip-trigger" cx="277.979202279" cy="273.769396783" r="2.5"/><desc class="value">21.784</desc><desc class="x top">277.979202279</desc><desc class="y top">273.769396783</desc></g><g class="dots"><circle class="dot reactive tooltip-trigger" cx="302.067521368" cy="230.369980418" r="2.5"/><desc class="value">25.776</desc><desc class="x ">302.067521368</desc><desc class="y ">230.369980418</desc></g><g class="dots"><circle class="dot reactive tooltip-trigger" cx="326.155840456" cy="241.062033407" r="2.5"/><desc class="value">24.793</desc><desc class="x ">326.155840456</desc><desc class="y ">241.062033407</desc></g><g class="dots"><circle class="dot reactive tooltip-trigger" cx="350.244159544" cy="262.942871319" r="2.5"/><desc class="value">22.78</desc><desc class="x left top">350.244159544</desc><desc class="y left top">262.942871319</desc></g><g class="dots"><circle class="dot reactive tooltip-trigger" cx="374.332478632" cy="262.496905102" r="2.5"/><desc class="value">22.821</desc><desc class="x left top">374.332478632</desc><desc class="y left top">262.496905102</desc></g><g class="dots"><circle class="dot reactive tooltip-trigger" cx="398.420797721" cy="229.895661446" r="2.5"/><desc class="value">25.82</desc><desc class="x left">398.420797721</desc><desc class="y left">229.895661446</desc></g><g class="dots"><circle class="dot reactive tooltip-trigger" cx="422.509116809" cy="262.734524973" r="2.5"/><desc class="value">22.799</desc><desc class="x left top">422.509116809</desc><desc class="y left top">262.734524973</desc></g><g class="dots"><circle class="dot reactive tooltip-trigger" cx="446.597435897" cy="154.104010105" r="2.5"/><desc class="value">32.792</desc><desc class="x left">446.597435897</desc><desc class="y left">154.104010105</desc></g><g class="dots"><circle class="dot reactive tooltip-trigger" cx="470.685754986" cy="154.411447994" r="2.5"/><desc class="value">32.764</desc><desc class="x left">470.685754986</desc><desc class="y left">154.411447994</desc></g><g class="dots"><circle class="dot reactive tooltip-trigger" cx="494.774074074" cy="208.423639095" r="2.5"/><desc class="value">27.795</desc><desc class="x left">494.774074074</desc><desc class="y left">208.423639095</desc></g><g class="dots"><circle class="dot reactive tooltip-trigger" cx="518.862393162" cy="175.990053048" r="2.5"/><desc class="value">30.779</desc><desc class="x left">518.862393162</desc><desc class="y left">175.990053048</desc></g><g class="dots"><circle class="dot reactive tooltip-trigger" cx="542.950712251" cy="186.827648472" r="2.5"/><desc class="value">29.782</desc><desc class="x left">542.950712251</desc><desc class="y left">186.827648472</desc></g><g class="dots"><circle class="dot reactive tooltip-trigger" cx="567.039031339" cy="294.943678474" r="2.5"/><desc class="value">19.836</desc><desc class="x left top">567.039031339</desc><desc class="y left top">294.943678474</desc></g><g class="dots"><circle class="dot reactive tooltip-trigger" cx="591.127350427" cy="121.715912512" r="2.5"/><desc class="value">35.772</desc><desc class="x left">591.127350427</desc><desc class="y left">121.715912512</desc></g><g class="dots"><circle class="dot reactive tooltip-trigger" cx="615.215669516" cy="240.929109363" r="2.5"/><desc class="value">24.805</desc><desc class="x left">615.215669516</desc><desc class="y left">240.929109363</desc></g><g class="dots"><circle class="dot reactive tooltip-trigger" cx="639.303988604" cy="110.671525096" r="2.5"/><desc class="value">36.788</desc><desc class="x left">639.303988604</desc><desc class="y left">110.671525096</desc></g><g class="dots"><circle class="dot reactive tooltip-trigger" cx="663.392307692" cy="284.594115348" r="2.5"/><desc class="value">20.788</desc><desc class="x left top">663.392307692</desc><desc class="y left top">284.594115348</desc></g></g></g><g class="plot text-overlay" transform="translate(48, 46)"><g class="series serie-0 color-0"><text class="centered" x="13.0076923077" y="361.617390255">13.703</text><text class="centered" x="37.096011396" y="294.860620068">19.844</text><text class="centered" x="61.1843304843" y="295.558895232">19.779</text><text class="centered" x="85.2726495726" y="284.276937735">20.817</text><text class="centered" x="109.360968661" y="254.020434008">23.601</text><text class="centered" x="133.449287749" y="317.90738561">17.724</text><text class="centered" x="157.537606838" y="318.453323135">17.673</text><text class="centered" x="181.625925926" y="166.100721039">31.689</text><text class="centered" x="205.714245014" y="208.619481243">27.777</text><text class="centered" x="229.802564103" y="186.816112148">29.783</text><text class="centered" x="253.890883191" y="164.912875385">31.798</text><text class="centered" x="277.979202279" y="89.0049486246">38.781</text><text class="centered" x="302.067521368" y="175.888592289">30.788</text><text class="centered" x="326.155840456" y="99.8983774433">37.779</text><text class="centered" x="350.244159544" y="100.309879428">37.741</text><text class="centered" x="374.332478632" y="154.133165412">32.79</text><text class="centered" x="398.420797721" y="89.0094868056">38.78</text><text class="centered" x="422.509116809" y="13.5777317606">45.72</text><text class="centered" x="446.597435897" y="154.104010105">32.792</text><text class="centered" x="470.685754986" y="154.411447994">32.764</text><text class="centered" x="494.774074074" y="186.680807458">29.795</text><text class="centered" x="518.862393162" y="164.943221689">31.795</text><text class="centered" x="542.950712251" y="110.543278374">36.8</text><text class="centered" x="567.039031339" y="121.586175924">35.784</text><text class="centered" x="591.127350427" y="121.715912512">35.772</text><text class="centered" x="615.215669516" y="186.797673415">29.785</text><text class="centered" x="639.303988604" y="110.671525096">36.788</text><text class="centered" x="663.392307692" y="143.391987675">33.778</text></g><g class="series serie-1 color-1"><text class="centered" x="13.0076923077" y="396.711153271">10.474</text><text class="centered" x="37.096011396" y="297.21613119">19.627</text><text class="centered" x="61.1843304843" y="392.690223686">10.844</text><text class="centered" x="85.2726495726" y="328.240168452">16.773</text><text class="centered" x="109.360968661" y="317.06493924">17.801</text><text class="centered" x="133.449287749" y="317.90738561">17.724</text><text class="centered" x="157.537606838" y="350.683509686">14.708</text><text class="centered" x="181.625925926" y="317.998744129">17.715</text><text class="centered" x="205.714245014" y="285.223178685">20.73</text><text class="centered" x="229.802564103" y="262.810321897">22.792</text><text class="centered" x="253.890883191" y="241.113987816">24.788</text><text class="centered" x="277.979202279" y="219.277415263">26.797</text><text class="centered" x="302.067521368" y="197.482500485">28.802</text><text class="centered" x="326.155840456" y="197.732933492">28.779</text><text class="centered" x="350.244159544" y="382.163381803">11.812</text><text class="centered" x="374.332478632" y="220.050651172">26.726</text><text class="centered" x="398.420797721" y="219.241709395">26.8</text><text class="centered" x="422.509116809" y="240.89762974">24.808</text><text class="centered" x="446.597435897" y="317.501211638">17.761</text><text class="centered" x="470.685754986" y="208.341579157">27.803</text><text class="centered" x="494.774074074" y="219.404364933">26.785</text><text class="centered" x="518.862393162" y="273.621507615">21.798</text><text class="centered" x="542.950712251" y="175.86602293">30.79</text><text class="centered" x="567.039031339" y="208.388253767">27.798</text><text class="centered" x="591.127350427" y="176.094684679">30.769</text><text class="centered" x="615.215669516" y="208.482023556">27.79</text><text class="centered" x="639.303988604" y="208.244912504">27.812</text><text class="centered" x="663.392307692" y="241.0887285">24.79</text></g><g class="series serie-2 color-2"><text class="centered" x="13.0076923077" y="474.759992906">3.294</text><text class="centered" x="37.096011396" y="461.303494201">4.532</text><text class="centered" x="61.1843304843" y="361.953540262">13.672</text><text class="centered" x="85.2726495726" y="329.830162347">16.627</text><text class="centered" x="109.360968661" y="305.853221626">18.832</text><text class="centered" x="133.449287749" y="381.74837904">11.851</text><text class="centered" x="157.537606838" y="318.453323135">17.673</text><text class="centered" x="181.625925926" y="262.199761801">22.848</text><text class="centered" x="205.714245014" y="338.423190324">15.836</text><text class="centered" x="229.802564103" y="252.770363719">23.716</text><text class="centered" x="253.890883191" y="328.564472432">16.743</text><text class="centered" x="277.979202279" y="273.769396783">21.784</text><text class="centered" x="302.067521368" y="230.369980418">25.776</text><text class="centered" x="326.155840456" y="241.062033407">24.793</text><text class="centered" x="350.244159544" y="262.942871319">22.78</text><text class="centered" x="374.332478632" y="262.496905102">22.821</text><text class="centered" x="398.420797721" y="229.895661446">25.82</text><text class="centered" x="422.509116809" y="262.734524973">22.799</text><text class="centered" x="446.597435897" y="154.104010105">32.792</text><text class="centered" x="470.685754986" y="154.411447994">32.764</text><text class="centered" x="494.774074074" y="208.423639095">27.795</text><text class="centered" x="518.862393162" y="175.990053048">30.779</text><text class="centered" x="542.950712251" y="186.827648472">29.782</text><text class="centered" x="567.039031339" y="294.943678474">19.836</text><text class="centered" x="591.127350427" y="121.715912512">35.772</text><text class="centered" x="615.215669516" y="240.929109363">24.805</text><text class="centered" x="639.303988604" y="110.671525096">36.788</text><text class="centered" x="663.392307692" y="284.594115348">20.788</text></g></g><g class="plot tooltip-overlay" transform="translate(48, 46)"><g id="tooltip" style="opacity: 0" transform="translate(0 0)"><a><rect height="0" id="tooltip-box" rx="5" ry="5" width="0"/><text class="text"><tspan class="label"/><tspan class="value"/></text></a></g></g><g class="legends" transform="translate(734, 56)"><g class="legend reactive activate-serie" id="activate-serie-0"><rect class="color-0 reactive" height="12" width="12" x="0.0" y="1.0"/><text x="17.0" y="11.2">Best</text></g><g class="legend reactive activate-serie" id="activate-serie-1"><rect class="color-1 reactive" height="12" width="12" x="0.0" y="22.0"/><text x="17.0" y="32.2">#1</text></g><g class="legend reactive activate-serie" id="activate-serie-2"><rect class="color-2 reactive" height="12" width="12" x="0.0" y="43.0"/><text x="17.0" y="53.2">#2</text></g></g><text class="title" x="386.2" y="26">Evolution</text></g></svg>