<?xml version='1.0' encoding='utf-8'?>
<svg xmlns:xlink="http://www.w3.org/1999/xlink" xmlns="http://www.w3.org/2000/svg" viewBox="0 0 800 600"><!--Generated with pygal 0.13.0 ©Kozea 2012 on 2013-03-15--><!--http://pygal.org--><!--http://github.com/Kozea/pygal--><defs><style type="text/css">.title{font-family:monospace;font-size:16px}.legends .legend text{font-family:monospace;font-size:14px}.axis text{font-family:monospace;font-size:15px}.series text{font-family:monospace;font-size:0px}#tooltip text{font-family:monospace;font-size:20px}text.no_data{font-size:64px}</style><style type="text/css">svg{background-color:black}svg path,svg line,svg rect,svg circle{-webkit-transition:1s ease-out;-moz-transition:1s ease-out;transition:1s ease-out}.graph &gt; .background{fill:black}.plot &gt; .background{fill:#111}.graph{fill:#999}text.no_data{fill:#eee}.title{fill:#eee}.legends .legend text{fill:#999}.legends .legend:hover text{fill:#eee}.axis .line{stroke:#eee}.axis .guide.line{stroke:#555}.axis .major.line{stroke:#999}.axis text.major{stroke:#eee;fill:#eee}.axis.y .guides:hover .guide.line,.line-graph .axis.x .guides:hover .guide.line,.stackedline-graph .axis.x .guides:hover .guide.line,.xy-graph .axis.x .guides:hover .guide.line{stroke:#eee}.axis .guides:hover text{fill:#eee}.reactive{fill-opacity:.1}.reactive.active,.active .reactive{fill-opacity:.75}.series text{fill:#eee}#tooltip rect{fill:#111;stroke:#eee}#tooltip text{fill:#eee}.color-0{stroke:#ff5995;fill:#ff5995}.color-1{stroke:#b6e354;fill:#b6e354}.color-2{stroke:#feed6c;fill:#feed6c}.color-3{stroke:#8cedff;fill:#8cedff}.color-4{stroke:#9e6ffe;fill:#9e6ffe}.color-5{stroke:#899ca1;fill:#899ca1}.color-6{stroke:#f8f8f2;fill:#f8f8f2}.color-7{stroke:#bf4646;fill:#bf4646}.color-8{stroke:#516083;fill:#516083}.color-9{stroke:#f92672;fill:#f92672}.color-10{stroke:#82b414;fill:#82b414}.color-11{stroke:#fd971f;fill:#fd971f}.color-12{stroke:#56c2d6;fill:#56c2d6}.color-13{stroke:#808384;fill:#808384}.color-14{stroke:#8c54fe;fill:#8c54fe}.color-15{stroke:#465457;fill:#465457}</style><style type="text/css">text.no_data{text-anchor:middle}.guide.line{fill-opacity:0}.centered{text-anchor:middle}.title{text-anchor:middle}.legends .legend text{fill-opacity:1}.axis.x text{text-anchor:middle}.axis.x:not(.web) text[transform]{text-anchor:start}.axis.y text{text-anchor:end}.axis.y .logarithmic text:not(.major){font-size:50%}.axis .guide.line{stroke-dasharray:4,4}.axis .major.guide.line{stroke-dasharray:6,6}.axis text.major{stroke-width:0.5px}.horizontal .axis.y .guide.line,.vertical .axis.x .guide.line{opacity:0}.axis.y .guides:hover .guide.line,.line-graph .axis.x .guides:hover .guide.line,.gauge-graph .axis.x .guides:hover .guide.line,.stackedline-graph .axis.x .guides:hover .guide.line,.xy-graph .axis.x .guides:hover .guide.line{opacity:1}.axis .guides:hover text{opacity:1}.nofill{fill:none}.dot{stroke-width:1px;fill-opacity:1}.dot.active{stroke-width:5px}.series text{stroke:none}.series text.active{opacity:1}#tooltip rect{fill-opacity:0.8}#tooltip text{fill-opacity:1}#tooltip text tspan.label{fill-opacity:.8}a:visited{fill:none}</style><script type="text/javascript">window.config = {"truncate_legend": null, "print_values": true, "tooltip_font_size": 20, "height": 600, "legend_at_bottom": false, "show_legend": true, "show_dots": true, "explicit_size": false, "legend_font_size": 14, "fill": true, "style": {"opacity": ".1", "foreground": "#999", "plot_background": "#111", "_colors": ["#ff5995", "#b6e354", "#feed6c", "#8cedff", "#9e6ffe", "#899ca1", "#f8f8f2", "#bf4646", "#516083", "#f92672", "#82b414", "#fd971f", "#56c2d6", "#808384", "#8c54fe", "#465457"], "foreground_light": "#eee", "transition": "1s ease-out", "foreground_dark": "#555", "colors": ".color-0 {\n  stroke: #ff5995;\n  fill: #ff5995;\n}\n\n.color-1 {\n  stroke: #b6e354;\n  fill: #b6e354;\n}\n\n.color-2 {\n  stroke: #feed6c;\n  fill: #feed6c;\n}\n\n.color-3 {\n  stroke: #8cedff;\n  fill: #8cedff;\n}\n\n.color-4 {\n  stroke: #9e6ffe;\n  fill: #9e6ffe;\n}\n\n.color-5 {\n  stroke: #899ca1;\n  fill: #899ca1;\n}\n\n.color-6 {\n  stroke: #f8f8f2;\n  fill: #f8f8f2;\n}\n\n.color-7 {\n  stroke: #bf4646;\n  fill: #bf4646;\n}\n\n.color-8 {\n  stroke: #516083;\n  fill: #516083;\n}\n\n.color-9 {\n  stroke: #f92672;\n  fill: #f92672;\n}\n\n.color-10 {\n  stroke: #82b414;\n  fill: #82b414;\n}\n\n.color-11 {\n  stroke: #fd971f;\n  fill: #fd971f;\n}\n\n.color-12 {\n  stroke: #56c2d6;\n  fill: #56c2d6;\n}\n\n.color-13 {\n  stroke: #808384;\n  fill: #808384;\n}\n\n.color-14 {\n  stroke: #8c54fe;\n  fill: #8c54fe;\n}\n\n.color-15 {\n  stroke: #465457;\n  fill: #465457;\n}\n", "background": "black", "opacity_hover": ".75"}, "zero": 0, "title": "Evolution", "rounded_bars": null, "label_font_size": 15, "strict": false, "x_label_rotation": 0, "x_labels": ["0", "2", "4", "6", "8", "10", "12", "14", "16", "18", "20", "22", "24", "26", "28"], "value_font_size": 0, "disable_xml_declaration": false, "css": ["style.css", "graph.css"], "human_readable": true, "y_label_rotation": 0, "pretty_print": false, "interpolate": "cubic", "js": ["https://raw.github.com/Kozea/pygal.js/master/svg.jquery.js", "https://raw.github.com/Kozea/pygal.js/master/pygal-tooltips.js"], "y_labels": null, "interpolation_precision": 250, "no_data_font_size": 64, "logarithmic": false, "print_zeroes": false, "no_data_text": "No data", "legend_box_size": 12, "stroke": true, "include_x_axis": false, "range": null, "truncate_label": null, "order_min": null, "title_font_size": 16, "width": 800}</script><script type="text/javascript" xlink:href="https://raw.github.com/Kozea/pygal.js/master/svg.jquery.js"/><script type="text/javascript" xlink:href="https://raw.github.com/Kozea/pygal.js/master/pygal-tooltips.js"/></defs><g class="graph line-graph vertical"><rect class="background" height="600" width="800" x="0" y="0"/><g class="plot" transform="translate(45, 46)"><rect class="background" height="509" width="679.4" x="0" y="0"/><g class="axis x"><g class="guides"><path class="major line" d="M13.065385 0.000000 v509.000000"/><text class="major" x="13.0653846154" y="526.5">0</text></g><g class="guides"><path class="guide line" d="M59.727473 0.000000 v509.000000"/><text class="" x="59.7274725275" y="526.5">2</text></g><g class="guides"><path class="guide line" d="M106.389560 0.000000 v509.000000"/><text class="" x="106.38956044" y="526.5">4</text></g><g class="guides"><path class="guide line" d="M153.051648 0.000000 v509.000000"/><text class="" x="153.051648352" y="526.5">6</text></g><g class="guides"><path class="guide line" d="M199.713736 0.000000 v509.000000"/><text class="" x="199.713736264" y="526.5">8</text></g><g class="guides"><path class="guide line" d="M246.375824 0.000000 v509.000000"/><text class="" x="246.375824176" y="526.5">10</text></g><g class="guides"><path class="guide line" d="M293.037912 0.000000 v509.000000"/><text class="" x="293.037912088" y="526.5">12</text></g><g class="guides"><path class="guide line" d="M339.700000 0.000000 v509.000000"/><text class="" x="339.7" y="526.5">14</text></g><g class="guides"><path class="guide line" d="M386.362088 0.000000 v509.000000"/><text class="" x="386.362087912" y="526.5">16</text></g><g class="guides"><path class="guide line" d="M433.024176 0.000000 v509.000000"/><text class="" x="433.024175824" y="526.5">18</text></g><g class="guides"><path class="guide line" d="M479.686264 0.000000 v509.000000"/><text class="" x="479.686263736" y="526.5">20</text></g><g class="guides"><path class="guide line" d="M526.348352 0.000000 v509.000000"/><text class="" x="526.348351648" y="526.5">22</text></g><g class="guides"><path class="guide line" d="M573.010440 0.000000 v509.000000"/><text class="" x="573.01043956" y="526.5">24</text></g><g class="guides"><path class="guide line" d="M619.672527 0.000000 v509.000000"/><text class="" x="619.672527473" y="526.5">26</text></g><g class="guides"><path class="major guide line" d="M666.334615 0.000000 v509.000000"/><text class="major" x="666.334615385" y="526.5">28</text></g></g><g class="axis y"><g class="guides"><path class="major line" d="M0.000000 469.079362 h679.400000"/><text class="major" x="-5" y="474.329361712">0</text></g><g class="guides"><path class="major guide line" d="M0.000000 409.702946 h679.400000"/><text class="major" x="-5" y="414.952946229">1</text></g><g class="guides"><path class="guide line" d="M0.000000 350.326531 h679.400000"/><text class="" x="-5" y="355.576530746">2</text></g><g class="guides"><path class="guide line" d="M0.000000 290.950115 h679.400000"/><text class="" x="-5" y="296.200115263">3</text></g><g class="guides"><path class="guide line" d="M0.000000 231.573700 h679.400000"/><text class="" x="-5" y="236.823699781">4</text></g><g class="guides"><path class="guide line" d="M0.000000 172.197284 h679.400000"/><text class="" x="-5" y="177.447284298">5</text></g><g class="guides"><path class="guide line" d="M0.000000 112.820869 h679.400000"/><text class="" x="-5" y="118.070868815">6</text></g><g class="guides"><path class="guide line" d="M0.000000 53.444453 h679.400000"/><text class="" x="-5" y="58.6944533324">7</text></g></g><g class="series serie-0 color-0"><path class="line reactive" d="M13.065385 469.079362 L13.065385 295.386595 15.678462 293.579466 18.291538 291.357310 20.904615 288.762874 23.517692 285.838903 26.130769 282.628145 28.743846 279.173345 31.356923 275.517249 33.970000 271.702603 36.583077 267.772154 39.196154 263.768647 41.809231 259.734829 44.422308 255.713446 47.035385 251.747243 49.648462 247.878968 52.261538 244.151365 54.874615 240.607181 57.487692 237.289163 60.100769 234.240038 62.713846 231.493383 65.326923 229.058759 67.940000 226.941839 70.553077 225.148291 73.166154 223.683789 75.779231 222.554001 78.392308 221.764599 81.005385 221.321255 83.618462 221.229638 86.231538 221.495420 88.844615 222.124272 91.457692 223.121863 94.070769 224.493867 96.683846 226.245952 99.296923 228.383790 101.910000 230.913052 104.523077 233.839408 107.136154 237.168230 109.749231 240.878713 112.362308 244.903941 114.975385 249.172302 117.588462 253.612183 120.201538 258.151975 122.814615 262.720065 125.427692 267.244843 128.040769 271.654695 130.653846 275.878012 133.266923 279.843182 135.880000 283.478593 138.493077 286.712633 141.106154 289.473692 143.719231 291.690158 146.332308 293.290420 148.945385 294.202865 151.558462 294.355883 154.171538 293.680104 156.784615 292.180238 159.397692 289.950273 162.010769 287.089511 164.623846 283.697253 167.236923 279.872802 169.850000 275.715459 172.463077 271.324528 175.076154 266.799309 177.689231 262.239106 180.302308 257.743219 182.915385 253.410952 185.528462 249.341606 188.141538 245.634484 190.754615 242.388887 193.367692 239.704117 195.980769 237.679478 198.593846 236.414270 201.206923 236.002204 203.820000 236.443050 206.433077 237.658632 209.046154 239.568415 211.659231 242.091864 214.272308 245.148444 216.885385 248.657618 219.498462 252.538852 222.111538 256.711611 224.724615 261.095358 227.337692 265.609559 229.950769 270.173678 232.563846 274.707180 235.176923 279.129530 237.790000 283.360192 240.403077 287.318631 243.016154 290.924311 245.629231 294.096698 248.242308 296.762391 250.855385 298.918084 253.468462 300.600260 256.081538 301.845854 258.694615 302.691804 261.307692 303.175047 263.920769 303.332520 266.533846 303.201161 269.146923 302.817907 271.760000 302.219694 274.373077 301.443461 276.986154 300.526143 279.599231 299.504679 282.212308 298.416005 284.825385 297.297059 287.438462 296.184778 290.051538 295.116098 292.664615 294.127958 295.277692 293.253119 297.890769 292.498571 300.503846 291.861486 303.116923 291.339014 305.730000 290.928307 308.343077 290.626517 310.956154 290.430794 313.569231 290.338289 316.182308 290.346154 318.795385 290.451540 321.408462 290.651599 324.021538 290.943481 326.634615 291.324337 329.247692 291.791319 331.860769 292.341578 334.473846 292.972266 337.086923 293.680533 339.700000 294.463531 342.313077 295.314208 344.926154 296.208704 347.539231 297.118954 350.152308 298.016895 352.765385 298.874463 355.378462 299.663595 357.991538 300.356228 360.604615 300.924296 363.217692 301.339737 365.830769 301.574488 368.443846 301.600483 371.056923 301.389661 373.670000 300.913956 376.283077 300.145306 378.896154 299.055647 381.509231 297.616915 384.122308 295.801047 386.735385 293.580019 389.348462 290.946631 391.961538 287.948317 394.574615 284.641365 397.187692 281.082063 399.800769 277.326699 402.413846 273.431560 405.026923 269.452935 407.640000 265.447110 410.253077 261.470375 412.866154 257.579016 415.479231 253.829322 418.092308 250.277581 420.705385 246.980079 423.318462 243.993106 425.931538 241.372948 428.544615 239.175895 431.157692 237.458232 433.770769 236.275726 436.383846 235.638483 438.996923 235.476179 441.610000 235.710299 444.223077 236.262328 446.836154 237.053753 449.449231 238.006059 452.062308 239.040732 454.675385 240.079257 457.288462 241.043122 459.901538 241.853811 462.514615 242.432810 465.127692 242.701605 467.740769 242.581682 470.353846 241.994526 472.966923 240.861624 475.580000 239.104461 478.193077 236.644523 480.806154 233.406149 483.419231 229.407911 486.032308 224.781952 488.645385 219.667176 491.258462 214.202487 493.871538 208.526787 496.484615 202.778982 499.097692 197.097973 501.710769 191.622666 504.323846 186.491962 506.936923 181.844767 509.550000 177.819984 512.163077 174.556516 514.776154 172.193266 517.389231 170.869139 520.002308 170.723039 522.615385 171.893868 525.228462 174.520530 527.841538 178.730610 530.454615 184.461561 533.067692 191.493075 535.680769 199.600066 538.293846 208.557449 540.906923 218.140140 543.520000 228.123054 546.133077 238.281105 548.746154 248.389209 551.359231 258.222281 553.972308 267.555237 556.585385 276.162991 559.198462 283.820458 561.811538 290.302553 564.424615 295.384192 567.037692 298.840290 569.650769 300.445762 572.263846 299.975522 574.876923 297.229761 577.490000 292.256955 580.103077 285.246512 582.716154 276.389453 585.329231 265.876800 587.942308 253.899578 590.555385 240.648808 593.168462 226.315513 595.781538 211.090716 598.394615 195.165440 601.007692 178.730707 603.620769 161.977540 606.233846 145.096961 608.846923 128.279995 611.460000 111.717662 614.073077 95.600986 616.686154 80.120990 619.299231 65.468696 621.912308 51.850097 624.525385 39.563563 627.138462 28.942672 629.751538 20.321070 632.364615 14.032404 634.977692 10.410319 637.590769 9.788462 640.203846 12.500479 642.816923 18.880016 645.430000 29.260720 648.043077 43.976237 650.656154 63.360214 653.269231 87.746295 655.882308 117.468129 658.495385 152.859361 661.108462 194.253637 663.721538 241.984603 666.334615 296.385907 666.334615 469.079362"/></g><g class="series serie-1 color-1"><path class="line reactive" d="M13.065385 469.079362 L13.065385 354.945995 15.678462 374.975102 18.291538 391.582139 20.904615 404.964766 23.517692 415.320640 26.130769 422.847419 28.743846 427.742761 31.356923 430.204324 33.970000 430.429767 36.583077 428.616747 39.196154 424.962923 41.809231 419.665952 44.422308 412.923493 47.035385 404.933204 49.648462 395.892742 52.261538 385.999766 54.874615 375.451934 57.487692 364.446904 60.100769 353.182288 62.713846 341.832357 65.326923 330.510134 67.940000 319.318716 70.553077 308.361202 73.166154 297.740691 75.779231 287.560280 78.392308 277.923068 81.005385 268.932153 83.618462 260.690633 86.231538 253.301606 88.844615 246.868170 91.457692 241.493424 94.070769 237.280466 96.683846 234.332394 99.296923 232.752306 101.910000 232.643301 104.523077 234.108476 107.136154 237.249854 109.749231 242.075706 112.362308 248.429128 114.975385 256.136406 117.588462 265.023822 120.201538 274.917660 122.814615 285.644204 125.427692 297.029738 128.040769 308.900546 130.653846 321.082912 133.266923 333.403118 135.880000 345.687450 138.493077 357.762190 141.106154 369.453623 143.719231 380.588033 146.332308 390.991702 148.945385 400.490916 151.558462 408.911957 154.171538 416.084605 156.784615 421.954112 159.397692 426.604891 162.010769 430.129642 164.623846 432.621064 167.236923 434.171857 169.850000 434.874719 172.463077 434.822350 175.076154 434.107449 177.689231 432.822715 180.302308 431.060848 182.915385 428.914546 185.528462 426.476510 188.141538 423.839438 190.754615 421.096029 193.367692 418.338983 195.980769 415.660999 198.593846 413.154776 201.206923 410.909883 203.820000 408.963308 206.433077 407.308408 209.046154 405.937220 211.659231 404.841780 214.272308 404.014126 216.885385 403.446295 219.498462 403.130322 222.111538 403.058245 224.724615 403.222101 227.337692 403.613927 229.950769 404.225759 232.563846 405.049634 235.176923 406.077588 237.790000 407.301660 240.403077 408.713885 243.016154 410.306300 245.629231 412.070943 248.242308 413.996590 250.855385 416.040006 253.468462 418.139782 256.081538 420.234302 258.694615 422.261950 261.307692 424.161108 263.920769 425.870160 266.533846 427.327491 269.146923 428.471482 271.760000 429.240518 274.373077 429.572982 276.986154 429.407258 279.599231 428.681729 282.212308 427.334778 284.825385 425.304790 287.438462 422.530147 290.051538 418.949233 292.664615 414.500431 295.277692 409.141906 297.890769 402.953893 300.503846 396.063148 303.116923 388.596519 305.730000 380.680855 308.343077 372.443003 310.956154 364.009811 313.569231 355.508127 316.182308 347.064799 318.795385 338.806675 321.408462 330.860604 324.021538 323.353432 326.634615 316.412008 329.247692 310.163181 331.860769 304.733797 334.473846 300.250704 337.086923 296.840752 339.700000 294.630787 342.313077 293.704812 344.926154 293.975441 347.539231 295.312442 350.152308 297.585584 352.765385 300.664636 355.378462 304.419365 357.991538 308.719541 360.604615 313.434931 363.217692 318.435305 365.830769 323.590430 368.443846 328.770075 371.056923 333.844009 373.670000 338.681999 376.283077 343.153815 378.896154 347.129225 381.509231 350.477996 384.122308 353.069898 386.735385 354.774833 389.348462 355.530664 391.961538 355.453579 394.574615 354.688668 397.187692 353.381016 399.800769 351.675710 402.413846 349.717839 405.026923 347.652487 407.640000 345.624744 410.253077 343.779695 412.866154 342.262428 415.479231 341.218029 418.092308 340.791586 420.705385 341.128185 423.318462 342.372914 425.931538 344.670859 428.544615 348.167108 431.157692 353.006748 433.770769 359.333243 436.383846 367.148752 438.996923 376.206472 441.610000 386.234261 444.223077 396.959975 446.836154 408.111469 449.449231 419.416601 452.062308 430.603226 454.675385 441.399200 457.288462 451.532381 459.901538 460.730623 462.514615 468.721784 465.127692 475.233720 467.740769 479.994287 470.353846 482.731341 472.966923 483.172739 475.580000 481.046336 478.193077 476.079990 480.806154 468.010289 483.419231 456.862337 486.032308 443.008944 488.645385 426.843620 491.258462 408.759873 493.871538 389.151214 496.484615 368.411153 499.097692 346.933199 501.710769 325.110862 504.323846 303.337653 506.936923 282.007080 509.550000 261.512654 512.163077 242.247884 514.776154 224.606280 517.389231 208.981352 520.002308 195.766609 522.615385 185.355562 525.228462 178.141721 527.841538 174.497007 530.454615 174.430755 533.067692 177.651431 535.680769 183.858396 538.293846 192.751011 540.906923 204.028635 543.520000 217.390630 546.133077 232.536355 548.746154 249.165172 551.359231 266.976440 553.972308 285.669521 556.585385 304.943774 559.198462 324.498560 561.811538 344.033239 564.424615 363.247172 567.037692 381.839720 569.650769 399.510243 572.263846 415.958100 574.876923 430.903100 577.490000 444.265911 580.103077 456.081212 582.716154 466.384987 585.329231 475.213223 587.942308 482.601907 590.555385 488.587023 593.168462 493.204558 595.781538 496.490499 598.394615 498.480830 601.007692 499.211538 603.620769 498.718610 606.233846 497.038030 608.846923 494.205786 611.460000 490.257862 614.073077 485.230246 616.686154 479.158923 619.299231 472.079878 621.912308 464.045418 624.525385 455.208560 627.138462 445.760699 629.751538 435.893310 632.364615 425.797865 634.977692 415.665838 637.590769 405.688700 640.203846 396.057925 642.816923 386.964987 645.430000 378.601357 648.043077 371.158508 650.656154 364.827914 653.269231 359.801048 655.882308 356.269382 658.495385 354.424390 661.108462 354.457543 663.721538 356.560316 666.334615 360.924181 666.334615 469.079362"/></g><g class="series serie-2 color-2"><path class="line reactive" d="M13.065385 469.079362 L13.065385 298.748220 15.678462 325.364770 18.291538 349.440230 20.904615 371.076414 23.517692 390.375136 26.130769 407.438208 28.743846 422.367445 31.356923 435.264660 33.970000 446.231668 36.583077 455.370281 39.196154 462.782314 41.809231 468.569579 44.422308 472.833891 47.035385 475.677064 49.648462 477.200910 52.261538 477.507244 54.874615 476.697880 57.487692 474.874630 60.100769 472.139295 62.713846 468.586254 65.326923 464.290423 67.940000 459.323562 70.553077 453.757431 73.166154 447.663792 75.779231 441.114404 78.392308 434.181028 81.005385 426.935425 83.618462 419.449355 86.231538 411.794580 88.844615 404.042858 91.457692 396.265951 94.070769 388.535619 96.683846 380.923624 99.296923 373.501725 101.910000 366.341682 104.523077 359.515257 107.136154 353.093847 109.749231 347.117187 112.362308 341.569232 114.975385 336.428259 117.588462 331.672542 120.201538 327.280358 122.814615 323.229984 125.427692 319.499695 128.040769 316.067768 130.653846 312.912479 133.266923 310.012103 135.880000 307.344918 138.493077 304.889199 141.106154 302.623223 143.719231 300.525264 146.332308 298.573601 148.945385 296.746508 151.558462 295.022262 154.171538 293.379673 156.784615 291.815153 159.397692 290.346335 162.010769 288.992113 164.623846 287.771383 167.236923 286.703037 169.850000 285.805972 172.463077 285.099081 175.076154 284.601259 177.689231 284.331401 180.302308 284.308401 182.915385 284.551155 185.528462 285.078555 188.141538 285.909498 190.754615 287.062877 193.367692 288.557588 195.980769 290.412524 198.593846 292.646580 201.206923 295.276492 203.820000 298.282718 206.433077 301.615619 209.046154 305.224641 211.659231 309.059234 214.272308 313.068845 216.885385 317.202923 219.498462 321.410916 222.111538 325.642272 224.724615 329.846439 227.337692 333.972865 229.950769 337.970998 232.563846 341.790287 235.176923 345.380180 237.790000 348.690125 240.403077 351.669569 243.016154 354.267962 245.629231 356.434752 248.242308 358.125246 250.855385 359.352323 253.468462 360.161536 256.081538 360.598814 258.694615 360.710085 261.307692 360.541280 263.920769 360.138326 266.533846 359.547152 269.146923 358.813688 271.760000 357.983861 274.373077 357.103602 276.986154 356.218837 279.599231 355.375498 282.212308 354.619511 284.825385 353.996806 287.438462 353.553312 290.051538 353.334958 292.664615 353.387672 295.277692 353.746373 297.890769 354.378038 300.503846 355.223747 303.116923 356.224532 305.730000 357.321425 308.343077 358.455457 310.956154 359.567658 313.569231 360.599060 316.182308 361.490695 318.795385 362.183593 321.408462 362.618785 324.021538 362.737303 326.634615 362.480179 329.247692 361.788442 331.860769 360.603125 334.473846 358.865259 337.086923 356.515874 339.700000 353.496003 342.313077 349.777050 344.926154 345.451917 347.539231 340.643882 350.152308 335.476221 352.765385 330.072211 355.378462 324.555128 357.991538 319.048249 360.604615 313.674849 363.217692 308.558207 365.830769 303.821599 368.443846 299.588300 371.056923 295.981588 373.670000 293.124739 376.283077 291.141030 378.896154 290.153738 381.509231 290.286138 384.122308 291.661508 386.735385 294.402976 389.348462 298.557953 391.961538 303.975178 394.574615 310.471195 397.187692 317.862547 399.800769 325.965778 402.413846 334.597432 405.026923 343.574052 407.640000 352.712184 410.253077 361.828369 412.866154 370.739153 415.479231 379.261079 418.092308 387.210692 420.705385 394.404533 423.318462 400.659149 425.931538 405.791082 428.544615 409.616876 431.157692 411.953075 433.770769 412.617626 436.383846 411.550624 438.996923 408.907379 441.610000 404.865105 444.223077 399.601016 446.836154 393.292328 449.449231 386.116255 452.062308 378.250011 454.675385 369.870812 457.288462 361.155872 459.901538 352.282406 462.514615 343.427628 465.127692 334.768753 467.740769 326.482996 470.353846 318.747571 472.966923 311.739694 475.580000 305.636579 478.193077 300.615440 480.806154 296.849836 483.419231 294.392518 486.032308 293.150648 488.645385 293.022719 491.258462 293.907225 493.871538 295.702659 496.484615 298.307516 499.097692 301.620288 501.710769 305.539470 504.323846 309.963555 506.936923 314.791037 509.550000 319.920409 512.163077 325.250165 514.776154 330.678799 517.389231 336.104804 520.002308 341.426674 522.615385 346.542902 525.228462 351.351983 527.841538 355.755319 530.454615 359.703204 533.067692 363.186491 535.680769 366.197266 538.293846 368.727612 540.906923 370.769613 543.520000 372.315354 546.133077 373.356917 548.746154 373.886388 551.359231 373.895849 553.972308 373.377385 556.585385 372.323079 559.198462 370.725017 561.811538 368.575280 564.424615 365.865954 567.037692 362.589122 569.650769 358.736869 572.263846 354.301277 574.876923 349.279312 577.490000 343.715873 580.103077 337.683073 582.716154 331.253336 585.329231 324.499083 587.942308 317.492738 590.555385 310.306725 593.168462 303.013467 595.781538 295.685387 598.394615 288.394909 601.007692 281.214456 603.620769 274.216450 606.233846 267.473317 608.846923 261.057477 611.460000 255.041356 614.073077 249.497376 616.686154 244.497961 619.299231 240.115533 621.912308 236.423260 624.525385 233.498894 627.138462 231.421938 629.751538 230.271896 632.364615 230.128272 634.977692 231.070572 637.590769 233.178300 640.203846 236.530961 642.816923 241.208060 645.430000 247.289102 648.043077 254.853592 650.656154 263.981033 653.269231 274.750933 655.882308 287.242794 658.495385 301.536121 661.108462 317.710421 663.721538 335.845196 666.334615 356.019953 666.334615 469.079362"/></g></g><g class="plot overlay" transform="translate(45, 46)"><g class="series serie-0 color-0"><g class="dots"><circle class="dot reactive tooltip-trigger" cx="13.0653846154" cy="295.386595402" r="2.5"/><desc class="value">2.925</desc><desc class="x top">13.0653846154</desc><desc class="y top">295.386595402</desc></g><g class="dots"><circle class="dot reactive tooltip-trigger" cx="59.7274725275" cy="234.657558774" r="2.5"/><desc class="value">3.948</desc><desc class="x ">59.7274725275</desc><desc class="y ">234.657558774</desc></g><g class="dots"><circle class="dot reactive tooltip-trigger" cx="106.38956044" cy="236.175923518" r="2.5"/><desc class="value">3.922</desc><desc class="x ">106.38956044</desc><desc class="y ">236.175923518</desc></g><g class="dots"><circle class="dot reactive tooltip-trigger" cx="153.051648352" cy="294.07479505" r="2.5"/><desc class="value">2.947</desc><desc class="x top">153.051648352</desc><desc class="y top">294.07479505</desc></g><g class="dots"><circle class="dot reactive tooltip-trigger" cx="199.713736264" cy="236.129125779" r="2.5"/><desc class="value">3.923</desc><desc class="x ">199.713736264</desc><desc class="y ">236.129125779</desc></g><g class="dots"><circle class="dot reactive tooltip-trigger" cx="246.375824176" cy="294.912239435" r="2.5"/><desc class="value">2.933</desc><desc class="x top">246.375824176</desc><desc class="y top">294.912239435</desc></g><g class="dots"><circle class="dot reactive tooltip-trigger" cx="293.037912088" cy="293.995523632" r="2.5"/><desc class="value">2.949</desc><desc class="x top">293.037912088</desc><desc class="y top">293.995523632</desc></g><g class="dots"><circle class="dot reactive tooltip-trigger" cx="339.7" cy="294.463530869" r="2.5"/><desc class="value">2.941</desc><desc class="x top">339.7</desc><desc class="y top">294.463530869</desc></g><g class="dots"><circle class="dot reactive tooltip-trigger" cx="386.362087912" cy="293.923145226" r="2.5"/><desc class="value">2.95</desc><desc class="x left top">386.362087912</desc><desc class="y left top">293.923145226</desc></g><g class="dots"><circle class="dot reactive tooltip-trigger" cx="433.024175824" cy="236.556015686" r="2.5"/><desc class="value">3.916</desc><desc class="x left">433.024175824</desc><desc class="y left">236.556015686</desc></g><g class="dots"><circle class="dot reactive tooltip-trigger" cx="479.686263736" cy="234.893097544" r="2.5"/><desc class="value">3.944</desc><desc class="x left">479.686263736</desc><desc class="y left">234.893097544</desc></g><g class="dots"><circle class="dot reactive tooltip-trigger" cx="526.348351648" cy="176.126327626" r="2.5"/><desc class="value">4.934</desc><desc class="x left">526.348351648</desc><desc class="y left">176.126327626</desc></g><g class="dots"><circle class="dot reactive tooltip-trigger" cx="573.01043956" cy="299.428416205" r="2.5"/><desc class="value">2.857</desc><desc class="x left top">573.01043956</desc><desc class="y left top">299.428416205</desc></g><g class="dots"><circle class="dot reactive tooltip-trigger" cx="619.672527473" cy="63.4542173723" r="2.5"/><desc class="value">6.831</desc><desc class="x left">619.672527473</desc><desc class="y left">63.4542173723</desc></g><g class="dots"><circle class="dot reactive tooltip-trigger" cx="666.334615385" cy="296.385906563" r="2.5"/><desc class="value">2.908</desc><desc class="x left top">666.334615385</desc><desc class="y left top">296.385906563</desc></g></g><g class="series serie-1 color-1"><g class="dots"><circle class="dot reactive tooltip-trigger" cx="13.0653846154" cy="354.945994974" r="2.5"/><desc class="value">1.922</desc><desc class="x top">13.0653846154</desc><desc class="y top">354.945994974</desc></g><g class="dots"><circle class="dot reactive tooltip-trigger" cx="59.7274725275" cy="354.79995729" r="2.5"/><desc class="value">1.925</desc><desc class="x top">59.7274725275</desc><desc class="y top">354.79995729</desc></g><g class="dots"><circle class="dot reactive tooltip-trigger" cx="106.38956044" cy="236.175923518" r="2.5"/><desc class="value">3.922</desc><desc class="x ">106.38956044</desc><desc class="y ">236.175923518</desc></g><g class="dots"><circle class="dot reactive tooltip-trigger" cx="153.051648352" cy="413.173050691" r="2.5"/><desc class="value">941.558m</desc><desc class="x top">153.051648352</desc><desc class="y top">413.173050691</desc></g><g class="dots"><circle class="dot reactive tooltip-trigger" cx="199.713736264" cy="412.156232705" r="2.5"/><desc class="value">958.682m</desc><desc class="x top">199.713736264</desc><desc class="y top">412.156232705</desc></g><g class="dots"><circle class="dot reactive tooltip-trigger" cx="246.375824176" cy="412.605645452" r="2.5"/><desc class="value">951.114m</desc><desc class="x top">246.375824176</desc><desc class="y top">412.605645452</desc></g><g class="dots"><circle class="dot reactive tooltip-trigger" cx="293.037912088" cy="413.790447272" r="2.5"/><desc class="value">931.16m</desc><desc class="x top">293.037912088</desc><desc class="y top">413.790447272</desc></g><g class="dots"><circle class="dot reactive tooltip-trigger" cx="339.7" cy="294.630787419" r="2.5"/><desc class="value">2.938</desc><desc class="x top">339.7</desc><desc class="y top">294.630787419</desc></g><g class="dots"><circle class="dot reactive tooltip-trigger" cx="386.362087912" cy="354.590404838" r="2.5"/><desc class="value">1.928</desc><desc class="x left top">386.362087912</desc><desc class="y left top">354.590404838</desc></g><g class="dots"><circle class="dot reactive tooltip-trigger" cx="433.024175824" cy="357.366485879" r="2.5"/><desc class="value">1.881</desc><desc class="x left top">433.024175824</desc><desc class="y left top">357.366485879</desc></g><g class="dots"><circle class="dot reactive tooltip-trigger" cx="479.686263736" cy="471.862269235" r="2.5"/><desc class="value">-46.869m</desc><desc class="x left top">479.686263736</desc><desc class="y left top">471.862269235</desc></g><g class="dots"><circle class="dot reactive tooltip-trigger" cx="526.348351648" cy="176.126327626" r="2.5"/><desc class="value">4.934</desc><desc class="x left">526.348351648</desc><desc class="y left">176.126327626</desc></g><g class="dots"><circle class="dot reactive tooltip-trigger" cx="573.01043956" cy="420.390845304" r="2.5"/><desc class="value">819.998m</desc><desc class="x left top">573.01043956</desc><desc class="y left top">420.390845304</desc></g><g class="dots"><circle class="dot reactive tooltip-trigger" cx="619.672527473" cy="470.988421703" r="2.5"/><desc class="value">-32.152m</desc><desc class="x left top">619.672527473</desc><desc class="y left top">470.988421703</desc></g><g class="dots"><circle class="dot reactive tooltip-trigger" cx="666.334615385" cy="360.924180738" r="2.5"/><desc class="value">1.822</desc><desc class="x left top">666.334615385</desc><desc class="y left top">360.924180738</desc></g></g><g class="series serie-2 color-2"><g class="dots"><circle class="dot reactive tooltip-trigger" cx="13.0653846154" cy="298.748219516" r="2.5"/><desc class="value">2.869</desc><desc class="x top">13.0653846154</desc><desc class="y top">298.748219516</desc></g><g class="dots"><circle class="dot reactive tooltip-trigger" cx="59.7274725275" cy="472.582051672" r="2.5"/><desc class="value">-58.991m</desc><desc class="x top">59.7274725275</desc><desc class="y top">472.582051672</desc></g><g class="dots"><circle class="dot reactive tooltip-trigger" cx="106.38956044" cy="354.883245942" r="2.5"/><desc class="value">1.923</desc><desc class="x top">106.38956044</desc><desc class="y top">354.883245942</desc></g><g class="dots"><circle class="dot reactive tooltip-trigger" cx="153.051648352" cy="294.07479505" r="2.5"/><desc class="value">2.947</desc><desc class="x top">153.051648352</desc><desc class="y top">294.07479505</desc></g><g class="dots"><circle class="dot reactive tooltip-trigger" cx="199.713736264" cy="293.724772478" r="2.5"/><desc class="value">2.953</desc><desc class="x top">199.713736264</desc><desc class="y top">293.724772478</desc></g><g class="dots"><circle class="dot reactive tooltip-trigger" cx="246.375824176" cy="356.967486179" r="2.5"/><desc class="value">1.888</desc><desc class="x top">246.375824176</desc><desc class="y top">356.967486179</desc></g><g class="dots"><circle class="dot reactive tooltip-trigger" cx="293.037912088" cy="353.420008309" r="2.5"/><desc class="value">1.948</desc><desc class="x top">293.037912088</desc><desc class="y top">353.420008309</desc></g><g class="dots"><circle class="dot reactive tooltip-trigger" cx="339.7" cy="353.49600265" r="2.5"/><desc class="value">1.947</desc><desc class="x top">339.7</desc><desc class="y top">353.49600265</desc></g><g class="dots"><circle class="dot reactive tooltip-trigger" cx="386.362087912" cy="293.923145226" r="2.5"/><desc class="value">2.95</desc><desc class="x left top">386.362087912</desc><desc class="y left top">293.923145226</desc></g><g class="dots"><circle class="dot reactive tooltip-trigger" cx="433.024175824" cy="412.608169393" r="2.5"/><desc class="value">951.071m</desc><desc class="x left top">433.024175824</desc><desc class="y left top">412.608169393</desc></g><g class="dots"><circle class="dot reactive tooltip-trigger" cx="479.686263736" cy="298.300202448" r="2.5"/><desc class="value">2.876</desc><desc class="x left top">479.686263736</desc><desc class="y left top">298.300202448</desc></g><g class="dots"><circle class="dot reactive tooltip-trigger" cx="526.348351648" cy="353.293837728" r="2.5"/><desc class="value">1.95</desc><desc class="x left top">526.348351648</desc><desc class="y left top">353.293837728</desc></g><g class="dots"><circle class="dot reactive tooltip-trigger" cx="573.01043956" cy="352.925713921" r="2.5"/><desc class="value">1.956</desc><desc class="x left top">573.01043956</desc><desc class="y left top">352.925713921</desc></g><g class="dots"><circle class="dot reactive tooltip-trigger" cx="619.672527473" cy="239.544061276" r="2.5"/><desc class="value">3.866</desc><desc class="x left">619.672527473</desc><desc class="y left">239.544061276</desc></g><g class="dots"><circle class="dot reactive tooltip-trigger" cx="666.334615385" cy="356.019953398" r="2.5"/><desc class="value">1.904</desc><desc class="x left top">666.334615385</desc><desc class="y left top">356.019953398</desc></g></g></g><g class="plot text-overlay" transform="translate(45, 46)"><g class="series serie-0 color-0"><text class="centered" x="13.0653846154" y="295.386595402">2.925</text><text class="centered" x="59.7274725275" y="234.657558774">3.948</text><text class="centered" x="106.38956044" y="236.175923518">3.922</text><text class="centered" x="153.051648352" y="294.07479505">2.947</text><text class="centered" x="199.713736264" y="236.129125779">3.923</text><text class="centered" x="246.375824176" y="294.912239435">2.933</text><text class="centered" x="293.037912088" y="293.995523632">2.949</text><text class="centered" x="339.7" y="294.463530869">2.941</text><text class="centered" x="386.362087912" y="293.923145226">2.95</text><text class="centered" x="433.024175824" y="236.556015686">3.916</text><text class="centered" x="479.686263736" y="234.893097544">3.944</text><text class="centered" x="526.348351648" y="176.126327626">4.934</text><text class="centered" x="573.01043956" y="299.428416205">2.857</text><text class="centered" x="619.672527473" y="63.4542173723">6.831</text><text class="centered" x="666.334615385" y="296.385906563">2.908</text></g><g class="series serie-1 color-1"><text class="centered" x="13.0653846154" y="354.945994974">1.922</text><text class="centered" x="59.7274725275" y="354.79995729">1.925</text><text class="centered" x="106.38956044" y="236.175923518">3.922</text><text class="centered" x="153.051648352" y="413.173050691">941.558m</text><text class="centered" x="199.713736264" y="412.156232705">958.682m</text><text class="centered" x="246.375824176" y="412.605645452">951.114m</text><text class="centered" x="293.037912088" y="413.790447272">931.16m</text><text class="centered" x="339.7" y="294.630787419">2.938</text><text class="centered" x="386.362087912" y="354.590404838">1.928</text><text class="centered" x="433.024175824" y="357.366485879">1.881</text><text class="centered" x="479.686263736" y="471.862269235">-46.869m</text><text class="centered" x="526.348351648" y="176.126327626">4.934</text><text class="centered" x="573.01043956" y="420.390845304">819.998m</text><text class="centered" x="619.672527473" y="470.988421703">-32.152m</text><text class="centered" x="666.334615385" y="360.924180738">1.822</text></g><g class="series serie-2 color-2"><text class="centered" x="13.0653846154" y="298.748219516">2.869</text><text class="centered" x="59.7274725275" y="472.582051672">-58.991m</text><text class="centered" x="106.38956044" y="354.883245942">1.923</text><text class="centered" x="153.051648352" y="294.07479505">2.947</text><text class="centered" x="199.713736264" y="293.724772478">2.953</text><text class="centered" x="246.375824176" y="356.967486179">1.888</text><text class="centered" x="293.037912088" y="353.420008309">1.948</text><text class="centered" x="339.7" y="353.49600265">1.947</text><text class="centered" x="386.362087912" y="293.923145226">2.95</text><text class="centered" x="433.024175824" y="412.608169393">951.071m</text><text class="centered" x="479.686263736" y="298.300202448">2.876</text><text class="centered" x="526.348351648" y="353.293837728">1.95</text><text class="centered" x="573.01043956" y="352.925713921">1.956</text><text class="centered" x="619.672527473" y="239.544061276">3.866</text><text class="centered" x="666.334615385" y="356.019953398">1.904</text></g></g><g class="plot tooltip-overlay" transform="translate(45, 46)"><g id="tooltip" style="opacity: 0" transform="translate(0 0)"><a><rect height="0" id="tooltip-box" rx="5" ry="5" width="0"/><text class="text"><tspan class="label"/><tspan class="value"/></text></a></g></g><g class="legends" transform="translate(734, 56)"><g class="legend reactive activate-serie" id="activate-serie-0"><rect class="color-0 reactive" height="12" width="12" x="0.0" y="1.0"/><text x="17.0" y="11.2">Best</text></g><g class="legend reactive activate-serie" id="activate-serie-1"><rect class="color-1 reactive" height="12" width="12" x="0.0" y="22.0"/><text x="17.0" y="32.2">#1</text></g><g class="legend reactive activate-serie" id="activate-serie-2"><rect class="color-2 reactive" height="12" width="12" x="0.0" y="43.0"/><text x="17.0" y="53.2">#2</text></g></g><text class="title" x="384.7" y="26">Evolution</text></g></svg>