<?xml version='1.0' encoding='utf-8'?>
<svg xmlns:xlink="http://www.w3.org/1999/xlink" xmlns="http://www.w3.org/2000/svg" viewBox="0 0 800 600"><!--Generated with pygal 0.13.0 ©Kozea 2012 on 2013-03-15--><!--http://pygal.org--><!--http://github.com/Kozea/pygal--><defs><style type="text/css">.title{font-family:monospace;font-size:16px}.legends .legend text{font-family:monospace;font-size:14px}.axis text{font-family:monospace;font-size:15px}.series text{font-family:monospace;font-size:0px}#tooltip text{font-family:monospace;font-size:20px}text.no_data{font-size:64px}</style><style type="text/css">svg{background-color:black}svg path,svg line,svg rect,svg circle{-webkit-transition:1s ease-out;-moz-transition:1s ease-out;transition:1s ease-out}.graph &gt; .background{fill:black}.plot &gt; .background{fill:#111}.graph{fill:#999}text.no_data{fill:#eee}.title{fill:#eee}.legends .legend text{fill:#999}.legends .legend:hover text{fill:#eee}.axis .line{stroke:#eee}.axis .guide.line{stroke:#555}.axis .major.line{stroke:#999}.axis text.major{stroke:#eee;fill:#eee}.axis.y .guides:hover .guide.line,.line-graph .axis.x .guides:hover .guide.line,.stackedline-graph .axis.x .guides:hover .guide.line,.xy-graph .axis.x .guides:hover .guide.line{stroke:#eee}.axis .guides:hover text{fill:#eee}.reactive{fill-opacity:.1}.reactive.active,.active .reactive{fill-opacity:.75}.series text{fill:#eee}#tooltip rect{fill:#111;stroke:#eee}#tooltip text{fill:#eee}.color-0{stroke:#ff5995;fill:#ff5995}.color-1{stroke:#b6e354;fill:#b6e354}.color-2{stroke:#feed6c;fill:#feed6c}.color-3{stroke:#8cedff;fill:#8cedff}.color-4{stroke:#9e6ffe;fill:#9e6ffe}.color-5{stroke:#899ca1;fill:#899ca1}.color-6{stroke:#f8f8f2;fill:#f8f8f2}.color-7{stroke:#bf4646;fill:#bf4646}.color-8{stroke:#516083;fill:#516083}.color-9{stroke:#f92672;fill:#f92672}.color-10{stroke:#82b414;fill:#82b414}.color-11{stroke:#fd971f;fill:#fd971f}.color-12{stroke:#56c2d6;fill:#56c2d6}.color-13{stroke:#808384;fill:#808384}.color-14{stroke:#8c54fe;fill:#8c54fe}.color-15{stroke:#465457;fill:#465457}</style><style type="text/css">text.no_data{text-anchor:middle}.guide.line{fill-opacity:0}.centered{text-anchor:middle}.title{text-anchor:middle}.legends .legend text{fill-opacity:1}.axis.x text{text-anchor:middle}.axis.x:not(.web) text[transform]{text-anchor:start}.axis.y text{text-anchor:end}.axis.y .logarithmic text:not(.major){font-size:50%}.axis .guide.line{stroke-dasharray:4,4}.axis .major.guide.line{stroke-dasharray:6,6}.axis text.major{stroke-width:0.5px}.horizontal .axis.y .guide.line,.vertical .axis.x .guide.line{opacity:0}.axis.y .guides:hover .guide.line,.line-graph .axis.x .guides:hover .guide.line,.gauge-graph .axis.x .guides:hover .guide.line,.stackedline-graph .axis.x .guides:hover .guide.line,.xy-graph .axis.x .guides:hover .guide.line{opacity:1}.axis .guides:hover text{opacity:1}.nofill{fill:none}.dot{stroke-width:1px;fill-opacity:1}.dot.active{stroke-width:5px}.series text{stroke:none}.series text.active{opacity:1}#tooltip rect{fill-opacity:0.8}#tooltip text{fill-opacity:1}#tooltip text tspan.label{fill-opacity:.8}a:visited{fill:none}</style><script type="text/javascript">window.config = {"truncate_legend": null, "print_values": true, "tooltip_font_size": 20, "height": 600, "legend_at_bottom": false, "show_legend": true, "show_dots": true, "explicit_size": false, "legend_font_size": 14, "fill": true, "style": {"opacity": ".1", "foreground": "#999", "plot_background": "#111", "_colors": ["#ff5995", "#b6e354", "#feed6c", "#8cedff", "#9e6ffe", "#899ca1", "#f8f8f2", "#bf4646", "#516083", "#f92672", "#82b414", "#fd971f", "#56c2d6", "#808384", "#8c54fe", "#465457"], "foreground_light": "#eee", "transition": "1s ease-out", "foreground_dark": "#555", "colors": ".color-0 {\n  stroke: #ff5995;\n  fill: #ff5995;\n}\n\n.color-1 {\n  stroke: #b6e354;\n  fill: #b6e354;\n}\n\n.color-2 {\n  stroke: #feed6c;\n  fill: #feed6c;\n}\n\n.color-3 {\n  stroke: #8cedff;\n  fill: #8cedff;\n}\n\n.color-4 {\n  stroke: #9e6ffe;\n  fill: #9e6ffe;\n}\n\n.color-5 {\n  stroke: #899ca1;\n  fill: #899ca1;\n}\n\n.color-6 {\n  stroke: #f8f8f2;\n  fill: #f8f8f2;\n}\n\n.color-7 {\n  stroke: #bf4646;\n  fill: #bf4646;\n}\n\n.color-8 {\n  stroke: #516083;\n  fill: #516083;\n}\n\n.color-9 {\n  stroke: #f92672;\n  fill: #f92672;\n}\n\n.color-10 {\n  stroke: #82b414;\n  fill: #82b414;\n}\n\n.color-11 {\n  stroke: #fd971f;\n  fill: #fd971f;\n}\n\n.color-12 {\n  stroke: #56c2d6;\n  fill: #56c2d6;\n}\n\n.color-13 {\n  stroke: #808384;\n  fill: #808384;\n}\n\n.color-14 {\n  stroke: #8c54fe;\n  fill: #8c54fe;\n}\n\n.color-15 {\n  stroke: #465457;\n  fill: #465457;\n}\n", "background": "black", "opacity_hover": ".75"}, "zero": 0, "title": "Evolution", "rounded_bars": null, "label_font_size": 15, "strict": false, "x_label_rotation": 0, "x_labels": ["0", "1"], "value_font_size": 0, "disable_xml_declaration": false, "css": ["style.css", "graph.css"], "human_readable": true, "y_label_rotation": 0, "pretty_print": false, "interpolate": "cubic", "js": ["https://raw.github.com/Kozea/pygal.js/master/svg.jquery.js", "https://raw.github.com/Kozea/pygal.js/master/pygal-tooltips.js"], "y_labels": null, "interpolation_precision": 250, "no_data_font_size": 64, "logarithmic": false, "print_zeroes": false, "no_data_text": "No data", "legend_box_size": 12, "stroke": true, "include_x_axis": false, "range": null, "truncate_label": null, "order_min": null, "title_font_size": 16, "width": 800}</script><script type="text/javascript" xlink:href="https://raw.github.com/Kozea/pygal.js/master/svg.jquery.js"/><script type="text/javascript" xlink:href="https://raw.github.com/Kozea/pygal.js/master/pygal-tooltips.js"/></defs><g class="graph line-graph vertical"><rect class="background" height="600" width="800" x="0" y="0"/><g class="plot" transform="translate(48, 46)"><rect class="background" height="509" width="676.4" x="0" y="0"/><g class="axis x"><g class="guides"><path class="major line" d="M13.007692 0.000000 v509.000000"/><text class="major" x="13.0076923077" y="526.5">0</text></g><g class="guides"><path class="major guide line" d="M663.392308 0.000000 v509.000000"/><text class="major" x="663.392307692" y="526.5">1</text></g></g><g class="axis y"><path class="line" d="M0.000000 509.000000 h676.400000"/><g class="guides"><path class="guide line" d="M0.000000 490.846863 h676.400000"/><text class="" x="-5" y="496.096862775">2</text></g><g class="guides"><path class="guide line" d="M0.000000 444.117371 h676.400000"/><text class="" x="-5" y="449.36737051">4</text></g><g class="guides"><path class="guide line" d="M0.000000 397.387878 h676.400000"/><text class="" x="-5" y="402.637878246">6</text></g><g class="guides"><path class="guide line" d="M0.000000 350.658386 h676.400000"/><text class="" x="-5" y="355.908385981">8</text></g><g class="guides"><path class="major guide line" d="M0.000000 303.928894 h676.400000"/><text class="major" x="-5" y="309.178893716">10</text></g><g class="guides"><path class="guide line" d="M0.000000 257.199401 h676.400000"/><text class="" x="-5" y="262.449401452">12</text></g><g class="guides"><path class="guide line" d="M0.000000 210.469909 h676.400000"/><text class="" x="-5" y="215.719909187">14</text></g><g class="guides"><path class="guide line" d="M0.000000 163.740417 h676.400000"/><text class="" x="-5" y="168.990416922">16</text></g><g class="guides"><path class="guide line" d="M0.000000 117.010925 h676.400000"/><text class="" x="-5" y="122.260924657">18</text></g><g class="guides"><path class="guide line" d="M0.000000 70.281432 h676.400000"/><text class="" x="-5" y="75.5314323928">20</text></g><g class="guides"><path class="guide line" d="M0.000000 23.551940 h676.400000"/><text class="" x="-5" y="28.8019401281">22</text></g></g><g class="series serie-0 color-0"><path class="line reactive" d="M13.007692 509.000000 L13.007692 172.437871 15.609231 171.787273 18.210769 171.136675 20.812308 170.486078 23.413846 169.835480 26.015385 169.184883 28.616923 168.534285 31.218462 167.883687 33.820000 167.233090 36.421538 166.582492 39.023077 165.931894 41.624615 165.281297 44.226154 164.630699 46.827692 163.980101 49.429231 163.329504 52.030769 162.678906 54.632308 162.028309 57.233846 161.377711 59.835385 160.727113 62.436923 160.076516 65.038462 159.425918 67.640000 158.775320 70.241538 158.124723 72.843077 157.474125 75.444615 156.823527 78.046154 156.172930 80.647692 155.522332 83.249231 154.871735 85.850769 154.221137 88.452308 153.570539 91.053846 152.919942 93.655385 152.269344 96.256923 151.618746 98.858462 150.968149 101.460000 150.317551 104.061538 149.666953 106.663077 149.016356 109.264615 148.365758 111.866154 147.715161 114.467692 147.064563 117.069231 146.413965 119.670769 145.763368 122.272308 145.112770 124.873846 144.462172 127.475385 143.811575 130.076923 143.160977 132.678462 142.510379 135.280000 141.859782 137.881538 141.209184 140.483077 140.558587 143.084615 139.907989 145.686154 139.257391 148.287692 138.606794 150.889231 137.956196 153.490769 137.305598 156.092308 136.655001 158.693846 136.004403 161.295385 135.353805 163.896923 134.703208 166.498462 134.052610 169.100000 133.402013 171.701538 132.751415 174.303077 132.100817 176.904615 131.450220 179.506154 130.799622 182.107692 130.149024 184.709231 129.498427 187.310769 128.847829 189.912308 128.197231 192.513846 127.546634 195.115385 126.896036 197.716923 126.245439 200.318462 125.594841 202.920000 124.944243 205.521538 124.293646 208.123077 123.643048 210.724615 122.992450 213.326154 122.341853 215.927692 121.691255 218.529231 121.040657 221.130769 120.390060 223.732308 119.739462 226.333846 119.088865 228.935385 118.438267 231.536923 117.787669 234.138462 117.137072 236.740000 116.486474 239.341538 115.835876 241.943077 115.185279 244.544615 114.534681 247.146154 113.884083 249.747692 113.233486 252.349231 112.582888 254.950769 111.932291 257.552308 111.281693 260.153846 110.631095 262.755385 109.980498 265.356923 109.329900 267.958462 108.679302 270.560000 108.028705 273.161538 107.378107 275.763077 106.727509 278.364615 106.076912 280.966154 105.426314 283.567692 104.775717 286.169231 104.125119 288.770769 103.474521 291.372308 102.823924 293.973846 102.173326 296.575385 101.522728 299.176923 100.872131 301.778462 100.221533 304.380000 99.570935 306.981538 98.920338 309.583077 98.269740 312.184615 97.619143 314.786154 96.968545 317.387692 96.317947 319.989231 95.667350 322.590769 95.016752 325.192308 94.366154 327.793846 93.715557 330.395385 93.064959 332.996923 92.414361 335.598462 91.763764 338.200000 91.113166 340.801538 90.462569 343.403077 89.811971 346.004615 89.161373 348.606154 88.510776 351.207692 87.860178 353.809231 87.209580 356.410769 86.558983 359.012308 85.908385 361.613846 85.257787 364.215385 84.607190 366.816923 83.956592 369.418462 83.305995 372.020000 82.655397 374.621538 82.004799 377.223077 81.354202 379.824615 80.703604 382.426154 80.053006 385.027692 79.402409 387.629231 78.751811 390.230769 78.101213 392.832308 77.450616 395.433846 76.800018 398.035385 76.149420 400.636923 75.498823 403.238462 74.848225 405.840000 74.197628 408.441538 73.547030 411.043077 72.896432 413.644615 72.245835 416.246154 71.595237 418.847692 70.944639 421.449231 70.294042 424.050769 69.643444 426.652308 68.992846 429.253846 68.342249 431.855385 67.691651 434.456923 67.041054 437.058462 66.390456 439.660000 65.739858 442.261538 65.089261 444.863077 64.438663 447.464615 63.788065 450.066154 63.137468 452.667692 62.486870 455.269231 61.836272 457.870769 61.185675 460.472308 60.535077 463.073846 59.884480 465.675385 59.233882 468.276923 58.583284 470.878462 57.932687 473.480000 57.282089 476.081538 56.631491 478.683077 55.980894 481.284615 55.330296 483.886154 54.679698 486.487692 54.029101 489.089231 53.378503 491.690769 52.727906 494.292308 52.077308 496.893846 51.426710 499.495385 50.776113 502.096923 50.125515 504.698462 49.474917 507.300000 48.824320 509.901538 48.173722 512.503077 47.523124 515.104615 46.872527 517.706154 46.221929 520.307692 45.571332 522.909231 44.920734 525.510769 44.270136 528.112308 43.619539 530.713846 42.968941 533.315385 42.318343 535.916923 41.667746 538.518462 41.017148 541.120000 40.366550 543.721538 39.715953 546.323077 39.065355 548.924615 38.414758 551.526154 37.764160 554.127692 37.113562 556.729231 36.462965 559.330769 35.812367 561.932308 35.161769 564.533846 34.511172 567.135385 33.860574 569.736923 33.209976 572.338462 32.559379 574.940000 31.908781 577.541538 31.258184 580.143077 30.607586 582.744615 29.956988 585.346154 29.306391 587.947692 28.655793 590.549231 28.005195 593.150769 27.354598 595.752308 26.704000 598.353846 26.053402 600.955385 25.402805 603.556923 24.752207 606.158462 24.101610 608.760000 23.451012 611.361538 22.800414 613.963077 22.149817 616.564615 21.499219 619.166154 20.848621 621.767692 20.198024 624.369231 19.547426 626.970769 18.896828 629.572308 18.246231 632.173846 17.595633 634.775385 16.945036 637.376923 16.294438 639.978462 15.643840 642.580000 14.993243 645.181538 14.342645 647.783077 13.692047 650.384615 13.041450 652.986154 12.390852 655.587692 11.740254 658.189231 11.089657 660.790769 10.439059 663.392308 9.788462 663.392308 509.000000"/></g><g class="series serie-1 color-1"><path class="line reactive" d="M13.007692 509.000000 L13.007692 499.211538 15.609231 497.253846 18.210769 495.296154 20.812308 493.338462 23.413846 491.380769 26.015385 489.423077 28.616923 487.465385 31.218462 485.507692 33.820000 483.550000 36.421538 481.592308 39.023077 479.634615 41.624615 477.676923 44.226154 475.719231 46.827692 473.761538 49.429231 471.803846 52.030769 469.846154 54.632308 467.888462 57.233846 465.930769 59.835385 463.973077 62.436923 462.015385 65.038462 460.057692 67.640000 458.100000 70.241538 456.142308 72.843077 454.184615 75.444615 452.226923 78.046154 450.269231 80.647692 448.311538 83.249231 446.353846 85.850769 444.396154 88.452308 442.438462 91.053846 440.480769 93.655385 438.523077 96.256923 436.565385 98.858462 434.607692 101.460000 432.650000 104.061538 430.692308 106.663077 428.734615 109.264615 426.776923 111.866154 424.819231 114.467692 422.861538 117.069231 420.903846 119.670769 418.946154 122.272308 416.988462 124.873846 415.030769 127.475385 413.073077 130.076923 411.115385 132.678462 409.157692 135.280000 407.200000 137.881538 405.242308 140.483077 403.284615 143.084615 401.326923 145.686154 399.369231 148.287692 397.411538 150.889231 395.453846 153.490769 393.496154 156.092308 391.538462 158.693846 389.580769 161.295385 387.623077 163.896923 385.665385 166.498462 383.707692 169.100000 381.750000 171.701538 379.792308 174.303077 377.834615 176.904615 375.876923 179.506154 373.919231 182.107692 371.961538 184.709231 370.003846 187.310769 368.046154 189.912308 366.088462 192.513846 364.130769 195.115385 362.173077 197.716923 360.215385 200.318462 358.257692 202.920000 356.300000 205.521538 354.342308 208.123077 352.384615 210.724615 350.426923 213.326154 348.469231 215.927692 346.511538 218.529231 344.553846 221.130769 342.596154 223.732308 340.638462 226.333846 338.680769 228.935385 336.723077 231.536923 334.765385 234.138462 332.807692 236.740000 330.850000 239.341538 328.892308 241.943077 326.934615 244.544615 324.976923 247.146154 323.019231 249.747692 321.061538 252.349231 319.103846 254.950769 317.146154 257.552308 315.188462 260.153846 313.230769 262.755385 311.273077 265.356923 309.315385 267.958462 307.357692 270.560000 305.400000 273.161538 303.442308 275.763077 301.484615 278.364615 299.526923 280.966154 297.569231 283.567692 295.611538 286.169231 293.653846 288.770769 291.696154 291.372308 289.738462 293.973846 287.780769 296.575385 285.823077 299.176923 283.865385 301.778462 281.907692 304.380000 279.950000 306.981538 277.992308 309.583077 276.034615 312.184615 274.076923 314.786154 272.119231 317.387692 270.161538 319.989231 268.203846 322.590769 266.246154 325.192308 264.288462 327.793846 262.330769 330.395385 260.373077 332.996923 258.415385 335.598462 256.457692 338.200000 254.500000 340.801538 252.542308 343.403077 250.584615 346.004615 248.626923 348.606154 246.669231 351.207692 244.711538 353.809231 242.753846 356.410769 240.796154 359.012308 238.838462 361.613846 236.880769 364.215385 234.923077 366.816923 232.965385 369.418462 231.007692 372.020000 229.050000 374.621538 227.092308 377.223077 225.134615 379.824615 223.176923 382.426154 221.219231 385.027692 219.261538 387.629231 217.303846 390.230769 215.346154 392.832308 213.388462 395.433846 211.430769 398.035385 209.473077 400.636923 207.515385 403.238462 205.557692 405.840000 203.600000 408.441538 201.642308 411.043077 199.684615 413.644615 197.726923 416.246154 195.769231 418.847692 193.811538 421.449231 191.853846 424.050769 189.896154 426.652308 187.938462 429.253846 185.980769 431.855385 184.023077 434.456923 182.065385 437.058462 180.107692 439.660000 178.150000 442.261538 176.192308 444.863077 174.234615 447.464615 172.276923 450.066154 170.319231 452.667692 168.361538 455.269231 166.403846 457.870769 164.446154 460.472308 162.488462 463.073846 160.530769 465.675385 158.573077 468.276923 156.615385 470.878462 154.657692 473.480000 152.700000 476.081538 150.742308 478.683077 148.784615 481.284615 146.826923 483.886154 144.869231 486.487692 142.911538 489.089231 140.953846 491.690769 138.996154 494.292308 137.038462 496.893846 135.080769 499.495385 133.123077 502.096923 131.165385 504.698462 129.207692 507.300000 127.250000 509.901538 125.292308 512.503077 123.334615 515.104615 121.376923 517.706154 119.419231 520.307692 117.461538 522.909231 115.503846 525.510769 113.546154 528.112308 111.588462 530.713846 109.630769 533.315385 107.673077 535.916923 105.715385 538.518462 103.757692 541.120000 101.800000 543.721538 99.842308 546.323077 97.884615 548.924615 95.926923 551.526154 93.969231 554.127692 92.011538 556.729231 90.053846 559.330769 88.096154 561.932308 86.138462 564.533846 84.180769 567.135385 82.223077 569.736923 80.265385 572.338462 78.307692 574.940000 76.350000 577.541538 74.392308 580.143077 72.434615 582.744615 70.476923 585.346154 68.519231 587.947692 66.561538 590.549231 64.603846 593.150769 62.646154 595.752308 60.688462 598.353846 58.730769 600.955385 56.773077 603.556923 54.815385 606.158462 52.857692 608.760000 50.900000 611.361538 48.942308 613.963077 46.984615 616.564615 45.026923 619.166154 43.069231 621.767692 41.111538 624.369231 39.153846 626.970769 37.196154 629.572308 35.238462 632.173846 33.280769 634.775385 31.323077 637.376923 29.365385 639.978462 27.407692 642.580000 25.450000 645.181538 23.492308 647.783077 21.534615 650.384615 19.576923 652.986154 17.619231 655.587692 15.661538 658.189231 13.703846 660.790769 11.746154 663.392308 9.788462 663.392308 509.000000"/></g><g class="series serie-2 color-2"><path class="line reactive" d="M13.007692 509.000000 L13.007692 330.365643 15.609231 330.711108 18.210769 331.056573 20.812308 331.402038 23.413846 331.747503 26.015385 332.092968 28.616923 332.438433 31.218462 332.783898 33.820000 333.129363 36.421538 333.474828 39.023077 333.820293 41.624615 334.165759 44.226154 334.511224 46.827692 334.856689 49.429231 335.202154 52.030769 335.547619 54.632308 335.893084 57.233846 336.238549 59.835385 336.584014 62.436923 336.929479 65.038462 337.274944 67.640000 337.620409 70.241538 337.965874 72.843077 338.311339 75.444615 338.656804 78.046154 339.002269 80.647692 339.347734 83.249231 339.693199 85.850769 340.038664 88.452308 340.384129 91.053846 340.729594 93.655385 341.075059 96.256923 341.420524 98.858462 341.765989 101.460000 342.111454 104.061538 342.456919 106.663077 342.802384 109.264615 343.147849 111.866154 343.493314 114.467692 343.838779 117.069231 344.184244 119.670769 344.529709 122.272308 344.875174 124.873846 345.220639 127.475385 345.566104 130.076923 345.911569 132.678462 346.257034 135.280000 346.602500 137.881538 346.947965 140.483077 347.293430 143.084615 347.638895 145.686154 347.984360 148.287692 348.329825 150.889231 348.675290 153.490769 349.020755 156.092308 349.366220 158.693846 349.711685 161.295385 350.057150 163.896923 350.402615 166.498462 350.748080 169.100000 351.093545 171.701538 351.439010 174.303077 351.784475 176.904615 352.129940 179.506154 352.475405 182.107692 352.820870 184.709231 353.166335 187.310769 353.511800 189.912308 353.857265 192.513846 354.202730 195.115385 354.548195 197.716923 354.893660 200.318462 355.239125 202.920000 355.584590 205.521538 355.930055 208.123077 356.275520 210.724615 356.620985 213.326154 356.966450 215.927692 357.311915 218.529231 357.657380 221.130769 358.002845 223.732308 358.348310 226.333846 358.693776 228.935385 359.039241 231.536923 359.384706 234.138462 359.730171 236.740000 360.075636 239.341538 360.421101 241.943077 360.766566 244.544615 361.112031 247.146154 361.457496 249.747692 361.802961 252.349231 362.148426 254.950769 362.493891 257.552308 362.839356 260.153846 363.184821 262.755385 363.530286 265.356923 363.875751 267.958462 364.221216 270.560000 364.566681 273.161538 364.912146 275.763077 365.257611 278.364615 365.603076 280.966154 365.948541 283.567692 366.294006 286.169231 366.639471 288.770769 366.984936 291.372308 367.330401 293.973846 367.675866 296.575385 368.021331 299.176923 368.366796 301.778462 368.712261 304.380000 369.057726 306.981538 369.403191 309.583077 369.748656 312.184615 370.094121 314.786154 370.439586 317.387692 370.785051 319.989231 371.130517 322.590769 371.475982 325.192308 371.821447 327.793846 372.166912 330.395385 372.512377 332.996923 372.857842 335.598462 373.203307 338.200000 373.548772 340.801538 373.894237 343.403077 374.239702 346.004615 374.585167 348.606154 374.930632 351.207692 375.276097 353.809231 375.621562 356.410769 375.967027 359.012308 376.312492 361.613846 376.657957 364.215385 377.003422 366.816923 377.348887 369.418462 377.694352 372.020000 378.039817 374.621538 378.385282 377.223077 378.730747 379.824615 379.076212 382.426154 379.421677 385.027692 379.767142 387.629231 380.112607 390.230769 380.458072 392.832308 380.803537 395.433846 381.149002 398.035385 381.494467 400.636923 381.839932 403.238462 382.185397 405.840000 382.530862 408.441538 382.876327 411.043077 383.221792 413.644615 383.567258 416.246154 383.912723 418.847692 384.258188 421.449231 384.603653 424.050769 384.949118 426.652308 385.294583 429.253846 385.640048 431.855385 385.985513 434.456923 386.330978 437.058462 386.676443 439.660000 387.021908 442.261538 387.367373 444.863077 387.712838 447.464615 388.058303 450.066154 388.403768 452.667692 388.749233 455.269231 389.094698 457.870769 389.440163 460.472308 389.785628 463.073846 390.131093 465.675385 390.476558 468.276923 390.822023 470.878462 391.167488 473.480000 391.512953 476.081538 391.858418 478.683077 392.203883 481.284615 392.549348 483.886154 392.894813 486.487692 393.240278 489.089231 393.585743 491.690769 393.931208 494.292308 394.276673 496.893846 394.622138 499.495385 394.967603 502.096923 395.313068 504.698462 395.658534 507.300000 396.003999 509.901538 396.349464 512.503077 396.694929 515.104615 397.040394 517.706154 397.385859 520.307692 397.731324 522.909231 398.076789 525.510769 398.422254 528.112308 398.767719 530.713846 399.113184 533.315385 399.458649 535.916923 399.804114 538.518462 400.149579 541.120000 400.495044 543.721538 400.840509 546.323077 401.185974 548.924615 401.531439 551.526154 401.876904 554.127692 402.222369 556.729231 402.567834 559.330769 402.913299 561.932308 403.258764 564.533846 403.604229 567.135385 403.949694 569.736923 404.295159 572.338462 404.640624 574.940000 404.986089 577.541538 405.331554 580.143077 405.677019 582.744615 406.022484 585.346154 406.367949 587.947692 406.713414 590.549231 407.058879 593.150769 407.404344 595.752308 407.749809 598.353846 408.095275 600.955385 408.440740 603.556923 408.786205 606.158462 409.131670 608.760000 409.477135 611.361538 409.822600 613.963077 410.168065 616.564615 410.513530 619.166154 410.858995 621.767692 411.204460 624.369231 411.549925 626.970769 411.895390 629.572308 412.240855 632.173846 412.586320 634.775385 412.931785 637.376923 413.277250 639.978462 413.622715 642.580000 413.968180 645.181538 414.313645 647.783077 414.659110 650.384615 415.004575 652.986154 415.350040 655.587692 415.695505 658.189231 416.040970 660.790769 416.386435 663.392308 416.731900 663.392308 509.000000"/></g></g><g class="plot overlay" transform="translate(48, 46)"><g class="series serie-0 color-0"><g class="dots"><circle class="dot reactive tooltip-trigger" cx="13.0076923077" cy="172.437870754" r="2.5"/><desc class="value">15.628</desc><desc class="x ">13.0076923077</desc><desc class="y ">172.437870754</desc></g><g class="dots"><circle class="dot reactive tooltip-trigger" cx="663.392307692" cy="9.78846153846" r="2.5"/><desc class="value">22.589</desc><desc class="x left">663.392307692</desc><desc class="y left">9.78846153846</desc></g></g><g class="series serie-1 color-1"><g class="dots"><circle class="dot reactive tooltip-trigger" cx="13.0076923077" cy="499.211538462" r="2.5"/><desc class="value">1.642</desc><desc class="x top">13.0076923077</desc><desc class="y top">499.211538462</desc></g><g class="dots"><circle class="dot reactive tooltip-trigger" cx="663.392307692" cy="9.78846153846" r="2.5"/><desc class="value">22.589</desc><desc class="x left">663.392307692</desc><desc class="y left">9.78846153846</desc></g></g><g class="series serie-2 color-2"><g class="dots"><circle class="dot reactive tooltip-trigger" cx="13.0076923077" cy="330.365643196" r="2.5"/><desc class="value">8.869</desc><desc class="x top">13.0076923077</desc><desc class="y top">330.365643196</desc></g><g class="dots"><circle class="dot reactive tooltip-trigger" cx="663.392307692" cy="416.731900224" r="2.5"/><desc class="value">5.172</desc><desc class="x left top">663.392307692</desc><desc class="y left top">416.731900224</desc></g></g></g><g class="plot text-overlay" transform="translate(48, 46)"><g class="series serie-0 color-0"><text class="centered" x="13.0076923077" y="172.437870754">15.628</text><text class="centered" x="663.392307692" y="9.78846153846">22.589</text></g><g class="series serie-1 color-1"><text class="centered" x="13.0076923077" y="499.211538462">1.642</text><text class="centered" x="663.392307692" y="9.78846153846">22.589</text></g><g class="series serie-2 color-2"><text class="centered" x="13.0076923077" y="330.365643196">8.869</text><text class="centered" x="663.392307692" y="416.731900224">5.172</text></g></g><g class="plot tooltip-overlay" transform="translate(48, 46)"><g id="tooltip" style="opacity: 0" transform="translate(0 0)"><a><rect height="0" id="tooltip-box" rx="5" ry="5" width="0"/><text class="text"><tspan class="label"/><tspan class="value"/></text></a></g></g><g class="legends" transform="translate(734, 56)"><g class="legend reactive activate-serie" id="activate-serie-0"><rect class="color-0 reactive" height="12" width="12" x="0.0" y="1.0"/><text x="17.0" y="11.2">Best</text></g><g class="legend reactive activate-serie" id="activate-serie-1"><rect class="color-1 reactive" height="12" width="12" x="0.0" y="22.0"/><text x="17.0" y="32.2">#1</text></g><g class="legend reactive activate-serie" id="activate-serie-2"><rect class="color-2 reactive" height="12" width="12" x="0.0" y="43.0"/><text x="17.0" y="53.2">#2</text></g></g><text class="title" x="386.2" y="26">Evolution</text></g></svg>